<?xml version='1.0' encoding='ASCII' standalone='yes'?>
<svg xmlns:xlink="http://www.w3.org/1999/xlink" xmlns="http://www.w3.org/2000/svg" width="540.625606pt" height="577.125pt" viewBox="0 0 270.312803 288.5625" version="1.1">
 <metadata>
  <rdf:RDF xmlns:dc="http://purl.org/dc/elements/1.1/" xmlns:cc="http://creativecommons.org/ns#" xmlns:rdf="http://www.w3.org/1999/02/22-rdf-syntax-ns#">
   <cc:Work>
    <dc:type rdf:resource="http://purl.org/dc/dcmitype/StillImage"/>
    <dc:date>2023-11-27T12:59:33.476901</dc:date>
    <dc:format>image/svg+xml</dc:format>
    <dc:creator>
     <cc:Agent>
      <dc:title>Matplotlib v3.8.0, https://matplotlib.org/</dc:title>
     </cc:Agent>
    </dc:creator>
   </cc:Work>
  </rdf:RDF>
 </metadata>
 <defs>
  <style type="text/css">*{stroke-linejoin: round; stroke-linecap: butt}</style>
 </defs>
 <g id="figure_1">
  <g id="patch_1">
   <path d="M 0 288.5625  L 270.312803 288.5625  L 270.312803 0  L 0 0  z " style="fill: #191919"/>
  </g>
  <g id="axes_1">
   <g id="legend_1">
    <g id="patch_2">
     <path d="M 73.634605 54.253365  L 233.428511 54.253365  Q 235.628511 54.253365 235.628511 52.053365  L 235.628511 5.20024  Q 235.628511 3.00024 233.428511 3.00024  L 73.634605 3.00024  Q 71.434605 3.00024 71.434605 5.20024  L 71.434605 52.053365  Q 71.434605 54.253365 73.634605 54.253365  z " style="fill: #191919; opacity: 0.8; stroke: #cccccc; stroke-linejoin: miter"/>
    </g>
    <g id="text_1">
     <!-- Datasets -->
     <g style="fill: #ffffff" transform="translate(131.746402 15.65024) scale(0.11 -0.11)">
      <defs>
       <path id="Roboto-Regular-44" d="M 528 0  L 528 4550  L 1816 4550  Q 2713 4550 3267 3973  Q 3822 3397 3822 2409  L 3822 2138  Q 3822 1150 3264 575  Q 2706 0 1759 0  L 528 0  z M 1131 4056  L 1131 491  L 1759 491  Q 2488 491 2856 941  Q 3225 1391 3225 2138  L 3225 2416  Q 3225 3200 2856 3628  Q 2488 4056 1816 4056  L 1131 4056  z " transform="scale(0.015625)"/>
       <path id="Roboto-Regular-61" d="M 2528 0  Q 2472 122 2447 356  Q 2284 184 2040 60  Q 1797 -63 1484 -63  Q 966 -63 653 228  Q 341 519 341 941  Q 341 1484 753 1767  Q 1166 2050 1863 2050  L 2434 2050  L 2434 2319  Q 2434 2619 2254 2798  Q 2075 2978 1722 2978  Q 1394 2978 1192 2817  Q 991 2656 991 2444  L 413 2444  Q 413 2806 778 3125  Q 1144 3444 1756 3444  Q 2306 3444 2659 3162  Q 3013 2881 3013 2313  L 3013 794  Q 3013 325 3131 50  L 3131 0  L 2528 0  z M 1569 444  Q 1881 444 2111 600  Q 2341 756 2434 947  L 2434 1644  L 1897 1644  Q 922 1625 922 1019  Q 922 778 1084 611  Q 1247 444 1569 444  z " transform="scale(0.015625)"/>
       <path id="Roboto-Regular-74" d="M 1872 0  Q 1675 -63 1425 -63  Q 1103 -63 875 134  Q 647 331 647 841  L 647 2938  L 28 2938  L 28 3381  L 647 3381  L 647 4203  L 1225 4203  L 1225 3381  L 1856 3381  L 1856 2938  L 1225 2938  L 1225 838  Q 1225 578 1337 506  Q 1450 434 1597 434  Q 1706 434 1869 472  L 1872 0  z " transform="scale(0.015625)"/>
       <path id="Roboto-Regular-73" d="M 2409 897  Q 2409 1081 2273 1229  Q 2138 1378 1647 1478  Q 1081 1594 747 1814  Q 413 2034 413 2456  Q 413 2856 755 3150  Q 1097 3444 1666 3444  Q 2272 3444 2612 3134  Q 2953 2825 2953 2388  L 2375 2388  Q 2375 2597 2190 2783  Q 2006 2969 1666 2969  Q 1306 2969 1150 2812  Q 994 2656 994 2472  Q 994 2288 1139 2173  Q 1284 2059 1756 1953  Q 2378 1813 2683 1584  Q 2988 1356 2988 941  Q 2988 494 2630 215  Q 2272 -63 1681 -63  Q 1009 -63 653 281  Q 297 625 297 1044  L 878 1044  Q 897 684 1155 548  Q 1413 413 1681 413  Q 2034 413 2221 550  Q 2409 688 2409 897  z " transform="scale(0.015625)"/>
       <path id="Roboto-Regular-65" d="M 3116 591  Q 2950 341 2647 139  Q 2344 -63 1844 -63  Q 1138 -63 714 396  Q 291 856 291 1572  L 291 1703  Q 291 2256 502 2645  Q 713 3034 1050 3239  Q 1388 3444 1769 3444  Q 2494 3444 2826 2970  Q 3159 2497 3159 1788  L 3159 1528  L 872 1528  Q 884 1063 1148 736  Q 1413 409 1875 409  Q 2181 409 2393 534  Q 2606 659 2766 869  L 3116 591  z M 1769 2969  Q 1425 2969 1187 2719  Q 950 2469 891 2000  L 2581 2000  L 2581 2044  Q 2559 2381 2386 2675  Q 2213 2969 1769 2969  z " transform="scale(0.015625)"/>
      </defs>
      <use xlink:href="#Roboto-Regular-44"/>
      <use xlink:href="#Roboto-Regular-61" x="65.625"/>
      <use xlink:href="#Roboto-Regular-74" x="120.019531"/>
      <use xlink:href="#Roboto-Regular-61" x="152.734375"/>
      <use xlink:href="#Roboto-Regular-73" x="207.128906"/>
      <use xlink:href="#Roboto-Regular-65" x="258.740234"/>
      <use xlink:href="#Roboto-Regular-74" x="311.767578"/>
      <use xlink:href="#Roboto-Regular-73" x="344.482422"/>
     </g>
    </g>
    <g id="line2d_1">
     <defs>
      <path id="meac9d01ee3" d="M 0 3  C 0.795609 3 1.55874 2.683901 2.12132 2.12132  C 2.683901 1.55874 3 0.795609 3 0  C 3 -0.795609 2.683901 -1.55874 2.12132 -2.12132  C 1.55874 -2.683901 0.795609 -3 0 -3  C -0.795609 -3 -1.55874 -2.683901 -2.12132 -2.12132  C -2.683901 -1.55874 -3 -0.795609 -3 0  C -3 0.795609 -2.683901 1.55874 -2.12132 2.12132  C -1.55874 2.683901 -0.795609 3 0 3  z " style="stroke: #fcca46"/>
     </defs>
     <g>
      <use xlink:href="#meac9d01ee3" x="86.834605" y="27.784615" style="fill: #fcca46; stroke: #fcca46"/>
     </g>
    </g>
    <g id="text_2">
     <!-- IMFT -->
     <g style="fill: #ffffff" transform="translate(106.634605 31.634615) scale(0.11 -0.11)">
      <defs>
       <path id="Roboto-Regular-49" d="M 1175 4550  L 1175 0  L 572 0  L 572 4550  L 1175 4550  z " transform="scale(0.015625)"/>
       <path id="Roboto-Regular-4d" d="M 2794 841  L 4281 4550  L 5056 4550  L 5056 0  L 4456 0  L 4456 1775  L 4516 3678  L 3019 0  L 2563 0  L 1069 3684  L 1128 1775  L 1128 0  L 528 0  L 528 4550  L 1303 4550  L 2794 841  z " transform="scale(0.015625)"/>
       <path id="Roboto-Regular-46" d="M 528 0  L 528 4550  L 3347 4550  L 3347 4056  L 1131 4056  L 1131 2503  L 3038 2503  L 3038 2009  L 1131 2009  L 1131 0  L 528 0  z " transform="scale(0.015625)"/>
       <path id="Roboto-Regular-54" d="M 156 4056  L 156 4550  L 3672 4550  L 3672 4056  L 2209 4056  L 2209 0  L 1616 0  L 1616 4056  L 156 4056  z " transform="scale(0.015625)"/>
      </defs>
      <use xlink:href="#Roboto-Regular-49"/>
      <use xlink:href="#Roboto-Regular-4d" x="27.197266"/>
      <use xlink:href="#Roboto-Regular-46" x="114.501953"/>
      <use xlink:href="#Roboto-Regular-54" x="169.775391"/>
     </g>
    </g>
    <g id="line2d_2">
     <defs>
      <path id="m8cc4c340d1" d="M 0 3  C 0.795609 3 1.55874 2.683901 2.12132 2.12132  C 2.683901 1.55874 3 0.795609 3 0  C 3 -0.795609 2.683901 -1.55874 2.12132 -2.12132  C 1.55874 -2.683901 0.795609 -3 0 -3  C -0.795609 -3 -1.55874 -2.683901 -2.12132 -2.12132  C -2.683901 -1.55874 -3 -0.795609 -3 0  C -3 0.795609 -2.683901 1.55874 -2.12132 2.12132  C -1.55874 2.683901 -0.795609 3 0 3  z " style="stroke: #83b692"/>
     </defs>
     <g>
      <use xlink:href="#m8cc4c340d1" x="86.834605" y="43.76899" style="fill: #83b692; stroke: #83b692"/>
     </g>
    </g>
    <g id="text_3">
     <!-- LEGI -->
     <g style="fill: #ffffff" transform="translate(106.634605 47.61899) scale(0.11 -0.11)">
      <defs>
       <path id="Roboto-Regular-4c" d="M 3288 491  L 3288 0  L 528 0  L 528 4550  L 1131 4550  L 1131 491  L 3288 491  z " transform="scale(0.015625)"/>
       <path id="Roboto-Regular-45" d="M 528 0  L 528 4550  L 3388 4550  L 3388 4056  L 1131 4056  L 1131 2594  L 3100 2594  L 3100 2103  L 1131 2103  L 1131 491  L 3419 491  L 3419 0  L 528 0  z " transform="scale(0.015625)"/>
       <path id="Roboto-Regular-47" d="M 3891 2266  L 3891 600  Q 3763 413 3403 175  Q 3044 -63 2281 -63  Q 1450 -63 915 507  Q 381 1078 381 2100  L 381 2453  Q 381 3469 856 4041  Q 1331 4613 2213 4613  Q 2994 4613 3398 4219  Q 3803 3825 3891 3219  L 3288 3219  Q 3225 3588 2979 3853  Q 2734 4119 2213 4119  Q 1584 4119 1287 3676  Q 991 3234 988 2475  L 988 2100  Q 988 1313 1344 870  Q 1700 428 2284 428  Q 2769 428 2984 542  Q 3200 656 3291 759  L 3291 1778  L 2238 1778  L 2238 2266  L 3891 2266  z " transform="scale(0.015625)"/>
      </defs>
      <use xlink:href="#Roboto-Regular-4c"/>
      <use xlink:href="#Roboto-Regular-45" x="53.857422"/>
      <use xlink:href="#Roboto-Regular-47" x="110.693359"/>
      <use xlink:href="#Roboto-Regular-49" x="178.808594"/>
     </g>
    </g>
    <g id="line2d_3">
     <defs>
      <path id="ma2f0a5076c" d="M 0 3  C 0.795609 3 1.55874 2.683901 2.12132 2.12132  C 2.683901 1.55874 3 0.795609 3 0  C 3 -0.795609 2.683901 -1.55874 2.12132 -2.12132  C 1.55874 -2.683901 0.795609 -3 0 -3  C -0.795609 -3 -1.55874 -2.683901 -2.12132 -2.12132  C -2.683901 -1.55874 -3 -0.795609 -3 0  C -3 0.795609 -2.683901 1.55874 -2.12132 2.12132  C -1.55874 2.683901 -0.795609 3 0 3  z " style="stroke: #fe7f2d"/>
     </defs>
     <g>
      <use xlink:href="#ma2f0a5076c" x="164.876167" y="27.784615" style="fill: #fe7f2d; stroke: #fe7f2d"/>
     </g>
    </g>
    <g id="text_4">
     <!-- LEMTA -->
     <g style="fill: #ffffff" transform="translate(184.676167 31.634615) scale(0.11 -0.11)">
      <defs>
       <path id="Roboto-Regular-41" d="M 91 0  L 1825 4550  L 2353 4550  L 4094 0  L 3475 0  L 3041 1191  L 1138 1191  L 706 0  L 91 0  z M 1319 1684  L 2863 1684  L 2091 3806  L 1319 1684  z " transform="scale(0.015625)"/>
      </defs>
      <use xlink:href="#Roboto-Regular-4c"/>
      <use xlink:href="#Roboto-Regular-45" x="53.857422"/>
      <use xlink:href="#Roboto-Regular-4d" x="110.693359"/>
      <use xlink:href="#Roboto-Regular-54" x="197.998047"/>
      <use xlink:href="#Roboto-Regular-41" x="257.666016"/>
     </g>
    </g>
    <g id="line2d_4">
     <defs>
      <path id="macf4bd16de" d="M -3 3  L 3 3  L 3 -3  L -3 -3  z " style="stroke: #780116; stroke-linejoin: miter"/>
     </defs>
     <g>
      <use xlink:href="#macf4bd16de" x="164.876167" y="43.76899" style="fill: #780116; stroke: #780116; stroke-linejoin: miter"/>
     </g>
    </g>
    <g id="text_5">
     <!-- SedFoam -->
     <g style="fill: #ffffff" transform="translate(184.676167 47.61899) scale(0.11 -0.11)">
      <defs>
       <path id="Roboto-Regular-53" d="M 2953 1150  Q 2953 1463 2742 1650  Q 2531 1838 1856 2036  Q 1181 2234 789 2542  Q 397 2850 397 3375  Q 397 3906 820 4259  Q 1244 4613 1944 4613  Q 2713 4613 3130 4191  Q 3547 3769 3547 3238  L 2947 3238  Q 2947 3619 2700 3869  Q 2453 4119 1944 4119  Q 1463 4119 1231 3908  Q 1000 3697 1000 3381  Q 1000 3097 1245 2908  Q 1491 2719 2044 2563  Q 2834 2341 3196 2014  Q 3559 1688 3559 1156  Q 3559 600 3125 268  Q 2691 -63 1972 -63  Q 1553 -63 1158 93  Q 763 250 508 558  Q 253 866 253 1319  L 853 1319  Q 853 853 1193 640  Q 1534 428 1972 428  Q 2444 428 2698 623  Q 2953 819 2953 1150  z " transform="scale(0.015625)"/>
       <path id="Roboto-Regular-64" d="M 2622 0  L 2594 363  Q 2247 -63 1628 -63  Q 1034 -63 668 418  Q 303 900 297 1628  L 297 1719  Q 297 2494 664 2969  Q 1031 3444 1634 3444  Q 2231 3444 2572 3044  L 2572 4800  L 3153 4800  L 3153 0  L 2622 0  z M 878 1653  Q 878 1150 1090 789  Q 1303 428 1772 428  Q 2309 428 2572 919  L 2572 2475  Q 2313 2956 1778 2956  Q 1306 2956 1092 2589  Q 878 2222 878 1719  L 878 1653  z " transform="scale(0.015625)"/>
       <path id="Roboto-Regular-6f" d="M 288 1725  Q 288 2459 700 2951  Q 1113 3444 1822 3444  Q 2531 3444 2943 2961  Q 3356 2478 3366 1756  L 3366 1653  Q 3366 919 2952 428  Q 2538 -63 1828 -63  Q 1116 -63 702 428  Q 288 919 288 1653  L 288 1725  z M 866 1653  Q 866 1150 1105 781  Q 1344 413 1828 413  Q 2300 413 2540 777  Q 2781 1141 2784 1644  L 2784 1725  Q 2784 2222 2543 2595  Q 2303 2969 1822 2969  Q 1344 2969 1105 2595  Q 866 2222 866 1725  L 866 1653  z " transform="scale(0.015625)"/>
       <path id="Roboto-Regular-6d" d="M 1794 2956  Q 1225 2956 1016 2478  L 1016 0  L 434 0  L 434 3381  L 984 3381  L 1000 3013  Q 1366 3444 2000 3444  Q 2325 3444 2579 3314  Q 2834 3184 2969 2900  Q 3138 3144 3408 3294  Q 3678 3444 4044 3444  Q 4588 3444 4883 3153  Q 5178 2863 5178 2222  L 5178 0  L 4597 0  L 4597 2228  Q 4597 2653 4401 2804  Q 4206 2956 3875 2956  Q 3525 2956 3325 2748  Q 3125 2541 3094 2244  L 3094 0  L 2516 0  L 2516 2225  Q 2516 2622 2319 2789  Q 2122 2956 1794 2956  z " transform="scale(0.015625)"/>
      </defs>
      <use xlink:href="#Roboto-Regular-53"/>
      <use xlink:href="#Roboto-Regular-65" x="59.375"/>
      <use xlink:href="#Roboto-Regular-64" x="112.402344"/>
      <use xlink:href="#Roboto-Regular-46" x="168.798828"/>
      <use xlink:href="#Roboto-Regular-6f" x="224.072266"/>
      <use xlink:href="#Roboto-Regular-61" x="281.103516"/>
      <use xlink:href="#Roboto-Regular-6d" x="335.498047"/>
     </g>
    </g>
   </g>
  </g>
  <g id="axes_2">
   <g id="patch_3">
    <path d="M 45.932896 253.59351  L 261.130219 253.59351  L 261.130219 60.253837  L 45.932896 60.253837  z " style="fill: #191919"/>
   </g>
   <g id="matplotlib.axis_1">
    <g id="xtick_1">
     <g id="line2d_5">
      <defs>
       <path id="m1b776c68f8" d="M 0 0  L 0 3.5  " style="stroke: #ffffff; stroke-width: 0.8"/>
      </defs>
      <g>
       <use xlink:href="#m1b776c68f8" x="51.181611" y="253.59351" style="fill: #ffffff; stroke: #ffffff; stroke-width: 0.8"/>
      </g>
     </g>
     <g id="text_6">
      <!-- 0 -->
      <g style="fill: #ffffff" transform="translate(48.09044 268.84351) scale(0.11 -0.11)">
       <defs>
        <path id="Roboto-Regular-30" d="M 3234 1944  Q 3234 825 2848 381  Q 2463 -63 1800 -63  Q 1156 -63 764 368  Q 372 800 359 1872  L 359 2638  Q 359 3753 750 4183  Q 1141 4613 1794 4613  Q 2447 4613 2834 4195  Q 3222 3778 3234 2709  L 3234 1944  z M 2653 2734  Q 2653 3503 2434 3822  Q 2216 4141 1794 4141  Q 1388 4141 1167 3831  Q 947 3522 941 2778  L 941 1850  Q 941 1088 1164 750  Q 1388 413 1800 413  Q 2222 413 2436 745  Q 2650 1078 2653 1825  L 2653 2734  z " transform="scale(0.015625)"/>
       </defs>
       <use xlink:href="#Roboto-Regular-30"/>
      </g>
     </g>
    </g>
    <g id="xtick_2">
     <g id="line2d_6">
      <g>
       <use xlink:href="#m1b776c68f8" x="103.668763" y="253.59351" style="fill: #ffffff; stroke: #ffffff; stroke-width: 0.8"/>
      </g>
     </g>
     <g id="text_7">
      <!-- 10 -->
      <g style="fill: #ffffff" transform="translate(97.48642 268.84351) scale(0.11 -0.11)">
       <defs>
        <path id="Roboto-Regular-31" d="M 2278 4575  L 2278 0  L 1700 0  L 1700 3853  L 534 3428  L 534 3950  L 2188 4575  L 2278 4575  z " transform="scale(0.015625)"/>
       </defs>
       <use xlink:href="#Roboto-Regular-31"/>
       <use xlink:href="#Roboto-Regular-30" x="56.201172"/>
      </g>
     </g>
    </g>
    <g id="xtick_3">
     <g id="line2d_7">
      <g>
       <use xlink:href="#m1b776c68f8" x="156.155915" y="253.59351" style="fill: #ffffff; stroke: #ffffff; stroke-width: 0.8"/>
      </g>
     </g>
     <g id="text_8">
      <!-- 20 -->
      <g style="fill: #ffffff" transform="translate(149.973572 268.84351) scale(0.11 -0.11)">
       <defs>
        <path id="Roboto-Regular-32" d="M 3359 475  L 3359 0  L 381 0  L 381 416  L 1925 2134  Q 2306 2566 2439 2819  Q 2572 3072 2572 3328  Q 2572 3663 2364 3900  Q 2156 4138 1778 4138  Q 1322 4138 1097 3878  Q 872 3619 872 3213  L 294 3213  Q 294 3788 672 4200  Q 1050 4613 1778 4613  Q 2422 4613 2786 4278  Q 3150 3944 3150 3397  Q 3150 2997 2903 2592  Q 2656 2188 2297 1797  L 1078 475  L 3359 475  z " transform="scale(0.015625)"/>
       </defs>
       <use xlink:href="#Roboto-Regular-32"/>
       <use xlink:href="#Roboto-Regular-30" x="56.201172"/>
      </g>
     </g>
    </g>
    <g id="xtick_4">
     <g id="line2d_8">
      <g>
       <use xlink:href="#m1b776c68f8" x="208.643067" y="253.59351" style="fill: #ffffff; stroke: #ffffff; stroke-width: 0.8"/>
      </g>
     </g>
     <g id="text_9">
      <!-- 30 -->
      <g style="fill: #ffffff" transform="translate(202.460724 268.84351) scale(0.11 -0.11)">
       <defs>
        <path id="Roboto-Regular-33" d="M 1222 2084  L 1222 2559  L 1647 2559  Q 2094 2563 2312 2784  Q 2531 3006 2531 3338  Q 2531 4138 1738 4138  Q 1369 4138 1141 3927  Q 913 3716 913 3359  L 334 3359  Q 334 3881 720 4247  Q 1106 4613 1738 4613  Q 2353 4613 2733 4286  Q 3113 3959 3113 3325  Q 3113 3072 2942 2784  Q 2772 2497 2397 2338  Q 2850 2191 3015 1884  Q 3181 1578 3181 1269  Q 3181 631 2768 284  Q 2356 -63 1741 -63  Q 1147 -63 722 267  Q 297 597 297 1203  L 875 1203  Q 875 844 1108 628  Q 1341 413 1741 413  Q 2138 413 2369 622  Q 2600 831 2600 1256  Q 2600 1681 2337 1882  Q 2075 2084 1634 2084  L 1222 2084  z " transform="scale(0.015625)"/>
       </defs>
       <use xlink:href="#Roboto-Regular-33"/>
       <use xlink:href="#Roboto-Regular-30" x="56.201172"/>
      </g>
     </g>
    </g>
    <g id="xtick_5">
     <g id="line2d_9">
      <g>
       <use xlink:href="#m1b776c68f8" x="261.130219" y="253.59351" style="fill: #ffffff; stroke: #ffffff; stroke-width: 0.8"/>
      </g>
     </g>
     <g id="text_10">
      <!-- 40 -->
      <g style="fill: #ffffff" transform="translate(254.947876 268.84351) scale(0.11 -0.11)">
       <defs>
        <path id="Roboto-Regular-34" d="M 166 1397  L 2203 4550  L 2819 4550  L 2819 1531  L 3453 1531  L 3453 1056  L 2819 1056  L 2819 0  L 2241 0  L 2241 1056  L 166 1056  L 166 1397  z M 822 1531  L 2241 1531  L 2241 3766  L 2169 3638  L 822 1531  z " transform="scale(0.015625)"/>
       </defs>
       <use xlink:href="#Roboto-Regular-34"/>
       <use xlink:href="#Roboto-Regular-30" x="56.201172"/>
      </g>
     </g>
    </g>
    <g id="text_11">
     <!-- Time, $t/t_{0}$ -->
     <g style="fill: #ffffff" transform="translate(131.971558 283.327885) scale(0.11 -0.11)">
      <defs>
       <path id="Roboto-Regular-69" d="M 444 4278  Q 444 4419 530 4516  Q 616 4613 784 4613  Q 950 4613 1039 4516  Q 1128 4419 1128 4278  Q 1128 4144 1039 4048  Q 950 3953 784 3953  Q 616 3953 530 4048  Q 444 4144 444 4278  z M 1069 3381  L 1069 0  L 488 0  L 488 3381  L 1069 3381  z " transform="scale(0.015625)"/>
       <path id="Roboto-Regular-2c" d="M 966 688  L 966 222  Q 966 -63 822 -380  Q 678 -697 419 -909  L 91 -681  Q 391 -263 400 175  L 400 688  L 966 688  z " transform="scale(0.015625)"/>
       <path id="Roboto-Regular-20" transform="scale(0.015625)"/>
       <path id="STIXGeneral-Italic-74" d="M 1894 2739  L 1862 2534  L 1325 2534  L 768 435  Q 755 384 755 346  Q 755 243 851 243  Q 928 243 1030 342  Q 1133 442 1370 749  L 1453 704  Q 1158 256 969 93  Q 781 -70 538 -70  Q 243 -70 243 166  Q 243 230 346 640  L 845 2534  L 365 2534  L 358 2573  Q 358 2688 570 2733  Q 730 2771 992 2979  Q 1254 3187 1421 3437  Q 1459 3494 1510 3494  Q 1568 3494 1568 3443  Q 1568 3411 1562 3398  L 1382 2739  L 1894 2739  z " transform="scale(0.015625)"/>
       <path id="STIXGeneral-Regular-2f" d="M 1837 4326  L 378 -90  L -58 -90  L 1408 4326  L 1837 4326  z " transform="scale(0.015625)"/>
       <path id="STIXGeneral-Regular-30" d="M 3046 2112  Q 3046 1683 2963 1302  Q 2880 922 2717 602  Q 2554 282 2266 96  Q 1978 -90 1600 -90  Q 1210 -90 915 108  Q 621 307 461 640  Q 301 973 227 1350  Q 154 1728 154 2150  Q 154 2746 301 3222  Q 448 3699 790 4012  Q 1133 4326 1626 4326  Q 2253 4326 2649 3712  Q 3046 3098 3046 2112  z M 2432 2080  Q 2432 3091 2217 3625  Q 2003 4160 1587 4160  Q 1190 4160 979 3622  Q 768 3085 768 2106  Q 768 1120 979 598  Q 1190 77 1600 77  Q 2003 77 2217 598  Q 2432 1120 2432 2080  z " transform="scale(0.015625)"/>
      </defs>
      <use xlink:href="#Roboto-Regular-54" transform="translate(0 0.921875)"/>
      <use xlink:href="#Roboto-Regular-69" transform="translate(59.667969 0.921875)"/>
      <use xlink:href="#Roboto-Regular-6d" transform="translate(83.984375 0.921875)"/>
      <use xlink:href="#Roboto-Regular-65" transform="translate(171.679688 0.921875)"/>
      <use xlink:href="#Roboto-Regular-2c" transform="translate(224.707031 0.921875)"/>
      <use xlink:href="#Roboto-Regular-20" transform="translate(244.384766 0.921875)"/>
      <use xlink:href="#STIXGeneral-Italic-74" transform="translate(269.189453 0.921875)"/>
      <use xlink:href="#STIXGeneral-Regular-2f" transform="translate(296.989441 0.921875)"/>
      <use xlink:href="#STIXGeneral-Italic-74" transform="translate(324.789429 0.921875)"/>
      <use xlink:href="#STIXGeneral-Regular-30" transform="translate(352.589417 -12.30625) scale(0.7)"/>
     </g>
    </g>
   </g>
   <g id="matplotlib.axis_2">
    <g id="ytick_1">
     <g id="line2d_10">
      <defs>
       <path id="m580d42daac" d="M 0 0  L -3.5 0  " style="stroke: #ffffff; stroke-width: 0.8"/>
      </defs>
      <g>
       <use xlink:href="#m580d42daac" x="45.932896" y="248.069519" style="fill: #ffffff; stroke: #ffffff; stroke-width: 0.8"/>
      </g>
     </g>
     <g id="text_12">
      <!-- 0.0 -->
      <g style="fill: #ffffff" transform="translate(23.666959 252.194519) scale(0.11 -0.11)">
       <defs>
        <path id="Roboto-Regular-2e" d="M 450 306  Q 450 453 542 554  Q 634 656 809 656  Q 984 656 1076 554  Q 1169 453 1169 306  Q 1169 163 1076 62  Q 984 -38 809 -38  Q 634 -38 542 62  Q 450 163 450 306  z " transform="scale(0.015625)"/>
       </defs>
       <use xlink:href="#Roboto-Regular-30"/>
       <use xlink:href="#Roboto-Regular-2e" x="56.201172"/>
       <use xlink:href="#Roboto-Regular-30" x="82.568359"/>
      </g>
     </g>
    </g>
    <g id="ytick_2">
     <g id="line2d_11">
      <g>
       <use xlink:href="#m580d42daac" x="45.932896" y="220.449566" style="fill: #ffffff; stroke: #ffffff; stroke-width: 0.8"/>
      </g>
     </g>
     <g id="text_13">
      <!-- 2.5 -->
      <g style="fill: #ffffff" transform="translate(23.666959 224.574566) scale(0.11 -0.11)">
       <defs>
        <path id="Roboto-Regular-35" d="M 1109 2166  L 647 2284  L 875 4550  L 3209 4550  L 3209 4016  L 1366 4016  L 1228 2778  Q 1572 2975 1988 2975  Q 2616 2975 2980 2561  Q 3344 2147 3344 1450  Q 3344 797 2987 367  Q 2631 -63 1903 -63  Q 1350 -63 947 248  Q 544 559 481 1197  L 1031 1197  Q 1141 413 1903 413  Q 2313 413 2538 691  Q 2763 969 2763 1444  Q 2763 1872 2527 2164  Q 2291 2456 1853 2456  Q 1563 2456 1413 2378  Q 1263 2300 1109 2166  z " transform="scale(0.015625)"/>
       </defs>
       <use xlink:href="#Roboto-Regular-32"/>
       <use xlink:href="#Roboto-Regular-2e" x="56.201172"/>
       <use xlink:href="#Roboto-Regular-35" x="82.568359"/>
      </g>
     </g>
    </g>
    <g id="ytick_3">
     <g id="line2d_12">
      <g>
       <use xlink:href="#m580d42daac" x="45.932896" y="192.829613" style="fill: #ffffff; stroke: #ffffff; stroke-width: 0.8"/>
      </g>
     </g>
     <g id="text_14">
      <!-- 5.0 -->
      <g style="fill: #ffffff" transform="translate(23.666959 196.954613) scale(0.11 -0.11)">
       <use xlink:href="#Roboto-Regular-35"/>
       <use xlink:href="#Roboto-Regular-2e" x="56.201172"/>
       <use xlink:href="#Roboto-Regular-30" x="82.568359"/>
      </g>
     </g>
    </g>
    <g id="ytick_4">
     <g id="line2d_13">
      <g>
       <use xlink:href="#m580d42daac" x="45.932896" y="165.209659" style="fill: #ffffff; stroke: #ffffff; stroke-width: 0.8"/>
      </g>
     </g>
     <g id="text_15">
      <!-- 7.5 -->
      <g style="fill: #ffffff" transform="translate(23.666959 169.334659) scale(0.11 -0.11)">
       <defs>
        <path id="Roboto-Regular-37" d="M 3319 4550  L 3319 4225  L 1434 0  L 825 0  L 2706 4075  L 244 4075  L 244 4550  L 3319 4550  z " transform="scale(0.015625)"/>
       </defs>
       <use xlink:href="#Roboto-Regular-37"/>
       <use xlink:href="#Roboto-Regular-2e" x="56.201172"/>
       <use xlink:href="#Roboto-Regular-35" x="82.568359"/>
      </g>
     </g>
    </g>
    <g id="ytick_5">
     <g id="line2d_14">
      <g>
       <use xlink:href="#m580d42daac" x="45.932896" y="137.589706" style="fill: #ffffff; stroke: #ffffff; stroke-width: 0.8"/>
      </g>
     </g>
     <g id="text_16">
      <!-- 10.0 -->
      <g style="fill: #ffffff" transform="translate(17.484615 141.714706) scale(0.11 -0.11)">
       <use xlink:href="#Roboto-Regular-31"/>
       <use xlink:href="#Roboto-Regular-30" x="56.201172"/>
       <use xlink:href="#Roboto-Regular-2e" x="112.402344"/>
       <use xlink:href="#Roboto-Regular-30" x="138.769531"/>
      </g>
     </g>
    </g>
    <g id="ytick_6">
     <g id="line2d_15">
      <g>
       <use xlink:href="#m580d42daac" x="45.932896" y="109.969753" style="fill: #ffffff; stroke: #ffffff; stroke-width: 0.8"/>
      </g>
     </g>
     <g id="text_17">
      <!-- 12.5 -->
      <g style="fill: #ffffff" transform="translate(17.484615 114.094753) scale(0.11 -0.11)">
       <use xlink:href="#Roboto-Regular-31"/>
       <use xlink:href="#Roboto-Regular-32" x="56.201172"/>
       <use xlink:href="#Roboto-Regular-2e" x="112.402344"/>
       <use xlink:href="#Roboto-Regular-35" x="138.769531"/>
      </g>
     </g>
    </g>
    <g id="ytick_7">
     <g id="line2d_16">
      <g>
       <use xlink:href="#m580d42daac" x="45.932896" y="82.349799" style="fill: #ffffff; stroke: #ffffff; stroke-width: 0.8"/>
      </g>
     </g>
     <g id="text_18">
      <!-- 15.0 -->
      <g style="fill: #ffffff" transform="translate(17.484615 86.474799) scale(0.11 -0.11)">
       <use xlink:href="#Roboto-Regular-31"/>
       <use xlink:href="#Roboto-Regular-35" x="56.201172"/>
       <use xlink:href="#Roboto-Regular-2e" x="112.402344"/>
       <use xlink:href="#Roboto-Regular-30" x="138.769531"/>
      </g>
     </g>
    </g>
    <g id="text_19">
     <!-- Front position, $x_{\rm f}/l_{0}$ -->
     <g style="fill: #ffffff" transform="translate(11.174615 202.518673) rotate(-90) scale(0.11 -0.11)">
      <defs>
       <path id="Roboto-Regular-72" d="M 1791 2888  Q 1225 2888 1019 2400  L 1019 0  L 441 0  L 441 3381  L 1003 3381  L 1016 2994  Q 1294 3444 1819 3444  Q 1981 3444 2075 3400  L 2072 2863  Q 1944 2888 1791 2888  z " transform="scale(0.015625)"/>
       <path id="Roboto-Regular-6e" d="M 1844 2956  Q 1566 2956 1353 2806  Q 1141 2656 1019 2416  L 1019 0  L 441 0  L 441 3381  L 988 3381  L 1006 2959  Q 1391 3444 2016 3444  Q 2513 3444 2805 3166  Q 3097 2888 3100 2231  L 3100 0  L 2519 0  L 2519 2222  Q 2519 2619 2345 2787  Q 2172 2956 1844 2956  z " transform="scale(0.015625)"/>
       <path id="Roboto-Regular-70" d="M 1984 -63  Q 1375 -63 1019 328  L 1019 -1300  L 438 -1300  L 438 3381  L 969 3381  L 997 3009  Q 1353 3444 1975 3444  Q 2616 3444 2956 2969  Q 3297 2494 3297 1719  L 3297 1653  Q 3297 913 2955 425  Q 2613 -63 1984 -63  z M 1806 2956  Q 1281 2956 1019 2491  L 1019 872  Q 1284 413 1813 413  Q 2281 413 2498 781  Q 2716 1150 2716 1653  L 2716 1719  Q 2716 2222 2498 2589  Q 2281 2956 1806 2956  z " transform="scale(0.015625)"/>
       <path id="STIXGeneral-Italic-78" d="M 1555 2272  L 1632 1907  Q 1971 2426 2179 2624  Q 2387 2822 2598 2822  Q 2714 2822 2787 2755  Q 2861 2688 2861 2585  Q 2861 2483 2800 2419  Q 2739 2355 2643 2355  Q 2586 2355 2490 2409  Q 2394 2464 2310 2464  Q 2125 2464 1683 1690  Q 1683 1606 1734 1402  L 1939 544  Q 2003 282 2131 282  Q 2234 282 2432 538  Q 2451 563 2476 598  Q 2502 634 2521 662  Q 2541 691 2566 717  L 2662 659  Q 2387 230 2227 80  Q 2067 -70 1882 -70  Q 1728 -70 1645 26  Q 1562 122 1504 365  L 1318 1126  L 755 365  Q 557 96 432 13  Q 307 -70 147 -70  Q 0 -70 -86 0  Q -173 70 -173 198  Q -173 294 -112 361  Q -51 429 45 429  Q 122 429 250 358  Q 346 301 416 301  Q 525 301 742 614  L 1267 1357  L 1088 2150  Q 1024 2432 969 2509  Q 915 2586 794 2586  Q 717 2586 544 2541  L 429 2509  L 410 2611  L 480 2637  Q 992 2822 1229 2822  Q 1350 2822 1420 2707  Q 1491 2592 1555 2272  z " transform="scale(0.015625)"/>
       <path id="STIXGeneral-Regular-66" d="M 134 2880  L 659 2880  Q 666 3264 710 3478  Q 755 3693 883 3910  Q 1152 4371 1786 4371  Q 2074 4371 2262 4259  Q 2451 4147 2451 3974  Q 2451 3866 2374 3789  Q 2298 3712 2182 3712  Q 2029 3712 1894 3942  Q 1741 4192 1555 4192  Q 1197 4192 1197 3622  L 1197 2880  L 1978 2880  L 1978 2675  L 1197 2675  L 1197 666  Q 1197 307 1299 208  Q 1402 109 1792 96  L 1792 0  L 128 0  L 128 96  Q 474 115 566 214  Q 659 314 659 666  L 659 2675  L 134 2675  L 134 2880  z " transform="scale(0.015625)"/>
       <path id="STIXGeneral-Italic-6c" d="M 1786 4339  L 806 595  Q 755 410 755 320  Q 755 205 864 205  Q 1037 205 1293 570  L 1453 794  L 1542 730  Q 1254 275 1046 102  Q 838 -70 576 -70  Q 262 -70 262 288  Q 262 397 288 480  L 1165 3834  Q 1184 3898 1184 3955  Q 1184 4096 870 4096  L 755 4096  L 755 4198  Q 1203 4250 1747 4371  L 1786 4339  z " transform="scale(0.015625)"/>
      </defs>
      <use xlink:href="#Roboto-Regular-46" transform="translate(0 0.921875)"/>
      <use xlink:href="#Roboto-Regular-72" transform="translate(55.273438 0.921875)"/>
      <use xlink:href="#Roboto-Regular-6f" transform="translate(89.160156 0.921875)"/>
      <use xlink:href="#Roboto-Regular-6e" transform="translate(146.191406 0.921875)"/>
      <use xlink:href="#Roboto-Regular-74" transform="translate(201.416016 0.921875)"/>
      <use xlink:href="#Roboto-Regular-20" transform="translate(234.130859 0.921875)"/>
      <use xlink:href="#Roboto-Regular-70" transform="translate(258.935547 0.921875)"/>
      <use xlink:href="#Roboto-Regular-6f" transform="translate(315.087891 0.921875)"/>
      <use xlink:href="#Roboto-Regular-73" transform="translate(372.119141 0.921875)"/>
      <use xlink:href="#Roboto-Regular-69" transform="translate(423.730469 0.921875)"/>
      <use xlink:href="#Roboto-Regular-74" transform="translate(448.046875 0.921875)"/>
      <use xlink:href="#Roboto-Regular-69" transform="translate(480.761719 0.921875)"/>
      <use xlink:href="#Roboto-Regular-6f" transform="translate(505.078125 0.921875)"/>
      <use xlink:href="#Roboto-Regular-6e" transform="translate(562.109375 0.921875)"/>
      <use xlink:href="#Roboto-Regular-2c" transform="translate(617.333984 0.921875)"/>
      <use xlink:href="#Roboto-Regular-20" transform="translate(637.011719 0.921875)"/>
      <use xlink:href="#STIXGeneral-Italic-78" transform="translate(661.816406 0.921875)"/>
      <use xlink:href="#STIXGeneral-Regular-66" transform="translate(706.2164 -12.30625) scale(0.7)"/>
      <use xlink:href="#STIXGeneral-Regular-2f" transform="translate(733.935767 0.921875)"/>
      <use xlink:href="#STIXGeneral-Italic-6c" transform="translate(761.735754 0.921875)"/>
      <use xlink:href="#STIXGeneral-Regular-30" transform="translate(789.535742 -12.30625) scale(0.7)"/>
     </g>
    </g>
   </g>
   <g id="line2d_17">
    <path d="M 59.589901 236.83641  L 61.568322 235.537055  L 65.360296 233.263759  L 69.482006 230.584369  L 71.625296 228.843935  L 76.241612 225.131624  L 79.044375 223.033473  L 89.101349 215.442642  L 96.685296 209.879552  L 98.828585 208.416183  L 101.136743 206.894564  L 103.939507 205.215907  L 109.050428 202.129777  L 111.358586 200.310315  L 114.820822 197.229047  L 116.634375 195.259149  L 120.591217 191.048834  L 130.977928 180.30155  L 134.93477 176.3563  L 137.902401 173.593749  L 140.705165 171.20602  L 149.443191 163.580749  L 153.070296 160.070598  L 158.016349 155.388737  L 163.786744 150.36248  L 168.567928 146.384909  L 169.722007 145.549908  L 195.276612 126.87907  L 198.903718 124.22227  L 202.201086 121.979854  L 205.003849 120.25069  L 216.544639 113.489406  L 220.996086 110.775192  L 225.117797 108.546716  L 230.723323 105.420575  L 233.361218 103.912961  L 238.307271 101.201982  L 246.385823 97.014586  L 253.475165 93.629004  L 258.091481 91.443  L 258.091481 91.443  " clip-path="url(#p148960b316)" style="fill: none; stroke: #fcca46; stroke-width: 1.5; stroke-linecap: square"/>
   </g>
   <g id="line2d_18">
    <path d="M 51.181611 236.554722  L 51.770722 236.243511  L 52.359833 236.554722  L 52.948944 236.243511  L 53.538054 236.243511  L 54.127165 236.554722  L 54.716276 236.243511  L 59.429161 236.243511  L 60.018272 235.9323  L 62.963825 235.9323  L 63.552936 235.62109  L 64.731157 235.62109  L 66.498489 234.687457  L 67.676711 232.820193  L 68.265821 232.508982  L 68.854932 231.886561  L 73.567817 229.396875  L 74.156928 228.774453  L 74.746039 228.463243  L 75.33515 227.840821  L 75.92426 227.52961  L 76.513371 226.907189  L 77.102482 226.595978  L 77.691592 225.973557  L 78.280703 225.662346  L 78.869814 225.039924  L 79.458924 224.728714  L 80.048035 224.106292  L 80.637146 223.795081  L 81.226256 223.17266  L 81.815367 222.861449  L 82.404478 222.239028  L 83.582699 221.616606  L 84.17181 220.994185  L 84.76092 220.682974  L 85.350031 220.060553  L 85.939142 219.749342  L 87.117363 218.504499  L 87.706474 218.193288  L 88.295585 217.570867  L 88.884695 217.259656  L 89.473806 216.637234  L 90.062917 216.326024  L 91.830249 214.458759  L 92.419359 214.147548  L 93.00847 213.525127  L 93.597581 213.213916  L 95.364913 211.346652  L 95.954023 211.035441  L 96.543134 210.41302  L 97.132245 210.101809  L 99.488688 207.612123  L 100.077798 207.300912  L 101.25602 206.056069  L 101.84513 205.744858  L 102.434241 205.122437  L 103.023352 204.811226  L 104.790684 202.943962  L 105.379794 202.632751  L 108.914459 198.898222  L 109.503569 198.587011  L 114.805565 192.985218  L 115.394676 192.674007  L 117.751119 190.184321  L 118.340229 189.873111  L 119.518451 188.628268  L 120.107562 188.317057  L 120.696672 187.694635  L 121.285783 187.383425  L 122.464004 186.138582  L 123.642226 185.51616  L 124.820447 184.271317  L 125.409558 183.960106  L 126.587779 182.715264  L 127.17689 182.404053  L 127.766 181.781631  L 128.355111 181.470421  L 128.944222 180.847999  L 129.533332 180.536788  L 130.122443 179.914367  L 130.711554 179.603156  L 131.889775 178.358313  L 132.478886 178.047102  L 133.657107 176.802259  L 134.246218 176.491049  L 134.835329 175.868627  L 135.424439 175.557416  L 136.602661 174.312573  L 137.191771 174.001363  L 138.369993 172.75652  L 138.959103 172.445309  L 139.548214 171.822888  L 140.137325 171.511677  L 141.315546 170.266834  L 141.904657 169.955623  L 143.671989 168.088359  L 144.2611 167.777148  L 145.439321 166.532305  L 146.028432 166.221094  L 147.206653 164.976251  L 147.795764 164.66504  L 148.973985 163.420198  L 149.563096 163.108987  L 150.152206 162.486565  L 150.741317 162.175355  L 151.919538 160.930512  L 152.508649 160.619301  L 153.09776 159.996879  L 153.686871 159.685669  L 154.865092 158.440826  L 155.454203 158.129615  L 156.632424 156.884772  L 157.221535 156.573561  L 157.810645 155.95114  L 158.399756 155.639929  L 158.988867 155.017507  L 159.577977 154.706297  L 160.756199 153.461454  L 161.345309 153.150243  L 161.93442 152.527822  L 162.523531 152.216611  L 163.112641 151.594189  L 163.701752 151.282979  L 164.290863 150.660557  L 164.879974 150.349346  L 165.469084 149.726925  L 166.058195 149.415714  L 166.647306 148.793293  L 167.236416 148.482082  L 167.825527 147.85966  L 168.414638 147.54845  L 169.003748 146.926028  L 169.592859 146.614817  L 170.18197 145.992396  L 170.77108 145.681185  L 171.360191 145.058764  L 171.949302 144.747553  L 173.127523 143.50271  L 173.716634 143.191499  L 174.305744 142.569078  L 174.894855 142.257867  L 176.073077 141.013024  L 176.662187 140.701813  L 177.840409 139.45697  L 178.429519 139.14576  L 179.01863 138.523338  L 179.607741 138.212127  L 180.196851 137.589706  L 180.785962 137.278495  L 181.964183 136.033652  L 182.553294 135.722441  L 183.142405 135.10002  L 183.731515 134.788809  L 184.320626 134.166388  L 185.498847 133.543966  L 186.087958 132.921545  L 186.677069 132.610334  L 187.85529 131.365491  L 188.444401 131.05428  L 189.033512 130.431859  L 189.622622 130.120648  L 190.211733 129.498227  L 190.800844 129.187016  L 191.389954 128.564594  L 191.979065 128.253384  L 192.568176 127.630962  L 193.157286 127.319751  L 193.746397 126.69733  L 194.335508 126.386119  L 194.924618 125.763698  L 195.513729 125.452487  L 196.10284 124.830066  L 197.281061 124.207644  L 197.870172 123.585223  L 198.459283 123.274012  L 199.048393 122.65159  L 199.637504 122.34038  L 200.226615 121.717958  L 200.815725 121.406747  L 201.404836 120.784326  L 201.993947 120.473115  L 202.583057 119.850694  L 203.172168 119.539483  L 203.761279 118.917061  L 204.350389 118.605851  L 204.9395 117.983429  L 205.528611 117.672218  L 206.117721 117.049797  L 207.295943 116.427375  L 207.885053 115.804954  L 208.474164 115.493743  L 209.063275 114.871322  L 209.652386 114.560111  L 210.241496 113.93769  L 210.830607 113.626479  L 211.419718 113.004057  L 212.008828 112.692847  L 212.597939 112.070425  L 213.18705 111.759214  L 213.77616 111.136793  L 214.954382 110.514371  L 215.543492 109.89195  L 216.132603 109.580739  L 216.721714 108.958318  L 217.310824 108.647107  L 217.899935 108.024685  L 218.489046 107.713475  L 219.078156 107.091053  L 219.667267 106.779842  L 220.256378 106.157421  L 220.845489 105.84621  L 221.434599 105.223789  L 222.02371 104.912578  L 222.612821 104.290157  L 223.201931 103.978946  L 223.791042 103.356524  L 224.969263 102.734103  L 225.558374 102.111681  L 226.147485 101.800471  L 226.736595 101.178049  L 227.325706 100.866838  L 227.914817 100.244417  L 228.503927 99.933206  L 229.093038 99.310785  L 229.682149 98.999574  L 230.271259 98.377152  L 230.86037 98.065942  L 231.449481 97.44352  L 232.038592 97.132309  L 232.627702 96.509888  L 233.216813 96.198677  L 233.805924 95.576256  L 234.395034 95.265045  L 234.984145 94.642624  L 236.162366 94.020202  L 236.751477 93.397781  L 237.340588 93.08657  L 237.929698 92.464148  L 238.518809 92.152938  L 239.10792 91.530516  L 240.286141 90.908095  L 240.875252 90.285673  L 241.464362 89.974462  L 242.053473 89.352041  L 242.642584 89.04083  L 243.231695 88.418409  L 243.820805 88.107198  L 244.409916 87.484776  L 244.999027 87.173566  L 245.588137 86.551144  L 246.766359 85.928723  L 247.355469 85.306301  L 247.94458 84.995091  L 248.533691 84.372669  L 249.122801 84.061458  L 249.711912 83.439037  L 250.890133 82.816615  L 251.479244 82.194194  L 252.068355 81.882983  L 252.657465 81.260562  L 253.835687 80.63814  L 254.424798 80.015719  L 255.013908 79.704508  L 255.603019 79.082086  L 256.78124 78.459665  L 257.370351 77.837243  L 258.548572 77.214822  L 259.137683 76.592401  L 259.726794 76.28119  L 260.315904 75.658768  L 260.905015 75.347558  L 261.494126 74.725136  L 261.494126 74.725136  " clip-path="url(#p148960b316)" style="fill: none; stroke: #83b692; stroke-width: 1.5; stroke-linecap: square"/>
   </g>
   <g id="line2d_19">
    <path d="M 58.704835 238.852782  L 60.994511 236.67185  L 62.957091 234.49052  L 65.246768 232.115175  L 66.228058 231.180866  L 67.536445 229.925871  L 70.153218 227.775535  L 72.442895 226.002191  L 74.732571 224.241511  L 77.676441 221.846411  L 83.564181 217.326574  L 85.199665 215.992899  L 88.797728 213.552669  L 89.451921 213.124478  L 100.900305 201.713834  L 105.479658 197.199143  L 112.348688 190.680355  L 115.946751 186.876926  L 118.236428 184.652475  L 122.815781 179.828868  L 127.395135 174.722386  L 131.974488 169.735916  L 138.189325 163.183841  L 146.039645 155.358543  L 151.927385 149.477898  L 154.544158 146.964974  L 155.525448 145.956303  L 155.852545 145.756101  L 156.506738 144.914243  L 156.833835 144.657339  L 157.488028 143.864223  L 158.142221 143.273632  L 162.394478 138.553194  L 173.515765 127.092006  L 178.749311 121.677464  L 181.693181 118.591802  L 189.216405 110.839468  L 194.449951 105.201822  L 200.664788 98.877701  L 205.571238 94.063125  L 210.804785 89.151729  L 210.804785 89.151729  " clip-path="url(#p148960b316)" style="fill: none; stroke: #fcca46; stroke-width: 1.5; stroke-linecap: square"/>
   </g>
   <g id="line2d_20">
    <path d="M 51.383534 247.99869  L 52.393146 247.751401  L 53.402759 247.23504  L 54.614294 246.359148  L 56.431596 244.704035  L 59.864278 241.098538  L 67.739254 232.859948  L 74.806541 225.929181  L 79.248835 221.835609  L 84.700742 217.112118  L 93.585331 209.8273  L 100.450695 204.582823  L 107.31606 199.72834  L 112.969889 196.033159  L 119.63333 192.076877  L 124.277547 189.61686  L 128.921764 187.474656  L 133.364059 185.816354  L 136.796741 184.803991  L 139.825578 184.136324  L 147.902477 182.508588  L 152.546694 181.43362  L 155.777454 180.885272  L 171.931252 178.95077  L 174.960089 178.367805  L 185.460057 175.46992  L 190.508119 174.432146  L 194.546569 173.834082  L 200.806165 173.454399  L 205.652305 173.265479  L 207.873452 173.129221  L 212.719591 172.831293  L 212.719591 172.831293  " clip-path="url(#p148960b316)" style="fill: none; stroke: #780116; stroke-width: 1.5; stroke-linecap: square"/>
   </g>
   <g id="line2d_21">
    <path d="M 56.68288 235.897217  L 56.859296 235.349288  M 57.070994 234.880898  L 57.24741 234.483208  L 57.494391 233.776203  M 57.564958 233.687827  L 57.670807 233.334325  M 57.741373 233.272462  L 57.988355 232.618483  M 58.129487 232.353356  L 58.376468 231.743565  M 58.447035 231.566814  L 58.517601 231.390063  M 58.588167 231.301687  L 58.870432 230.630033  M 58.940998 230.506307  L 59.046847 230.232343  M 59.117413 230.152805  L 59.293829 229.622552  M 59.364395 229.613714  L 59.470244 229.251374  M 59.54081 229.092298  L 59.681943 228.782984  M 59.752509 228.65042  L 59.787792 228.473669  M 59.928924 228.288081  L 59.99949 228.111329  M 60.070057 227.943416  L 60.140623 227.846203  M 60.281755 227.581076  L 60.352321 227.413162  M 60.422887 227.289437  L 60.528737 227.050823  M 60.599303 226.962447  L 60.811001 226.441031  M 60.881567 226.432194  L 61.304965 225.4689  M 61.410814 225.336337  L 61.587229 224.938647  M 61.798928 224.576307  L 61.975343 224.143267  M 62.116475 223.966515  L 62.292891 223.489287  M 62.434023 223.259511  L 62.610439 222.906009  L 62.963269 222.110629  M 63.033836 221.99574  L 63.245534 221.580375  M 63.3161 221.492  L 63.351383 221.315249  M 63.457233 221.191523  L 63.563082 220.961746  M 63.739497 220.687782  L 63.77478 220.511031  M 63.845347 220.502193  L 63.915913 220.254742  M 63.986479 220.245904  L 64.162894 219.812864  M 64.33931 219.547737  L 64.409876 219.282611  M 64.586291 219.017484  L 64.621574 218.929108  M 64.79799 218.575606  L 64.833273 218.487231  M 64.939122 218.398855  L 65.009688 218.133728  M 65.150821 217.956977  L 65.25667 217.603475  M 65.433085 217.426724  L 65.468369 217.338348  M 65.538935 217.161597  L 65.574218 217.073221  M 65.644784 217.064384  L 65.821199 216.631344  M 65.891766 216.542968  L 65.927049 216.454593  M 66.103464 216.189466  L 66.209313 215.924339  M 66.279879 215.835964  L 66.315163 215.747588  M 66.385729 215.659212  L 66.421012 215.570837  M 66.73856 214.94337  L 66.844409 214.687081  M 67.056107 214.333579  L 67.232523 213.803326  M 67.338372 213.71495  L 67.373655 213.626574  M 67.514787 213.449823  L 67.620637 213.096321  M 67.797052 212.831194  L 67.832335 212.742819  M 68.008751 212.477692  L 68.149883 212.12419  M 68.220449 212.035814  L 68.255732 211.947439  M 68.326298 211.859063  L 68.361581 211.682312  M 68.502714 211.505561  L 68.57328 211.417185  L 68.749695 210.975308  M 68.820262 210.886932  L 68.855545 210.798556  M 68.926111 210.710181  L 68.961394 210.53343  M 69.173092 210.268303  L 69.208376 210.091552  M 69.278942 210.003176  L 69.314225 209.914801  M 69.49064 209.561299  L 69.525923 209.472923  M 69.631773 209.384547  L 69.702339 209.119421  M 69.808188 209.031045  L 69.878754 208.94267  L 70.019886 208.589167  M 70.266868 208.324041  L 70.337434 208.14729  M 70.443283 208.058914  L 70.549133 207.793787  M 70.760831 207.519823  L 70.866681 207.343072  L 70.901964 207.263534  M 70.97253 207.175158  L 71.007813 207.086783  M 71.113662 206.998407  L 71.148945 206.910032  M 71.254794 206.812819  L 71.290078 206.644905  M 71.360644 206.574204  L 71.43121 206.468154  M 71.642908 206.114652  L 71.713475 206.017438  L 71.819324 205.672774  M 71.960456 205.54021  L 72.101588 205.14252  M 72.207438 205.080657  L 72.242721 205.054145  L 72.278004 204.877394  M 72.34857 204.789018  L 72.383853 204.700643  M 72.524986 204.523891  L 72.595552 204.34714  M 72.666118 204.258765  L 72.771967 203.993638  M 73.054232 203.640136  L 73.089515 203.55176  M 73.160081 203.463385  L 73.195364 203.454547  L 73.407063 202.933131  L 73.477629 202.844756  M 73.548195 202.782893  L 73.865743 202.314502  M 73.936309 202.217289  L 73.971592 202.049376  M 74.042158 201.978675  L 74.218574 201.607498  M 74.28914 201.519122  L 74.359706 201.342371  M 74.430272 201.253996  L 74.465555 201.245158  L 74.500838 201.077244  M 74.571404 200.988869  L 74.606688 200.900493  M 76.088577 198.408302  L 76.264993 198.072475  M 76.335559 197.975262  L 76.406125 197.886887  M 76.476691 197.807349  L 76.511974 197.718973  M 76.58254 197.710135  L 76.68839 197.453846  M 77.005937 197.029644  L 77.076503 196.923593  L 77.111787 196.82638  M 77.252919 196.658466  L 77.288202 196.570091  M 77.358768 196.561253  L 77.394051 196.472878  M 77.464617 196.455202  L 77.4999 196.296126  M 77.570467 196.225426  L 77.641033 196.110538  M 77.711599 195.880761  L 77.746882 195.863086  M 77.923297 195.765873  L 77.958581 195.597959  M 78.170279 195.421208  L 78.276128 195.323995  L 78.381978 195.067706  M 78.52311 194.979331  L 78.558393 194.802579  M 78.734808 194.625828  L 78.770092 194.528615  M 78.875941 194.449077  L 78.911224 194.351864  M 78.98179 194.175113  L 79.017073 193.300195  M 80.216698 192.59319  L 80.428397 192.062937  M 80.604812 191.79781  L 80.640095 191.788973  M 80.81651 191.532684  L 80.851794 191.523846  L 80.92236 191.267557  M 80.992926 191.179181  L 81.028209 191.170344  M 81.486889 190.560552  L 81.557455 190.383801  M 81.875003 190.030299  L 81.910286 189.941923  M 81.980852 189.933086  L 82.086702 189.588421  M 82.439532 189.314457  L 82.474815 189.146543  M 82.651231 188.969792  L 82.721797 188.881417  L 82.75708 188.704665  M 82.968779 188.174412  L 83.004062 188.086037  M 83.21576 187.644159  L 83.251043 187.555783  M 83.639157 187.202281  L 83.67444 187.02553  M 84.062554 186.760403  L 84.13312 186.583652  M 84.274253 186.486439  L 84.485951 185.956185  M 84.627084 185.788272  L 84.803499 185.408257  M 84.874065 185.346394  L 84.909348 185.249181  M 84.979914 185.17848  L 85.015198 185.07243  M 85.085764 185.063592  L 85.15633 184.895679  M 85.297462 184.630552  L 85.332745 184.551014  M 85.403311 184.542176  L 85.509161 184.27705  M 85.685576 184.144486  L 85.826709 183.905872  M 86.108973 183.48167  L 86.144256 183.393294  M 86.214822 183.331431  L 86.250106 183.313756  M 86.461804 182.960254  L 86.497087 182.863041  M 86.708786 182.597914  L 86.849918 182.164874  M 86.920484 182.076498  L 86.955767 182.067661  L 87.202749 181.378331  L 87.44973 180.750865  M 87.520297 180.662489  L 87.802561 180.04386  L 87.837844 179.513607  M 88.155392 179.24848  L 88.190675 179.160105  M 88.261241 179.071729  L 88.331808 178.894978  M 88.402374 178.806602  L 88.508223 178.541476  M 88.578789 178.4531  L 88.684638 178.187973  M 88.861054 177.922847  L 88.896337 177.834471  M 88.966903 177.825634  L 89.108035 177.480969  M 89.319734 177.127467  L 89.355017 177.039091  M 90.131245 175.978584  L 90.166528 175.890209  M 90.30766 175.792996  L 90.378226 175.625082  M 90.448793 175.536706  L 90.484076 175.448331  M 90.554642 175.359955  L 90.625208 175.27158  L 90.801623 174.918078  M 90.942756 174.741326  L 91.083888 174.4762  M 91.295587 174.211073  L 91.366153 174.11386  M 91.436719 174.034322  L 91.507285 173.857571  M 91.577851 173.78687  L 91.718984 173.592444  L 91.824833 173.415693  M 91.895399 173.327317  L 91.965965 173.230104  M 92.107098 173.062191  L 92.177664 172.88544  M 92.24823 172.867764  L 92.318796 172.708688  M 92.389362 172.620313  L 92.424645 172.531937  M 92.495212 172.443562  L 92.565778 172.266811  M 92.848042 171.913308  L 92.883325 171.736557  M 92.953892 171.72772  L 92.989175 171.648182  M 93.059741 171.559806  L 93.095024 171.480268  L 93.130307 170.67605  M 93.941818 170.234173  L 93.977101 170.145797  M 94.047667 170.057422  L 94.08295 169.969046  M 94.365215 169.615544  L 94.54163 169.173666  M 97.117296 164.754888  L 97.152579 164.666512  M 97.293711 164.489761  L 97.328994 164.401385  M 97.893524 163.694381  L 97.928807 163.606005  M 97.999373 163.544142  L 98.034656 163.51763  M 98.105222 163.429254  L 98.140505 163.340879  M 98.563902 162.899001  L 98.599185 162.810625  M 98.705034 162.72225  L 98.740318 162.633874  M 99.163715 162.271534  L 99.198998 162.191996  M 99.34013 162.094783  L 99.445979 161.92687  M 99.516545 161.918032  L 99.551829 161.838494  M 99.657678 161.750119  L 99.728244 161.661743  M 100.081075 161.352428  L 100.222207 161.219865  M 100.292773 161.211028  L 100.328056 161.13149  M 100.398623 161.122652  L 100.433906 161.034276  M 100.539755 160.954738  L 100.575038 160.866363  M 101.527681 159.805856  L 101.562964 159.717481  M 104.738442 156.801087  L 104.773725 156.712711  M 106.573162 154.856825  L 106.608446 154.768449  M 106.784861 154.591698  L 106.820144 154.503322  M 107.843353 153.35444  L 107.878637 153.266064  M 108.160901 153.000938  L 108.196184 152.912562  M 108.407883 152.647435  L 108.443166 152.55906  M 108.513732 152.470684  L 108.549015 152.382309  M 108.619581 152.293933  L 108.654864 152.205558  M 108.725431 152.117182  L 108.795997 151.940431  M 108.866563 151.852055  L 108.901846 151.76368  M 108.972412 151.675304  L 109.007695 151.586929  M 109.078261 151.498553  L 109.113545 151.410178  M 109.184111 151.321802  L 109.219394 151.233426  M 109.360526 151.056675  L 109.431092 150.879924  M 109.501658 150.791549  L 109.607508 150.526422  M 109.819206 150.261295  L 109.854489 150.17292  M 109.925055 150.084544  L 109.960339 149.996169  M 110.20732 149.731042  L 110.242603 149.642666  M 110.595434 149.200788  L 110.630717 149.112413  M 111.195247 148.405408  L 111.23053 148.317033  M 111.442228 148.051906  L 111.512794 147.875155  M 111.618644 147.786779  L 111.653927 147.698404  M 112.571287 146.726273  " clip-path="url(#p148960b316)" style="fill: none; stroke: #83b692; stroke-width: 1.5; stroke-linecap: square"/>
   </g>
   <g id="line2d_22">
    <path d="M 56.29219 233.156652  L 56.636366 231.881132  L 56.946125 230.71354  L 57.737732 228.152686  L 58.150744 226.769237  L 58.563756 225.591833  M 58.632592 225.493716  L 59.974881 221.971317  L 60.009298 221.961505  L 60.28464 220.999959  L 61.076246 219.057242  L 61.248335 218.723645  L 62.177612 216.623941  L 62.556206 215.780135  L 65.619379 206.723938  L 65.963556 205.654463  L 69.990424 193.900049  L 70.231348 193.115113  L 71.367131 189.916499  L 72.468496 186.246924  L 73.15685 184.480819  M 73.225685 184.382702  L 75.428416 178.407378  L 75.738176 177.808864  L 78.870184 169.17457  M 80.659903 165.259702  L 82.243116 161.070107  L 82.380787 160.775756  L 83.860747 156.890324  L 84.5491 155.340076  M 84.617935 155.241959  L 85.203036 153.97625  L 85.271871 153.868321  L 86.855084 150.05157  L 86.92392 149.953453  L 87.646691 148.187348  L 87.784361 147.892997  L 87.990867 147.206178  L 88.094121 147.000132  L 88.920145 145.145721  L 88.98898 145.047604  L 89.333157 144.350974  M 91.122876 139.65117  L 92.602836 135.726491  L 92.602836 135.726491  " clip-path="url(#p148960b316)" style="fill: none; stroke: #83b692; stroke-width: 1.5; stroke-linecap: square"/>
   </g>
   <g id="patch_4">
    <path d="M 45.932896 253.59351  L 45.932896 60.253837  " style="fill: none; stroke: #ffffff; stroke-width: 0.8; stroke-linejoin: miter; stroke-linecap: square"/>
   </g>
   <g id="patch_5">
    <path d="M 261.130219 253.59351  L 261.130219 60.253837  " style="fill: none; stroke: #ffffff; stroke-width: 0.8; stroke-linejoin: miter; stroke-linecap: square"/>
   </g>
   <g id="patch_6">
    <path d="M 45.932896 253.59351  L 261.130219 253.59351  " style="fill: none; stroke: #ffffff; stroke-width: 0.8; stroke-linejoin: miter; stroke-linecap: square"/>
   </g>
   <g id="patch_7">
    <path d="M 45.932896 60.253837  L 261.130219 60.253837  " style="fill: none; stroke: #ffffff; stroke-width: 0.8; stroke-linejoin: miter; stroke-linecap: square"/>
   </g>
   <g id="patch_8">
    <path d="M 99.538082 115.493743  Q 141.638271 115.493743 152.481815 134.275312  " style="fill: none; stroke: #ffffff; stroke-linecap: round"/>
    <path d="M 103.938082 117.693743  L 99.538082 115.493743  L 103.938082 113.293743  " style="fill: none; stroke: #ffffff; stroke-linecap: round"/>
   </g>
   <g id="text_20">
    <!-- $\alpha \nearrow$ -->
    <g style="fill: #ffffff" transform="translate(132.536697 115.493743) scale(0.11 -0.11)">
     <defs>
      <path id="STIXGeneral-Italic-3b1" d="M 3514 2739  L 2605 1069  L 2605 954  Q 2605 704 2662 512  Q 2720 320 2822 320  Q 2970 320 3149 794  L 3251 749  Q 3014 -58 2605 -58  Q 2291 -58 2272 614  Q 1709 -70 1030 -70  Q 589 -70 381 198  Q 173 467 173 902  Q 173 1293 329 1673  Q 486 2054 755 2330  Q 973 2547 1270 2684  Q 1568 2822 1862 2822  Q 2246 2822 2457 2595  Q 2669 2368 2669 2061  L 2963 2739  L 3514 2739  z M 2298 1741  Q 2298 2688 1805 2688  Q 1472 2688 1085 2099  Q 698 1510 698 800  Q 698 493 806 278  Q 915 64 1139 64  Q 1606 64 2195 1286  Q 2202 1325 2230 1411  Q 2259 1498 2278 1581  Q 2298 1664 2298 1741  z " transform="scale(0.015625)"/>
      <path id="STIXGeneral-Regular-2197" d="M 5434 4237  L 5478 4192  Q 5242 3629 5242 2797  Q 5242 2605 5267 2259  L 5088 2253  Q 5024 2566 5024 3059  Q 5024 3187 4973 3238  Q 4947 3264 4896 3264  Q 4800 3264 4755 3219  L 755 -998  L 448 -698  L 4416 3469  Q 4518 3571 4518 3635  Q 4518 3680 4480 3718  Q 4429 3782 4294 3782  Q 3846 3782 3488 3846  L 3488 4026  Q 3846 4000 4038 4000  Q 4838 4000 5434 4237  z " transform="scale(0.015625)"/>
     </defs>
     <use xlink:href="#STIXGeneral-Italic-3b1" transform="translate(0 0.796875)"/>
     <use xlink:href="#STIXGeneral-Regular-2197" transform="translate(69.639993 0.796875)"/>
    </g>
   </g>
   <g id="patch_9">
    <path d="M 243.284588 156.799958  Q 243.284588 112.27369 208.118196 99.47417  " style="fill: none; stroke: #ffffff; stroke-linecap: round"/>
    <path d="M 245.484588 152.399958  L 243.284588 156.799958  L 241.084588 152.399958  " style="fill: none; stroke: #ffffff; stroke-linecap: round"/>
   </g>
   <g id="text_21">
    <!-- $\mathcal{S}t \nearrow$ -->
    <g style="fill: #ffffff" transform="translate(213.891783 133.170513) scale(0.11 -0.11)">
     <defs>
      <path id="STIXNonUnicode-Italic-e23f" d="M 243 1235  L 410 1254  Q 518 582 1139 365  Q 1421 262 1766 262  Q 2304 262 2685 515  Q 3066 768 3066 1235  Q 3066 1427 2883 1571  Q 2701 1715 2445 1817  Q 2189 1920 1929 2045  Q 1670 2170 1488 2403  Q 1306 2637 1306 2970  Q 1306 3290 1507 3555  Q 1709 3821 2000 3974  Q 2291 4128 2572 4211  Q 2854 4294 3059 4294  Q 3603 4294 3948 4134  Q 4294 3974 4294 3642  Q 4294 3462 4182 3299  Q 4070 3136 3853 3136  Q 3712 3136 3603 3232  Q 3494 3328 3494 3456  Q 3494 3603 3590 3708  Q 3686 3814 3686 3840  Q 3686 3917 3628 3965  Q 3571 4013 3456 4032  Q 3341 4051 3264 4054  Q 3187 4058 3059 4058  Q 2931 4058 2745 4010  Q 2560 3962 2352 3866  Q 2144 3770 2000 3581  Q 1856 3392 1856 3155  Q 1856 2931 2057 2771  Q 2259 2611 2550 2502  Q 2842 2394 3133 2269  Q 3424 2144 3625 1920  Q 3827 1696 3827 1376  Q 3827 902 3206 451  Q 2586 0 1805 0  Q 992 0 617 339  Q 243 678 243 1235  z " transform="scale(0.015625)"/>
     </defs>
     <use xlink:href="#STIXNonUnicode-Italic-e23f" transform="translate(0 0.90625)"/>
     <use xlink:href="#STIXGeneral-Italic-74" transform="translate(63.399994 0.90625)"/>
     <use xlink:href="#STIXGeneral-Regular-2197" transform="translate(105.639978 0.90625)"/>
    </g>
   </g>
  </g>
 </g>
 <defs>
  <clipPath id="p148960b316">
   <rect x="45.932896" y="60.253837" width="215.197323" height="193.339673"/>
  </clipPath>
 </defs>
</svg>
