<?xml version='1.0' encoding='ASCII' standalone='yes'?>
<svg xmlns:xlink="http://www.w3.org/1999/xlink" xmlns="http://www.w3.org/2000/svg" width="1277.842342pt" height="607.5pt" viewBox="0 0 638.921171 303.75" version="1.1">
 <metadata>
  <rdf:RDF xmlns:dc="http://purl.org/dc/elements/1.1/" xmlns:cc="http://creativecommons.org/ns#" xmlns:rdf="http://www.w3.org/1999/02/22-rdf-syntax-ns#">
   <cc:Work>
    <dc:type rdf:resource="http://purl.org/dc/dcmitype/StillImage"/>
    <dc:date>2023-11-27T17:57:34.879464</dc:date>
    <dc:format>image/svg+xml</dc:format>
    <dc:creator>
     <cc:Agent>
      <dc:title>Matplotlib v3.8.0, https://matplotlib.org/</dc:title>
     </cc:Agent>
    </dc:creator>
   </cc:Work>
  </rdf:RDF>
 </metadata>
 <defs>
  <style type="text/css">*{stroke-linejoin: round; stroke-linecap: butt}</style>
 </defs>
 <g id="figure_1">
  <g id="patch_1">
   <path d="M 0 303.75  L 638.921171 303.75  L 638.921171 0  L 0 0  z " style="fill: #191919"/>
  </g>
  <g id="axes_1">
   <g id="patch_2">
    <path d="M 46.118521 135.854625  L 498.69217 135.854625  L 498.69217 0.036  L 46.118521 0.036  z " style="fill: #191919"/>
   </g>
   <g id="line2d_1">
    <path d="M 46.118521 98.525719  L 498.69217 98.525719  " clip-path="url(#pf9c842db0a)" style="fill: none; stroke-dasharray: 1.5,2.475; stroke-dashoffset: 0; stroke: #ffffff; stroke-width: 1.5"/>
   </g>
   <g id="PathCollection_1">
    <path d="M 363.992996 107.08547  C 364.788606 107.08547 365.551736 106.769371 366.114317 106.20679  C 366.676897 105.644209 366.992996 104.881079 366.992996 104.08547  C 366.992996 103.28986 366.676897 102.52673 366.114317 101.964149  C 365.551736 101.401569 364.788606 101.08547 363.992996 101.08547  C 363.197387 101.08547 362.434257 101.401569 361.871676 101.964149  C 361.309095 102.52673 360.992996 103.28986 360.992996 104.08547  C 360.992996 104.881079 361.309095 105.644209 361.871676 106.20679  C 362.434257 106.769371 363.197387 107.08547 363.992996 107.08547  z " clip-path="url(#pf9c842db0a)" style="fill: #fcca46; stroke: #696969; stroke-width: 0.5"/>
    <path d="M 278.363523 101.089054  L 275.765447 102.589054  L 275.765447 105.589054  L 278.363523 107.089054  L 280.961599 105.589054  L 280.961599 102.589054  z " clip-path="url(#pf9c842db0a)" style="fill: #fcca46; stroke: #696969; stroke-width: 0.5"/>
    <path d="M 252.9046 105.779512  C 253.700209 105.779512 254.46334 105.463413 255.02592 104.900833  C 255.588501 104.338252 255.9046 103.575122 255.9046 102.779512  C 255.9046 101.983903 255.588501 101.220773 255.02592 100.658192  C 254.46334 100.095611 253.700209 99.779512 252.9046 99.779512  C 252.108991 99.779512 251.34586 100.095611 250.78328 100.658192  C 250.220699 101.220773 249.9046 101.983903 249.9046 102.779512  C 249.9046 103.575122 250.220699 104.338252 250.78328 104.900833  C 251.34586 105.463413 252.108991 105.779512 252.9046 105.779512  z " clip-path="url(#pf9c842db0a)" style="fill: #fcca46; stroke: #696969; stroke-width: 0.5"/>
    <path d="M 231.514976 99.664498  C 232.310585 99.664498 233.073715 99.3484 233.636296 98.785819  C 234.198877 98.223238 234.514976 97.460108 234.514976 96.664498  C 234.514976 95.868889 234.198877 95.105759 233.636296 94.543178  C 233.073715 93.980597 232.310585 93.664498 231.514976 93.664498  C 230.719366 93.664498 229.956236 93.980597 229.393655 94.543178  C 228.831075 95.105759 228.514976 95.868889 228.514976 96.664498  C 228.514976 97.460108 228.831075 98.223238 229.393655 98.785819  C 229.956236 99.3484 230.719366 99.664498 231.514976 99.664498  z " clip-path="url(#pf9c842db0a)" style="fill: #fcca46; stroke: #696969; stroke-width: 0.5"/>
    <path d="M 244.777192 97.910063  L 242.179116 99.410063  L 242.179116 102.410063  L 244.777192 103.910063  L 247.375268 102.410063  L 247.375268 99.410063  z " clip-path="url(#pf9c842db0a)" style="fill: #fcca46; stroke: #696969; stroke-width: 0.5"/>
    <path d="M 242.708084 102.033201  C 243.503693 102.033201 244.266823 101.717102 244.829404 101.154521  C 245.391985 100.591941 245.708084 99.82881 245.708084 99.033201  C 245.708084 98.237592 245.391985 97.474461 244.829404 96.911881  C 244.266823 96.3493 243.503693 96.033201 242.708084 96.033201  C 241.912474 96.033201 241.149344 96.3493 240.586763 96.911881  C 240.024183 97.474461 239.708084 98.237592 239.708084 99.033201  C 239.708084 99.82881 240.024183 100.591941 240.586763 101.154521  C 241.149344 101.717102 241.912474 102.033201 242.708084 102.033201  z " clip-path="url(#pf9c842db0a)" style="fill: #fcca46; stroke: #696969; stroke-width: 0.5"/>
    <path d="M 178.472372 94.255179  C 179.267981 94.255179 180.031111 93.93908 180.593692 93.376499  C 181.156273 92.813918 181.472372 92.050788 181.472372 91.255179  C 181.472372 90.459569 181.156273 89.696439 180.593692 89.133858  C 180.031111 88.571278 179.267981 88.255179 178.472372 88.255179  C 177.676762 88.255179 176.913632 88.571278 176.351051 89.133858  C 175.788471 89.696439 175.472372 90.459569 175.472372 91.255179  C 175.472372 92.050788 175.788471 92.813918 176.351051 93.376499  C 176.913632 93.93908 177.676762 94.255179 178.472372 94.255179  z " clip-path="url(#pf9c842db0a)" style="fill: #fcca46; stroke: #696969; stroke-width: 0.5"/>
    <path d="M 262.068633 96.499986  C 262.864242 96.499986 263.627372 96.183887 264.189953 95.621306  C 264.752534 95.058726 265.068633 94.295595 265.068633 93.499986  C 265.068633 92.704377 264.752534 91.941246 264.189953 91.378666  C 263.627372 90.816085 262.864242 90.499986 262.068633 90.499986  C 261.273024 90.499986 260.509893 90.816085 259.947313 91.378666  C 259.384732 91.941246 259.068633 92.704377 259.068633 93.499986  C 259.068633 94.295595 259.384732 95.058726 259.947313 95.621306  C 260.509893 96.183887 261.273024 96.499986 262.068633 96.499986  z " clip-path="url(#pf9c842db0a)" style="fill: #fcca46; stroke: #696969; stroke-width: 0.5"/>
    <path d="M 186.732693 90.088529  C 187.528302 90.088529 188.291433 89.77243 188.854013 89.209849  C 189.416594 88.647268 189.732693 87.884138 189.732693 87.088529  C 189.732693 86.292919 189.416594 85.529789 188.854013 84.967208  C 188.291433 84.404627 187.528302 84.088529 186.732693 84.088529  C 185.937084 84.088529 185.173953 84.404627 184.611373 84.967208  C 184.048792 85.529789 183.732693 86.292919 183.732693 87.088529  C 183.732693 87.884138 184.048792 88.647268 184.611373 89.209849  C 185.173953 89.77243 185.937084 90.088529 186.732693 90.088529  z " clip-path="url(#pf9c842db0a)" style="fill: #fcca46; stroke: #696969; stroke-width: 0.5"/>
    <path d="M 331.465935 100.894058  C 332.261544 100.894058 333.024674 100.577959 333.587255 100.015378  C 334.149836 99.452798 334.465935 98.689667 334.465935 97.894058  C 334.465935 97.098449 334.149836 96.335318 333.587255 95.772738  C 333.024674 95.210157 332.261544 94.894058 331.465935 94.894058  C 330.670325 94.894058 329.907195 95.210157 329.344614 95.772738  C 328.782034 96.335318 328.465935 97.098449 328.465935 97.894058  C 328.465935 98.689667 328.782034 99.452798 329.344614 100.015378  C 329.907195 100.577959 330.670325 100.894058 331.465935 100.894058  z " clip-path="url(#pf9c842db0a)" style="fill: #fcca46; stroke: #696969; stroke-width: 0.5"/>
    <path d="M 345.001433 102.263375  C 345.797042 102.263375 346.560172 101.947276 347.122753 101.384695  C 347.685334 100.822114 348.001433 100.058984 348.001433 99.263375  C 348.001433 98.467766 347.685334 97.704635 347.122753 97.142054  C 346.560172 96.579474 345.797042 96.263375 345.001433 96.263375  C 344.205823 96.263375 343.442693 96.579474 342.880112 97.142054  C 342.317532 97.704635 342.001433 98.467766 342.001433 99.263375  C 342.001433 100.058984 342.317532 100.822114 342.880112 101.384695  C 343.442693 101.947276 344.205823 102.263375 345.001433 102.263375  z " clip-path="url(#pf9c842db0a)" style="fill: #fcca46; stroke: #696969; stroke-width: 0.5"/>
    <path d="M 323.477816 99.840268  C 324.273425 99.840268 325.036555 99.524169 325.599136 98.961588  C 326.161717 98.399008 326.477816 97.635877 326.477816 96.840268  C 326.477816 96.044659 326.161717 95.281528 325.599136 94.718948  C 325.036555 94.156367 324.273425 93.840268 323.477816 93.840268  C 322.682206 93.840268 321.919076 94.156367 321.356495 94.718948  C 320.793915 95.281528 320.477816 96.044659 320.477816 96.840268  C 320.477816 97.635877 320.793915 98.399008 321.356495 98.961588  C 321.919076 99.524169 322.682206 99.840268 323.477816 99.840268  z " clip-path="url(#pf9c842db0a)" style="fill: #fcca46; stroke: #696969; stroke-width: 0.5"/>
    <path d="M 328.3469 95.275474  L 325.748823 96.775474  L 325.748823 99.775474  L 328.3469 101.275474  L 330.944976 99.775474  L 330.944976 96.775474  z " clip-path="url(#pf9c842db0a)" style="fill: #fcca46; stroke: #696969; stroke-width: 0.5"/>
    <path d="M 262.29313 100.777419  C 263.088739 100.777419 263.851869 100.46132 264.41445 99.898739  C 264.977031 99.336158 265.29313 98.573028 265.29313 97.777419  C 265.29313 96.98181 264.977031 96.218679 264.41445 95.656099  C 263.851869 95.093518 263.088739 94.777419 262.29313 94.777419  C 261.49752 94.777419 260.73439 95.093518 260.171809 95.656099  C 259.609229 96.218679 259.29313 96.98181 259.29313 97.777419  C 259.29313 98.573028 259.609229 99.336158 260.171809 99.898739  C 260.73439 100.46132 261.49752 100.777419 262.29313 100.777419  z " clip-path="url(#pf9c842db0a)" style="fill: #fcca46; stroke: #696969; stroke-width: 0.5"/>
    <path d="M 311.949854 95.74234  L 309.351777 97.24234  L 309.351777 100.24234  L 311.949854 101.74234  L 314.54793 100.24234  L 314.54793 97.24234  z " clip-path="url(#pf9c842db0a)" style="fill: #fcca46; stroke: #696969; stroke-width: 0.5"/>
    <path d="M 311.949854 95.667553  L 309.351777 97.167553  L 309.351777 100.167553  L 311.949854 101.667553  L 314.54793 100.167553  L 314.54793 97.167553  z " clip-path="url(#pf9c842db0a)" style="fill: #fcca46; stroke: #696969; stroke-width: 0.5"/>
    <path d="M 256.368516 98.536196  L 253.77044 100.036196  L 253.77044 103.036196  L 256.368516 104.536196  L 258.966593 103.036196  L 258.966593 100.036196  z " clip-path="url(#pf9c842db0a)" style="fill: #fcca46; stroke: #696969; stroke-width: 0.5"/>
    <path d="M 328.3469 99.72233  L 325.748823 101.22233  L 325.748823 104.22233  L 328.3469 105.72233  L 330.944976 104.22233  L 330.944976 101.22233  z " clip-path="url(#pf9c842db0a)" style="fill: #fcca46; stroke: #696969; stroke-width: 0.5"/>
    <path d="M 330.406666 95.678756  C 331.202275 95.678756 331.965405 95.362657 332.527986 94.800076  C 333.090567 94.237495 333.406666 93.474365 333.406666 92.678756  C 333.406666 91.883146 333.090567 91.120016 332.527986 90.557435  C 331.965405 89.994854 331.202275 89.678756 330.406666 89.678756  C 329.611056 89.678756 328.847926 89.994854 328.285345 90.557435  C 327.722764 91.120016 327.406666 91.883146 327.406666 92.678756  C 327.406666 93.474365 327.722764 94.237495 328.285345 94.800076  C 328.847926 95.362657 329.611056 95.678756 330.406666 95.678756  z " clip-path="url(#pf9c842db0a)" style="fill: #fcca46; stroke: #696969; stroke-width: 0.5"/>
    <path d="M 244.777192 93.972848  L 242.179116 95.472848  L 242.179116 98.472848  L 244.777192 99.972848  L 247.375268 98.472848  L 247.375268 95.472848  z " clip-path="url(#pf9c842db0a)" style="fill: #fcca46; stroke: #696969; stroke-width: 0.5"/>
    <path d="M 331.512359 98.562335  C 332.307968 98.562335 333.071098 98.246236 333.633679 97.683655  C 334.19626 97.121074 334.512359 96.357944 334.512359 95.562335  C 334.512359 94.766725 334.19626 94.003595 333.633679 93.441014  C 333.071098 92.878434 332.307968 92.562335 331.512359 92.562335  C 330.716749 92.562335 329.953619 92.878434 329.391038 93.441014  C 328.828458 94.003595 328.512359 94.766725 328.512359 95.562335  C 328.512359 96.357944 328.828458 97.121074 329.391038 97.683655  C 329.953619 98.246236 330.716749 98.562335 331.512359 98.562335  z " clip-path="url(#pf9c842db0a)" style="fill: #fcca46; stroke: #696969; stroke-width: 0.5"/>
    <path d="M 295.275935 100.82462  C 296.071544 100.82462 296.834675 100.508521 297.397255 99.94594  C 297.959836 99.383359 298.275935 98.620229 298.275935 97.82462  C 298.275935 97.02901 297.959836 96.26588 297.397255 95.703299  C 296.834675 95.140718 296.071544 94.82462 295.275935 94.82462  C 294.480326 94.82462 293.717195 95.140718 293.154615 95.703299  C 292.592034 96.26588 292.275935 97.02901 292.275935 97.82462  C 292.275935 98.620229 292.592034 99.383359 293.154615 99.94594  C 293.717195 100.508521 294.480326 100.82462 295.275935 100.82462  z " clip-path="url(#pf9c842db0a)" style="fill: #fcca46; stroke: #696969; stroke-width: 0.5"/>
    <path d="M 305.947563 79.75895  C 306.743173 79.75895 307.506303 79.442851 308.068884 78.88027  C 308.631464 78.317689 308.947563 77.554559 308.947563 76.75895  C 308.947563 75.96334 308.631464 75.20021 308.068884 74.637629  C 307.506303 74.075049 306.743173 73.75895 305.947563 73.75895  C 305.151954 73.75895 304.388824 74.075049 303.826243 74.637629  C 303.263662 75.20021 302.947563 75.96334 302.947563 76.75895  C 302.947563 77.554559 303.263662 78.317689 303.826243 78.88027  C 304.388824 79.442851 305.151954 79.75895 305.947563 79.75895  z " clip-path="url(#pf9c842db0a)" style="fill: #fcca46; stroke: #696969; stroke-width: 0.5"/>
    <path d="M 335.891588 100.14308  C 336.687197 100.14308 337.450328 99.826981 338.012908 99.264401  C 338.575489 98.70182 338.891588 97.93869 338.891588 97.14308  C 338.891588 96.347471 338.575489 95.584341 338.012908 95.02176  C 337.450328 94.459179 336.687197 94.14308 335.891588 94.14308  C 335.095979 94.14308 334.332848 94.459179 333.770268 95.02176  C 333.207687 95.584341 332.891588 96.347471 332.891588 97.14308  C 332.891588 97.93869 333.207687 98.70182 333.770268 99.264401  C 334.332848 99.826981 335.095979 100.14308 335.891588 100.14308  z " clip-path="url(#pf9c842db0a)" style="fill: #fcca46; stroke: #696969; stroke-width: 0.5"/>
    <path d="M 325.941693 94.896025  C 326.737303 94.896025 327.500433 94.579926 328.063014 94.017345  C 328.625594 93.454764 328.941693 92.691634 328.941693 91.896025  C 328.941693 91.100415 328.625594 90.337285 328.063014 89.774704  C 327.500433 89.212124 326.737303 88.896025 325.941693 88.896025  C 325.146084 88.896025 324.382954 89.212124 323.820373 89.774704  C 323.257792 90.337285 322.941693 91.100415 322.941693 91.896025  C 322.941693 92.691634 323.257792 93.454764 323.820373 94.017345  C 324.382954 94.579926 325.146084 94.896025 325.941693 94.896025  z " clip-path="url(#pf9c842db0a)" style="fill: #fcca46; stroke: #696969; stroke-width: 0.5"/>
    <path d="M 325.720518 104.310169  C 326.516127 104.310169 327.279258 103.99407 327.841838 103.431489  C 328.404419 102.868908 328.720518 102.105778 328.720518 101.310169  C 328.720518 100.514559 328.404419 99.751429 327.841838 99.188848  C 327.279258 98.626268 326.516127 98.310169 325.720518 98.310169  C 324.924909 98.310169 324.161778 98.626268 323.599198 99.188848  C 323.036617 99.751429 322.720518 100.514559 322.720518 101.310169  C 322.720518 102.105778 323.036617 102.868908 323.599198 103.431489  C 324.161778 103.99407 324.924909 104.310169 325.720518 104.310169  z " clip-path="url(#pf9c842db0a)" style="fill: #fcca46; stroke: #696969; stroke-width: 0.5"/>
    <path d="M 272.081856 103.985166  C 272.877466 103.985166 273.640596 103.669067 274.203177 103.106486  C 274.765757 102.543905 275.081856 101.780775 275.081856 100.985166  C 275.081856 100.189556 274.765757 99.426426 274.203177 98.863845  C 273.640596 98.301265 272.877466 97.985166 272.081856 97.985166  C 271.286247 97.985166 270.523117 98.301265 269.960536 98.863845  C 269.397955 99.426426 269.081856 100.189556 269.081856 100.985166  C 269.081856 101.780775 269.397955 102.543905 269.960536 103.106486  C 270.523117 103.669067 271.286247 103.985166 272.081856 103.985166  z " clip-path="url(#pf9c842db0a)" style="fill: #fcca46; stroke: #696969; stroke-width: 0.5"/>
    <path d="M 231.665852 99.607233  L 229.067775 101.107233  L 229.067775 104.107233  L 231.665852 105.607233  L 234.263928 104.107233  L 234.263928 101.107233  z " clip-path="url(#pf9c842db0a)" style="fill: #fcca46; stroke: #696969; stroke-width: 0.5"/>
    <path d="M 271.456055 104.503466  C 272.251665 104.503466 273.014795 104.187367 273.577376 103.624786  C 274.139956 103.062206 274.456055 102.299075 274.456055 101.503466  C 274.456055 100.707857 274.139956 99.944726 273.577376 99.382146  C 273.014795 98.819565 272.251665 98.503466 271.456055 98.503466  C 270.660446 98.503466 269.897316 98.819565 269.334735 99.382146  C 268.772154 99.944726 268.456055 100.707857 268.456055 101.503466  C 268.456055 102.299075 268.772154 103.062206 269.334735 103.624786  C 269.897316 104.187367 270.660446 104.503466 271.456055 104.503466  z " clip-path="url(#pf9c842db0a)" style="fill: #fcca46; stroke: #696969; stroke-width: 0.5"/>
    <path d="M 281.039933 99.490114  C 281.835542 99.490114 282.598673 99.174015 283.161253 98.611435  C 283.723834 98.048854 284.039933 97.285724 284.039933 96.490114  C 284.039933 95.694505 283.723834 94.931375 283.161253 94.368794  C 282.598673 93.806213 281.835542 93.490114 281.039933 93.490114  C 280.244324 93.490114 279.481194 93.806213 278.918613 94.368794  C 278.356032 94.931375 278.039933 95.694505 278.039933 96.490114  C 278.039933 97.285724 278.356032 98.048854 278.918613 98.611435  C 279.481194 99.174015 280.244324 99.490114 281.039933 99.490114  z " clip-path="url(#pf9c842db0a)" style="fill: #fcca46; stroke: #696969; stroke-width: 0.5"/>
    <path d="M 287.657005 100.605914  L 285.058929 102.105914  L 285.058929 105.105914  L 287.657005 106.605914  L 290.255081 105.105914  L 290.255081 102.105914  z " clip-path="url(#pf9c842db0a)" style="fill: #fcca46; stroke: #696969; stroke-width: 0.5"/>
    <path d="M 317.269673 97.886809  C 318.065282 97.886809 318.828412 97.57071 319.390993 97.00813  C 319.953574 96.445549 320.269673 95.682419 320.269673 94.886809  C 320.269673 94.0912 319.953574 93.32807 319.390993 92.765489  C 318.828412 92.202908 318.065282 91.886809 317.269673 91.886809  C 316.474063 91.886809 315.710933 92.202908 315.148352 92.765489  C 314.585771 93.32807 314.269673 94.0912 314.269673 94.886809  C 314.269673 95.682419 314.585771 96.445549 315.148352 97.00813  C 315.710933 97.57071 316.474063 97.886809 317.269673 97.886809  z " clip-path="url(#pf9c842db0a)" style="fill: #fcca46; stroke: #696969; stroke-width: 0.5"/>
    <path d="M 281.404842 104.507307  C 282.200452 104.507307 282.963582 104.191208 283.526163 103.628628  C 284.088744 103.066047 284.404842 102.302917 284.404842 101.507307  C 284.404842 100.711698 284.088744 99.948568 283.526163 99.385987  C 282.963582 98.823406 282.200452 98.507307 281.404842 98.507307  C 280.609233 98.507307 279.846103 98.823406 279.283522 99.385987  C 278.720941 99.948568 278.404842 100.711698 278.404842 101.507307  C 278.404842 102.302917 278.720941 103.066047 279.283522 103.628628  C 279.846103 104.191208 280.609233 104.507307 281.404842 104.507307  z " clip-path="url(#pf9c842db0a)" style="fill: #fcca46; stroke: #696969; stroke-width: 0.5"/>
    <path d="M 223.312204 104.727914  C 224.107814 104.727914 224.870944 104.411816 225.433525 103.849235  C 225.996106 103.286654 226.312204 102.523524 226.312204 101.727914  C 226.312204 100.932305 225.996106 100.169175 225.433525 99.606594  C 224.870944 99.044013 224.107814 98.727914 223.312204 98.727914  C 222.516595 98.727914 221.753465 99.044013 221.190884 99.606594  C 220.628303 100.169175 220.312204 100.932305 220.312204 101.727914  C 220.312204 102.523524 220.628303 103.286654 221.190884 103.849235  C 221.753465 104.411816 222.516595 104.727914 223.312204 104.727914  z " clip-path="url(#pf9c842db0a)" style="fill: #fcca46; stroke: #696969; stroke-width: 0.5"/>
    <path d="M 198.059632 104.001238  C 198.855241 104.001238 199.618371 103.685139 200.180952 103.122559  C 200.743533 102.559978 201.059632 101.796847 201.059632 101.001238  C 201.059632 100.205629 200.743533 99.442499 200.180952 98.879918  C 199.618371 98.317337 198.855241 98.001238 198.059632 98.001238  C 197.264022 98.001238 196.500892 98.317337 195.938311 98.879918  C 195.375731 99.442499 195.059632 100.205629 195.059632 101.001238  C 195.059632 101.796847 195.375731 102.559978 195.938311 103.122559  C 196.500892 103.685139 197.264022 104.001238 198.059632 104.001238  z " clip-path="url(#pf9c842db0a)" style="fill: #fcca46; stroke: #696969; stroke-width: 0.5"/>
    <path d="M 231.64264 100.312788  C 232.438249 100.312788 233.20138 99.996689 233.76396 99.434108  C 234.326541 98.871528 234.64264 98.108397 234.64264 97.312788  C 234.64264 96.517179 234.326541 95.754048 233.76396 95.191468  C 233.20138 94.628887 232.438249 94.312788 231.64264 94.312788  C 230.847031 94.312788 230.0839 94.628887 229.52132 95.191468  C 228.958739 95.754048 228.64264 96.517179 228.64264 97.312788  C 228.64264 98.108397 228.958739 98.871528 229.52132 99.434108  C 230.0839 99.996689 230.847031 100.312788 231.64264 100.312788  z " clip-path="url(#pf9c842db0a)" style="fill: #fcca46; stroke: #696969; stroke-width: 0.5"/>
    <path d="M 363.992996 104.639027  C 364.788606 104.639027 365.551736 104.322928 366.114317 103.760347  C 366.676897 103.197766 366.992996 102.434636 366.992996 101.639027  C 366.992996 100.843417 366.676897 100.080287 366.114317 99.517706  C 365.551736 98.955125 364.788606 98.639027 363.992996 98.639027  C 363.197387 98.639027 362.434257 98.955125 361.871676 99.517706  C 361.309095 100.080287 360.992996 100.843417 360.992996 101.639027  C 360.992996 102.434636 361.309095 103.197766 361.871676 103.760347  C 362.434257 104.322928 363.197387 104.639027 363.992996 104.639027  z " clip-path="url(#pf9c842db0a)" style="fill: #fcca46; stroke: #696969; stroke-width: 0.5"/>
    <path d="M 306.606591 103.511414  C 307.4022 103.511414 308.16533 103.195316 308.727911 102.632735  C 309.290492 102.070154 309.606591 101.307024 309.606591 100.511414  C 309.606591 99.715805 309.290492 98.952675 308.727911 98.390094  C 308.16533 97.827513 307.4022 97.511414 306.606591 97.511414  C 305.810981 97.511414 305.047851 97.827513 304.48527 98.390094  C 303.922689 98.952675 303.606591 99.715805 303.606591 100.511414  C 303.606591 101.307024 303.922689 102.070154 304.48527 102.632735  C 305.047851 103.195316 305.810981 103.511414 306.606591 103.511414  z " clip-path="url(#pf9c842db0a)" style="fill: #fcca46; stroke: #696969; stroke-width: 0.5"/>
    <path d="M 342.841908 106.298807  C 343.637517 106.298807 344.400647 105.982708 344.963228 105.420127  C 345.525809 104.857547 345.841908 104.094416 345.841908 103.298807  C 345.841908 102.503198 345.525809 101.740067 344.963228 101.177487  C 344.400647 100.614906 343.637517 100.298807 342.841908 100.298807  C 342.046298 100.298807 341.283168 100.614906 340.720587 101.177487  C 340.158006 101.740067 339.841908 102.503198 339.841908 103.298807  C 339.841908 104.094416 340.158006 104.857547 340.720587 105.420127  C 341.283168 105.982708 342.046298 106.298807 342.841908 106.298807  z " clip-path="url(#pf9c842db0a)" style="fill: #fcca46; stroke: #696969; stroke-width: 0.5"/>
    <path d="M 397.579327 106.10629  C 398.374936 106.10629 399.138067 105.790191 399.700647 105.227611  C 400.263228 104.66503 400.579327 103.9019 400.579327 103.10629  C 400.579327 102.310681 400.263228 101.547551 399.700647 100.98497  C 399.138067 100.422389 398.374936 100.10629 397.579327 100.10629  C 396.783718 100.10629 396.020587 100.422389 395.458007 100.98497  C 394.895426 101.547551 394.579327 102.310681 394.579327 103.10629  C 394.579327 103.9019 394.895426 104.66503 395.458007 105.227611  C 396.020587 105.790191 396.783718 106.10629 397.579327 106.10629  z " clip-path="url(#pf9c842db0a)" style="fill: #fcca46; stroke: #696969; stroke-width: 0.5"/>
    <path d="M 237.458212 99.664927  L 234.860136 101.164927  L 234.860136 104.164927  L 237.458212 105.664927  L 240.056288 104.164927  L 240.056288 101.164927  z " clip-path="url(#pf9c842db0a)" style="fill: #fcca46; stroke: #696969; stroke-width: 0.5"/>
    <path d="M 331.475213 98.792027  C 332.270823 98.792027 333.033953 98.475928 333.596534 97.913347  C 334.159114 97.350767 334.475213 96.587636 334.475213 95.792027  C 334.475213 94.996418 334.159114 94.233287 333.596534 93.670707  C 333.033953 93.108126 332.270823 92.792027 331.475213 92.792027  C 330.679604 92.792027 329.916474 93.108126 329.353893 93.670707  C 328.791312 94.233287 328.475213 94.996418 328.475213 95.792027  C 328.475213 96.587636 328.791312 97.350767 329.353893 97.913347  C 329.916474 98.475928 330.679604 98.792027 331.475213 98.792027  z " clip-path="url(#pf9c842db0a)" style="fill: #fcca46; stroke: #696969; stroke-width: 0.5"/>
    <path d="M 213.395871 96.363313  L 210.797794 97.863313  L 210.797794 100.863313  L 213.395871 102.363313  L 215.993947 100.863313  L 215.993947 97.863313  z " clip-path="url(#pf9c842db0a)" style="fill: #fcca46; stroke: #696969; stroke-width: 0.5"/>
    <path d="M 268.977208 98.679004  L 266.379132 100.179004  L 266.379132 103.179004  L 268.977208 104.679004  L 271.575284 103.179004  L 271.575284 100.179004  z " clip-path="url(#pf9c842db0a)" style="fill: #fcca46; stroke: #696969; stroke-width: 0.5"/>
    <path d="M 250.31323 101.963162  L 247.715154 103.463162  L 247.715154 106.463162  L 250.31323 107.963162  L 252.911306 106.463162  L 252.911306 103.463162  z " clip-path="url(#pf9c842db0a)" style="fill: #fcca46; stroke: #696969; stroke-width: 0.5"/>
    <path d="M 198.040684 95.605093  C 198.836294 95.605093 199.599424 95.288994 200.162005 94.726414  C 200.724585 94.163833 201.040684 93.400703 201.040684 92.605093  C 201.040684 91.809484 200.724585 91.046354 200.162005 90.483773  C 199.599424 89.921192 198.836294 89.605093 198.040684 89.605093  C 197.245075 89.605093 196.481945 89.921192 195.919364 90.483773  C 195.356783 91.046354 195.040684 91.809484 195.040684 92.605093  C 195.040684 93.400703 195.356783 94.163833 195.919364 94.726414  C 196.481945 95.288994 197.245075 95.605093 198.040684 95.605093  z " clip-path="url(#pf9c842db0a)" style="fill: #fcca46; stroke: #696969; stroke-width: 0.5"/>
    <path d="M 281.627125 104.774902  C 282.422734 104.774902 283.185864 104.458804 283.748445 103.896223  C 284.311026 103.333642 284.627125 102.570512 284.627125 101.774902  C 284.627125 100.979293 284.311026 100.216163 283.748445 99.653582  C 283.185864 99.091001 282.422734 98.774902 281.627125 98.774902  C 280.831515 98.774902 280.068385 99.091001 279.505804 99.653582  C 278.943223 100.216163 278.627125 100.979293 278.627125 101.774902  C 278.627125 102.570512 278.943223 103.333642 279.505804 103.896223  C 280.068385 104.458804 280.831515 104.774902 281.627125 104.774902  z " clip-path="url(#pf9c842db0a)" style="fill: #fcca46; stroke: #696969; stroke-width: 0.5"/>
    <path d="M 314.574999 99.901238  C 315.370608 99.901238 316.133739 99.585139 316.696319 99.022558  C 317.2589 98.459978 317.574999 97.696847 317.574999 96.901238  C 317.574999 96.105629 317.2589 95.342498 316.696319 94.779918  C 316.133739 94.217337 315.370608 93.901238 314.574999 93.901238  C 313.77939 93.901238 313.016259 94.217337 312.453679 94.779918  C 311.891098 95.342498 311.574999 96.105629 311.574999 96.901238  C 311.574999 97.696847 311.891098 98.459978 312.453679 99.022558  C 313.016259 99.585139 313.77939 99.901238 314.574999 99.901238  z " clip-path="url(#pf9c842db0a)" style="fill: #fcca46; stroke: #696969; stroke-width: 0.5"/>
    <path d="M 277.902417 98.2763  L 275.304341 99.7763  L 275.304341 102.7763  L 277.902417 104.2763  L 280.500493 102.7763  L 280.500493 99.7763  z " clip-path="url(#pf9c842db0a)" style="fill: #fcca46; stroke: #696969; stroke-width: 0.5"/>
    <path d="M 350.829989 95.162778  C 351.625599 95.162778 352.388729 94.846679 352.95131 94.284098  C 353.51389 93.721517 353.829989 92.958387 353.829989 92.162778  C 353.829989 91.367168 353.51389 90.604038 352.95131 90.041457  C 352.388729 89.478877 351.625599 89.162778 350.829989 89.162778  C 350.03438 89.162778 349.27125 89.478877 348.708669 90.041457  C 348.146088 90.604038 347.829989 91.367168 347.829989 92.162778  C 347.829989 92.958387 348.146088 93.721517 348.708669 94.284098  C 349.27125 94.846679 350.03438 95.162778 350.829989 95.162778  z " clip-path="url(#pf9c842db0a)" style="fill: #fcca46; stroke: #696969; stroke-width: 0.5"/>
    <path d="M 318.960585 95.618016  L 316.362508 97.118016  L 316.362508 100.118016  L 318.960585 101.618016  L 321.558661 100.118016  L 321.558661 97.118016  z " clip-path="url(#pf9c842db0a)" style="fill: #fcca46; stroke: #696969; stroke-width: 0.5"/>
    <path d="M 244.777192 98.802113  L 242.179116 100.302113  L 242.179116 103.302113  L 244.777192 104.802113  L 247.375268 103.302113  L 247.375268 100.302113  z " clip-path="url(#pf9c842db0a)" style="fill: #fcca46; stroke: #696969; stroke-width: 0.5"/>
    <path d="M 212.272583 103.668556  C 213.068192 103.668556 213.831322 103.352457 214.393903 102.789877  C 214.956484 102.227296 215.272583 101.464166 215.272583 100.668556  C 215.272583 99.872947 214.956484 99.109817 214.393903 98.547236  C 213.831322 97.984655 213.068192 97.668556 212.272583 97.668556  C 211.476973 97.668556 210.713843 97.984655 210.151262 98.547236  C 209.588682 99.109817 209.272583 99.872947 209.272583 100.668556  C 209.272583 101.464166 209.588682 102.227296 210.151262 102.789877  C 210.713843 103.352457 211.476973 103.668556 212.272583 103.668556  z " clip-path="url(#pf9c842db0a)" style="fill: #fcca46; stroke: #696969; stroke-width: 0.5"/>
    <path d="M 303.924602 95.813179  L 301.326525 97.313179  L 301.326525 100.313179  L 303.924602 101.813179  L 306.522678 100.313179  L 306.522678 97.313179  z " clip-path="url(#pf9c842db0a)" style="fill: #fcca46; stroke: #696969; stroke-width: 0.5"/>
    <path d="M 167.41025 99.766988  C 168.205859 99.766988 168.96899 99.450889 169.53157 98.888308  C 170.094151 98.325727 170.41025 97.562597 170.41025 96.766988  C 170.41025 95.971378 170.094151 95.208248 169.53157 94.645667  C 168.96899 94.083086 168.205859 93.766988 167.41025 93.766988  C 166.614641 93.766988 165.85151 94.083086 165.28893 94.645667  C 164.726349 95.208248 164.41025 95.971378 164.41025 96.766988  C 164.41025 97.562597 164.726349 98.325727 165.28893 98.888308  C 165.85151 99.450889 166.614641 99.766988 167.41025 99.766988  z " clip-path="url(#pf9c842db0a)" style="fill: #fcca46; stroke: #696969; stroke-width: 0.5"/>
    <path d="M 363.992996 97.218565  C 364.788606 97.218565 365.551736 96.902466 366.114317 96.339885  C 366.676897 95.777304 366.992996 95.014174 366.992996 94.218565  C 366.992996 93.422956 366.676897 92.659825 366.114317 92.097244  C 365.551736 91.534664 364.788606 91.218565 363.992996 91.218565  C 363.197387 91.218565 362.434257 91.534664 361.871676 92.097244  C 361.309095 92.659825 360.992996 93.422956 360.992996 94.218565  C 360.992996 95.014174 361.309095 95.777304 361.871676 96.339885  C 362.434257 96.902466 363.197387 97.218565 363.992996 97.218565  z " clip-path="url(#pf9c842db0a)" style="fill: #fcca46; stroke: #696969; stroke-width: 0.5"/>
    <path d="M 173.594519 101.520573  C 174.390129 101.520573 175.153259 101.204474 175.71584 100.641894  C 176.278421 100.079313 176.594519 99.316182 176.594519 98.520573  C 176.594519 97.724964 176.278421 96.961834 175.71584 96.399253  C 175.153259 95.836672 174.390129 95.520573 173.594519 95.520573  C 172.79891 95.520573 172.03578 95.836672 171.473199 96.399253  C 170.910618 96.961834 170.594519 97.724964 170.594519 98.520573  C 170.594519 99.316182 170.910618 100.079313 171.473199 100.641894  C 172.03578 101.204474 172.79891 101.520573 173.594519 101.520573  z " clip-path="url(#pf9c842db0a)" style="fill: #fcca46; stroke: #696969; stroke-width: 0.5"/>
    <path d="M 347.683109 97.693626  L 345.085033 99.193626  L 345.085033 102.193626  L 347.683109 103.693626  L 350.281185 102.193626  L 350.281185 99.193626  z " clip-path="url(#pf9c842db0a)" style="fill: #fcca46; stroke: #696969; stroke-width: 0.5"/>
    <path d="M 278.363523 100.93893  L 275.765447 102.43893  L 275.765447 105.43893  L 278.363523 106.93893  L 280.961599 105.43893  L 280.961599 102.43893  z " clip-path="url(#pf9c842db0a)" style="fill: #fcca46; stroke: #696969; stroke-width: 0.5"/>
    <path d="M 226.39407 104.304935  L 223.795994 105.804935  L 223.795994 108.804935  L 226.39407 110.304935  L 228.992146 108.804935  L 228.992146 105.804935  z " clip-path="url(#pf9c842db0a)" style="fill: #83b692; stroke: #696969; stroke-width: 0.5"/>
    <path d="M 258.568699 106.44969  L 255.970623 107.94969  L 255.970623 110.94969  L 258.568699 112.44969  L 261.166775 110.94969  L 261.166775 107.94969  z " clip-path="url(#pf9c842db0a)" style="fill: #83b692; stroke: #696969; stroke-width: 0.5"/>
    <path d="M 221.786841 101.801756  L 219.188764 103.301756  L 219.188764 106.301756  L 221.786841 107.801756  L 224.384917 106.301756  L 224.384917 103.301756  z " clip-path="url(#pf9c842db0a)" style="fill: #83b692; stroke: #696969; stroke-width: 0.5"/>
    <path d="M 309.338002 96.367855  L 313.580643 92.125214  L 309.338002 87.882573  L 305.095361 92.125214  z " clip-path="url(#pf9c842db0a)" style="fill: #83b692; stroke: #696969; stroke-width: 0.5"/>
    <path d="M 258.568699 104.268888  L 255.970623 105.768888  L 255.970623 108.768888  L 258.568699 110.268888  L 261.166775 108.768888  L 261.166775 105.768888  z " clip-path="url(#pf9c842db0a)" style="fill: #83b692; stroke: #696969; stroke-width: 0.5"/>
    <path d="M 223.636293 102.879856  L 221.038217 104.379856  L 221.038217 107.379856  L 223.636293 108.879856  L 226.234369 107.379856  L 226.234369 104.379856  z " clip-path="url(#pf9c842db0a)" style="fill: #83b692; stroke: #696969; stroke-width: 0.5"/>
    <path d="M 245.537951 102.362529  L 242.939875 103.862529  L 242.939875 106.862529  L 245.537951 108.362529  L 248.136027 106.862529  L 248.136027 103.862529  z " clip-path="url(#pf9c842db0a)" style="fill: #83b692; stroke: #696969; stroke-width: 0.5"/>
    <path d="M 206.29673 89.703314  L 212.29673 89.703314  L 212.29673 83.703314  L 206.29673 83.703314  z " clip-path="url(#pf9c842db0a)" style="fill: #780116; stroke: #696969; stroke-width: 0.5"/>
    <path d="M 306.451095 94.775376  L 312.451095 94.775376  L 312.451095 88.775376  L 306.451095 88.775376  z " clip-path="url(#pf9c842db0a)" style="fill: #780116; stroke: #696969; stroke-width: 0.5"/>
    <path d="M 204.20678 90.974531  L 210.20678 90.974531  L 210.20678 84.974531  L 204.20678 84.974531  z " clip-path="url(#pf9c842db0a)" style="fill: #780116; stroke: #696969; stroke-width: 0.5"/>
    <path d="M 413.071854 90.363379  L 419.071854 90.363379  L 419.071854 84.363379  L 413.071854 84.363379  z " clip-path="url(#pf9c842db0a)" style="fill: #780116; stroke: #696969; stroke-width: 0.5"/>
    <path d="M 153.374189 92.18616  L 159.374189 92.18616  L 159.374189 86.18616  L 153.374189 86.18616  z " clip-path="url(#pf9c842db0a)" style="fill: #780116; stroke: #696969; stroke-width: 0.5"/>
   </g>
   <g id="matplotlib.axis_1">
    <g id="xtick_1">
     <g id="line2d_2">
      <defs>
       <path id="ma8652763e3" d="M 0 0  L 0 3.5  " style="stroke: #ffffff; stroke-width: 0.8"/>
      </defs>
      <g>
       <use xlink:href="#ma8652763e3" x="113.291183" y="135.854625" style="fill: #ffffff; stroke: #ffffff; stroke-width: 0.8"/>
      </g>
     </g>
     <g id="text_1">
      <!-- $\mathdefault{10^{-3}}$ -->
      <g style="fill: #ffffff" transform="translate(102.511183 151.104625) scale(0.11 -0.11)">
       <defs>
        <path id="Roboto-Regular-31" d="M 2278 4575  L 2278 0  L 1700 0  L 1700 3853  L 534 3428  L 534 3950  L 2188 4575  L 2278 4575  z " transform="scale(0.015625)"/>
        <path id="Roboto-Regular-30" d="M 3234 1944  Q 3234 825 2848 381  Q 2463 -63 1800 -63  Q 1156 -63 764 368  Q 372 800 359 1872  L 359 2638  Q 359 3753 750 4183  Q 1141 4613 1794 4613  Q 2447 4613 2834 4195  Q 3222 3778 3234 2709  L 3234 1944  z M 2653 2734  Q 2653 3503 2434 3822  Q 2216 4141 1794 4141  Q 1388 4141 1167 3831  Q 947 3522 941 2778  L 941 1850  Q 941 1088 1164 750  Q 1388 413 1800 413  Q 2222 413 2436 745  Q 2650 1078 2653 1825  L 2653 2734  z " transform="scale(0.015625)"/>
        <path id="Roboto-Regular-2212" d="M 3134 2509  L 3134 2034  L 525 2034  L 525 2509  L 3134 2509  z " transform="scale(0.015625)"/>
        <path id="Roboto-Regular-33" d="M 1222 2084  L 1222 2559  L 1647 2559  Q 2094 2563 2312 2784  Q 2531 3006 2531 3338  Q 2531 4138 1738 4138  Q 1369 4138 1141 3927  Q 913 3716 913 3359  L 334 3359  Q 334 3881 720 4247  Q 1106 4613 1738 4613  Q 2353 4613 2733 4286  Q 3113 3959 3113 3325  Q 3113 3072 2942 2784  Q 2772 2497 2397 2338  Q 2850 2191 3015 1884  Q 3181 1578 3181 1269  Q 3181 631 2768 284  Q 2356 -63 1741 -63  Q 1147 -63 722 267  Q 297 597 297 1203  L 875 1203  Q 875 844 1108 628  Q 1341 413 1741 413  Q 2138 413 2369 622  Q 2600 831 2600 1256  Q 2600 1681 2337 1882  Q 2075 2084 1634 2084  L 1222 2084  z " transform="scale(0.015625)"/>
       </defs>
       <use xlink:href="#Roboto-Regular-31" transform="translate(0 0.565625)"/>
       <use xlink:href="#Roboto-Regular-30" transform="translate(56.201172 0.565625)"/>
       <use xlink:href="#Roboto-Regular-2212" transform="translate(113.326836 37.545313) scale(0.7)"/>
       <use xlink:href="#Roboto-Regular-33" transform="translate(153.35125 37.545313) scale(0.7)"/>
      </g>
     </g>
    </g>
    <g id="xtick_2">
     <g id="line2d_3">
      <g>
       <use xlink:href="#ma8652763e3" x="241.758179" y="135.854625" style="fill: #ffffff; stroke: #ffffff; stroke-width: 0.8"/>
      </g>
     </g>
     <g id="text_2">
      <!-- $\mathdefault{10^{-2}}$ -->
      <g style="fill: #ffffff" transform="translate(230.978179 151.104625) scale(0.11 -0.11)">
       <defs>
        <path id="Roboto-Regular-32" d="M 3359 475  L 3359 0  L 381 0  L 381 416  L 1925 2134  Q 2306 2566 2439 2819  Q 2572 3072 2572 3328  Q 2572 3663 2364 3900  Q 2156 4138 1778 4138  Q 1322 4138 1097 3878  Q 872 3619 872 3213  L 294 3213  Q 294 3788 672 4200  Q 1050 4613 1778 4613  Q 2422 4613 2786 4278  Q 3150 3944 3150 3397  Q 3150 2997 2903 2592  Q 2656 2188 2297 1797  L 1078 475  L 3359 475  z " transform="scale(0.015625)"/>
       </defs>
       <use xlink:href="#Roboto-Regular-31" transform="translate(0 0.565625)"/>
       <use xlink:href="#Roboto-Regular-30" transform="translate(56.201172 0.565625)"/>
       <use xlink:href="#Roboto-Regular-2212" transform="translate(113.326836 37.545313) scale(0.7)"/>
       <use xlink:href="#Roboto-Regular-32" transform="translate(153.35125 37.545313) scale(0.7)"/>
      </g>
     </g>
    </g>
    <g id="xtick_3">
     <g id="line2d_4">
      <g>
       <use xlink:href="#ma8652763e3" x="370.225174" y="135.854625" style="fill: #ffffff; stroke: #ffffff; stroke-width: 0.8"/>
      </g>
     </g>
     <g id="text_3">
      <!-- $\mathdefault{10^{-1}}$ -->
      <g style="fill: #ffffff" transform="translate(359.445174 151.104625) scale(0.11 -0.11)">
       <use xlink:href="#Roboto-Regular-31" transform="translate(0 0.98125)"/>
       <use xlink:href="#Roboto-Regular-30" transform="translate(56.201172 0.98125)"/>
       <use xlink:href="#Roboto-Regular-2212" transform="translate(113.326836 37.960938) scale(0.7)"/>
       <use xlink:href="#Roboto-Regular-31" transform="translate(153.35125 37.960938) scale(0.7)"/>
      </g>
     </g>
    </g>
    <g id="xtick_4">
     <g id="line2d_5">
      <g>
       <use xlink:href="#ma8652763e3" x="498.69217" y="135.854625" style="fill: #ffffff; stroke: #ffffff; stroke-width: 0.8"/>
      </g>
     </g>
     <g id="text_4">
      <!-- $\mathdefault{10^{0}}$ -->
      <g style="fill: #ffffff" transform="translate(490.11217 151.104625) scale(0.11 -0.11)">
       <use xlink:href="#Roboto-Regular-31" transform="translate(0 0.565625)"/>
       <use xlink:href="#Roboto-Regular-30" transform="translate(56.201172 0.565625)"/>
       <use xlink:href="#Roboto-Regular-30" transform="translate(113.326836 37.545313) scale(0.7)"/>
      </g>
     </g>
    </g>
    <g id="xtick_5">
     <g id="line2d_6">
      <defs>
       <path id="m26e819395a" d="M 0 0  L 0 2  " style="stroke: #ffffff; stroke-width: 0.6"/>
      </defs>
      <g>
       <use xlink:href="#m26e819395a" x="46.118521" y="135.854625" style="fill: #ffffff; stroke: #ffffff; stroke-width: 0.6"/>
      </g>
     </g>
    </g>
    <g id="xtick_6">
     <g id="line2d_7">
      <g>
       <use xlink:href="#m26e819395a" x="62.169025" y="135.854625" style="fill: #ffffff; stroke: #ffffff; stroke-width: 0.6"/>
      </g>
     </g>
    </g>
    <g id="xtick_7">
     <g id="line2d_8">
      <g>
       <use xlink:href="#m26e819395a" x="74.618764" y="135.854625" style="fill: #ffffff; stroke: #ffffff; stroke-width: 0.6"/>
      </g>
     </g>
    </g>
    <g id="xtick_8">
     <g id="line2d_9">
      <g>
       <use xlink:href="#m26e819395a" x="84.79094" y="135.854625" style="fill: #ffffff; stroke: #ffffff; stroke-width: 0.6"/>
      </g>
     </g>
    </g>
    <g id="xtick_9">
     <g id="line2d_10">
      <g>
       <use xlink:href="#m26e819395a" x="93.391393" y="135.854625" style="fill: #ffffff; stroke: #ffffff; stroke-width: 0.6"/>
      </g>
     </g>
    </g>
    <g id="xtick_10">
     <g id="line2d_11">
      <g>
       <use xlink:href="#m26e819395a" x="100.841445" y="135.854625" style="fill: #ffffff; stroke: #ffffff; stroke-width: 0.6"/>
      </g>
     </g>
    </g>
    <g id="xtick_11">
     <g id="line2d_12">
      <g>
       <use xlink:href="#m26e819395a" x="107.412855" y="135.854625" style="fill: #ffffff; stroke: #ffffff; stroke-width: 0.6"/>
      </g>
     </g>
    </g>
    <g id="xtick_12">
     <g id="line2d_13">
      <g>
       <use xlink:href="#m26e819395a" x="151.963602" y="135.854625" style="fill: #ffffff; stroke: #ffffff; stroke-width: 0.6"/>
      </g>
     </g>
    </g>
    <g id="xtick_13">
     <g id="line2d_14">
      <g>
       <use xlink:href="#m26e819395a" x="174.585517" y="135.854625" style="fill: #ffffff; stroke: #ffffff; stroke-width: 0.6"/>
      </g>
     </g>
    </g>
    <g id="xtick_14">
     <g id="line2d_15">
      <g>
       <use xlink:href="#m26e819395a" x="190.636021" y="135.854625" style="fill: #ffffff; stroke: #ffffff; stroke-width: 0.6"/>
      </g>
     </g>
    </g>
    <g id="xtick_15">
     <g id="line2d_16">
      <g>
       <use xlink:href="#m26e819395a" x="203.085759" y="135.854625" style="fill: #ffffff; stroke: #ffffff; stroke-width: 0.6"/>
      </g>
     </g>
    </g>
    <g id="xtick_16">
     <g id="line2d_17">
      <g>
       <use xlink:href="#m26e819395a" x="213.257936" y="135.854625" style="fill: #ffffff; stroke: #ffffff; stroke-width: 0.6"/>
      </g>
     </g>
    </g>
    <g id="xtick_17">
     <g id="line2d_18">
      <g>
       <use xlink:href="#m26e819395a" x="221.858389" y="135.854625" style="fill: #ffffff; stroke: #ffffff; stroke-width: 0.6"/>
      </g>
     </g>
    </g>
    <g id="xtick_18">
     <g id="line2d_19">
      <g>
       <use xlink:href="#m26e819395a" x="229.30844" y="135.854625" style="fill: #ffffff; stroke: #ffffff; stroke-width: 0.6"/>
      </g>
     </g>
    </g>
    <g id="xtick_19">
     <g id="line2d_20">
      <g>
       <use xlink:href="#m26e819395a" x="235.879851" y="135.854625" style="fill: #ffffff; stroke: #ffffff; stroke-width: 0.6"/>
      </g>
     </g>
    </g>
    <g id="xtick_20">
     <g id="line2d_21">
      <g>
       <use xlink:href="#m26e819395a" x="280.430598" y="135.854625" style="fill: #ffffff; stroke: #ffffff; stroke-width: 0.6"/>
      </g>
     </g>
    </g>
    <g id="xtick_21">
     <g id="line2d_22">
      <g>
       <use xlink:href="#m26e819395a" x="303.052513" y="135.854625" style="fill: #ffffff; stroke: #ffffff; stroke-width: 0.6"/>
      </g>
     </g>
    </g>
    <g id="xtick_22">
     <g id="line2d_23">
      <g>
       <use xlink:href="#m26e819395a" x="319.103017" y="135.854625" style="fill: #ffffff; stroke: #ffffff; stroke-width: 0.6"/>
      </g>
     </g>
    </g>
    <g id="xtick_23">
     <g id="line2d_24">
      <g>
       <use xlink:href="#m26e819395a" x="331.552755" y="135.854625" style="fill: #ffffff; stroke: #ffffff; stroke-width: 0.6"/>
      </g>
     </g>
    </g>
    <g id="xtick_24">
     <g id="line2d_25">
      <g>
       <use xlink:href="#m26e819395a" x="341.724932" y="135.854625" style="fill: #ffffff; stroke: #ffffff; stroke-width: 0.6"/>
      </g>
     </g>
    </g>
    <g id="xtick_25">
     <g id="line2d_26">
      <g>
       <use xlink:href="#m26e819395a" x="350.325385" y="135.854625" style="fill: #ffffff; stroke: #ffffff; stroke-width: 0.6"/>
      </g>
     </g>
    </g>
    <g id="xtick_26">
     <g id="line2d_27">
      <g>
       <use xlink:href="#m26e819395a" x="357.775436" y="135.854625" style="fill: #ffffff; stroke: #ffffff; stroke-width: 0.6"/>
      </g>
     </g>
    </g>
    <g id="xtick_27">
     <g id="line2d_28">
      <g>
       <use xlink:href="#m26e819395a" x="364.346847" y="135.854625" style="fill: #ffffff; stroke: #ffffff; stroke-width: 0.6"/>
      </g>
     </g>
    </g>
    <g id="xtick_28">
     <g id="line2d_29">
      <g>
       <use xlink:href="#m26e819395a" x="408.897593" y="135.854625" style="fill: #ffffff; stroke: #ffffff; stroke-width: 0.6"/>
      </g>
     </g>
    </g>
    <g id="xtick_29">
     <g id="line2d_30">
      <g>
       <use xlink:href="#m26e819395a" x="431.519509" y="135.854625" style="fill: #ffffff; stroke: #ffffff; stroke-width: 0.6"/>
      </g>
     </g>
    </g>
    <g id="xtick_30">
     <g id="line2d_31">
      <g>
       <use xlink:href="#m26e819395a" x="447.570013" y="135.854625" style="fill: #ffffff; stroke: #ffffff; stroke-width: 0.6"/>
      </g>
     </g>
    </g>
    <g id="xtick_31">
     <g id="line2d_32">
      <g>
       <use xlink:href="#m26e819395a" x="460.019751" y="135.854625" style="fill: #ffffff; stroke: #ffffff; stroke-width: 0.6"/>
      </g>
     </g>
    </g>
    <g id="xtick_32">
     <g id="line2d_33">
      <g>
       <use xlink:href="#m26e819395a" x="470.191928" y="135.854625" style="fill: #ffffff; stroke: #ffffff; stroke-width: 0.6"/>
      </g>
     </g>
    </g>
    <g id="xtick_33">
     <g id="line2d_34">
      <g>
       <use xlink:href="#m26e819395a" x="478.792381" y="135.854625" style="fill: #ffffff; stroke: #ffffff; stroke-width: 0.6"/>
      </g>
     </g>
    </g>
    <g id="xtick_34">
     <g id="line2d_35">
      <g>
       <use xlink:href="#m26e819395a" x="486.242432" y="135.854625" style="fill: #ffffff; stroke: #ffffff; stroke-width: 0.6"/>
      </g>
     </g>
    </g>
    <g id="xtick_35">
     <g id="line2d_36">
      <g>
       <use xlink:href="#m26e819395a" x="492.813843" y="135.854625" style="fill: #ffffff; stroke: #ffffff; stroke-width: 0.6"/>
      </g>
     </g>
    </g>
    <g id="text_5">
     <!-- Stokes number, $\mathcal{S}t$ -->
     <g style="fill: #ffffff" transform="translate(228.020346 165.589) scale(0.11 -0.11)">
      <defs>
       <path id="Roboto-Regular-53" d="M 2953 1150  Q 2953 1463 2742 1650  Q 2531 1838 1856 2036  Q 1181 2234 789 2542  Q 397 2850 397 3375  Q 397 3906 820 4259  Q 1244 4613 1944 4613  Q 2713 4613 3130 4191  Q 3547 3769 3547 3238  L 2947 3238  Q 2947 3619 2700 3869  Q 2453 4119 1944 4119  Q 1463 4119 1231 3908  Q 1000 3697 1000 3381  Q 1000 3097 1245 2908  Q 1491 2719 2044 2563  Q 2834 2341 3196 2014  Q 3559 1688 3559 1156  Q 3559 600 3125 268  Q 2691 -63 1972 -63  Q 1553 -63 1158 93  Q 763 250 508 558  Q 253 866 253 1319  L 853 1319  Q 853 853 1193 640  Q 1534 428 1972 428  Q 2444 428 2698 623  Q 2953 819 2953 1150  z " transform="scale(0.015625)"/>
       <path id="Roboto-Regular-74" d="M 1872 0  Q 1675 -63 1425 -63  Q 1103 -63 875 134  Q 647 331 647 841  L 647 2938  L 28 2938  L 28 3381  L 647 3381  L 647 4203  L 1225 4203  L 1225 3381  L 1856 3381  L 1856 2938  L 1225 2938  L 1225 838  Q 1225 578 1337 506  Q 1450 434 1597 434  Q 1706 434 1869 472  L 1872 0  z " transform="scale(0.015625)"/>
       <path id="Roboto-Regular-6f" d="M 288 1725  Q 288 2459 700 2951  Q 1113 3444 1822 3444  Q 2531 3444 2943 2961  Q 3356 2478 3366 1756  L 3366 1653  Q 3366 919 2952 428  Q 2538 -63 1828 -63  Q 1116 -63 702 428  Q 288 919 288 1653  L 288 1725  z M 866 1653  Q 866 1150 1105 781  Q 1344 413 1828 413  Q 2300 413 2540 777  Q 2781 1141 2784 1644  L 2784 1725  Q 2784 2222 2543 2595  Q 2303 2969 1822 2969  Q 1344 2969 1105 2595  Q 866 2222 866 1725  L 866 1653  z " transform="scale(0.015625)"/>
       <path id="Roboto-Regular-6b" d="M 2559 0  L 1388 1569  L 1022 1191  L 1022 0  L 441 0  L 441 4800  L 1022 4800  L 1022 1900  L 1331 2269  L 2381 3381  L 3088 3381  L 1769 1972  L 3241 0  L 2559 0  z " transform="scale(0.015625)"/>
       <path id="Roboto-Regular-65" d="M 3116 591  Q 2950 341 2647 139  Q 2344 -63 1844 -63  Q 1138 -63 714 396  Q 291 856 291 1572  L 291 1703  Q 291 2256 502 2645  Q 713 3034 1050 3239  Q 1388 3444 1769 3444  Q 2494 3444 2826 2970  Q 3159 2497 3159 1788  L 3159 1528  L 872 1528  Q 884 1063 1148 736  Q 1413 409 1875 409  Q 2181 409 2393 534  Q 2606 659 2766 869  L 3116 591  z M 1769 2969  Q 1425 2969 1187 2719  Q 950 2469 891 2000  L 2581 2000  L 2581 2044  Q 2559 2381 2386 2675  Q 2213 2969 1769 2969  z " transform="scale(0.015625)"/>
       <path id="Roboto-Regular-73" d="M 2409 897  Q 2409 1081 2273 1229  Q 2138 1378 1647 1478  Q 1081 1594 747 1814  Q 413 2034 413 2456  Q 413 2856 755 3150  Q 1097 3444 1666 3444  Q 2272 3444 2612 3134  Q 2953 2825 2953 2388  L 2375 2388  Q 2375 2597 2190 2783  Q 2006 2969 1666 2969  Q 1306 2969 1150 2812  Q 994 2656 994 2472  Q 994 2288 1139 2173  Q 1284 2059 1756 1953  Q 2378 1813 2683 1584  Q 2988 1356 2988 941  Q 2988 494 2630 215  Q 2272 -63 1681 -63  Q 1009 -63 653 281  Q 297 625 297 1044  L 878 1044  Q 897 684 1155 548  Q 1413 413 1681 413  Q 2034 413 2221 550  Q 2409 688 2409 897  z " transform="scale(0.015625)"/>
       <path id="Roboto-Regular-20" transform="scale(0.015625)"/>
       <path id="Roboto-Regular-6e" d="M 1844 2956  Q 1566 2956 1353 2806  Q 1141 2656 1019 2416  L 1019 0  L 441 0  L 441 3381  L 988 3381  L 1006 2959  Q 1391 3444 2016 3444  Q 2513 3444 2805 3166  Q 3097 2888 3100 2231  L 3100 0  L 2519 0  L 2519 2222  Q 2519 2619 2345 2787  Q 2172 2956 1844 2956  z " transform="scale(0.015625)"/>
       <path id="Roboto-Regular-75" d="M 2538 0  L 2525 334  Q 2194 -63 1538 -63  Q 1041 -63 734 231  Q 428 525 428 1200  L 428 3381  L 1006 3381  L 1006 1194  Q 1006 738 1198 583  Q 1391 428 1628 428  Q 2281 428 2509 919  L 2509 3381  L 3091 3381  L 3091 0  L 2538 0  z " transform="scale(0.015625)"/>
       <path id="Roboto-Regular-6d" d="M 1794 2956  Q 1225 2956 1016 2478  L 1016 0  L 434 0  L 434 3381  L 984 3381  L 1000 3013  Q 1366 3444 2000 3444  Q 2325 3444 2579 3314  Q 2834 3184 2969 2900  Q 3138 3144 3408 3294  Q 3678 3444 4044 3444  Q 4588 3444 4883 3153  Q 5178 2863 5178 2222  L 5178 0  L 4597 0  L 4597 2228  Q 4597 2653 4401 2804  Q 4206 2956 3875 2956  Q 3525 2956 3325 2748  Q 3125 2541 3094 2244  L 3094 0  L 2516 0  L 2516 2225  Q 2516 2622 2319 2789  Q 2122 2956 1794 2956  z " transform="scale(0.015625)"/>
       <path id="Roboto-Regular-62" d="M 3303 1653  Q 3303 913 2959 425  Q 2616 -63 1988 -63  Q 1347 -63 1000 391  L 969 0  L 438 0  L 438 4800  L 1019 4800  L 1019 3016  Q 1363 3444 1981 3444  Q 2619 3444 2961 2969  Q 3303 2494 3303 1719  L 3303 1653  z M 1838 2956  Q 1522 2956 1325 2804  Q 1128 2653 1019 2431  L 1019 959  Q 1131 734 1331 581  Q 1531 428 1844 428  Q 2313 428 2517 789  Q 2722 1150 2722 1653  L 2722 1719  Q 2722 2222 2526 2589  Q 2331 2956 1838 2956  z " transform="scale(0.015625)"/>
       <path id="Roboto-Regular-72" d="M 1791 2888  Q 1225 2888 1019 2400  L 1019 0  L 441 0  L 441 3381  L 1003 3381  L 1016 2994  Q 1294 3444 1819 3444  Q 1981 3444 2075 3400  L 2072 2863  Q 1944 2888 1791 2888  z " transform="scale(0.015625)"/>
       <path id="Roboto-Regular-2c" d="M 966 688  L 966 222  Q 966 -63 822 -380  Q 678 -697 419 -909  L 91 -681  Q 391 -263 400 175  L 400 688  L 966 688  z " transform="scale(0.015625)"/>
       <path id="STIXNonUnicode-Italic-e23f" d="M 243 1235  L 410 1254  Q 518 582 1139 365  Q 1421 262 1766 262  Q 2304 262 2685 515  Q 3066 768 3066 1235  Q 3066 1427 2883 1571  Q 2701 1715 2445 1817  Q 2189 1920 1929 2045  Q 1670 2170 1488 2403  Q 1306 2637 1306 2970  Q 1306 3290 1507 3555  Q 1709 3821 2000 3974  Q 2291 4128 2572 4211  Q 2854 4294 3059 4294  Q 3603 4294 3948 4134  Q 4294 3974 4294 3642  Q 4294 3462 4182 3299  Q 4070 3136 3853 3136  Q 3712 3136 3603 3232  Q 3494 3328 3494 3456  Q 3494 3603 3590 3708  Q 3686 3814 3686 3840  Q 3686 3917 3628 3965  Q 3571 4013 3456 4032  Q 3341 4051 3264 4054  Q 3187 4058 3059 4058  Q 2931 4058 2745 4010  Q 2560 3962 2352 3866  Q 2144 3770 2000 3581  Q 1856 3392 1856 3155  Q 1856 2931 2057 2771  Q 2259 2611 2550 2502  Q 2842 2394 3133 2269  Q 3424 2144 3625 1920  Q 3827 1696 3827 1376  Q 3827 902 3206 451  Q 2586 0 1805 0  Q 992 0 617 339  Q 243 678 243 1235  z " transform="scale(0.015625)"/>
       <path id="STIXGeneral-Italic-74" d="M 1894 2739  L 1862 2534  L 1325 2534  L 768 435  Q 755 384 755 346  Q 755 243 851 243  Q 928 243 1030 342  Q 1133 442 1370 749  L 1453 704  Q 1158 256 969 93  Q 781 -70 538 -70  Q 243 -70 243 166  Q 243 230 346 640  L 845 2534  L 365 2534  L 358 2573  Q 358 2688 570 2733  Q 730 2771 992 2979  Q 1254 3187 1421 3437  Q 1459 3494 1510 3494  Q 1568 3494 1568 3443  Q 1568 3411 1562 3398  L 1382 2739  L 1894 2739  z " transform="scale(0.015625)"/>
      </defs>
      <use xlink:href="#Roboto-Regular-53"/>
      <use xlink:href="#Roboto-Regular-74" transform="translate(59.375 0)"/>
      <use xlink:href="#Roboto-Regular-6f" transform="translate(92.089844 0)"/>
      <use xlink:href="#Roboto-Regular-6b" transform="translate(149.121094 0)"/>
      <use xlink:href="#Roboto-Regular-65" transform="translate(199.804688 0)"/>
      <use xlink:href="#Roboto-Regular-73" transform="translate(252.832031 0)"/>
      <use xlink:href="#Roboto-Regular-20" transform="translate(304.443359 0)"/>
      <use xlink:href="#Roboto-Regular-6e" transform="translate(329.248047 0)"/>
      <use xlink:href="#Roboto-Regular-75" transform="translate(384.472656 0)"/>
      <use xlink:href="#Roboto-Regular-6d" transform="translate(439.599609 0)"/>
      <use xlink:href="#Roboto-Regular-62" transform="translate(527.294922 0)"/>
      <use xlink:href="#Roboto-Regular-65" transform="translate(583.447266 0)"/>
      <use xlink:href="#Roboto-Regular-72" transform="translate(636.474609 0)"/>
      <use xlink:href="#Roboto-Regular-2c" transform="translate(670.361328 0)"/>
      <use xlink:href="#Roboto-Regular-20" transform="translate(690.039062 0)"/>
      <use xlink:href="#STIXNonUnicode-Italic-e23f" transform="translate(714.84375 0)"/>
      <use xlink:href="#STIXGeneral-Italic-74" transform="translate(778.243744 0)"/>
     </g>
    </g>
   </g>
   <g id="matplotlib.axis_2">
    <g id="ytick_1">
     <g id="line2d_37">
      <defs>
       <path id="m11cefa4415" d="M 0 0  L -3.5 0  " style="stroke: #ffffff; stroke-width: 0.8"/>
      </defs>
      <g>
       <use xlink:href="#m11cefa4415" x="46.118521" y="135.854625" style="fill: #ffffff; stroke: #ffffff; stroke-width: 0.8"/>
      </g>
     </g>
     <g id="text_6">
      <!-- 0.0 -->
      <g style="fill: #ffffff" transform="translate(23.852584 139.979625) scale(0.11 -0.11)">
       <defs>
        <path id="Roboto-Regular-2e" d="M 450 306  Q 450 453 542 554  Q 634 656 809 656  Q 984 656 1076 554  Q 1169 453 1169 306  Q 1169 163 1076 62  Q 984 -38 809 -38  Q 634 -38 542 62  Q 450 163 450 306  z " transform="scale(0.015625)"/>
       </defs>
       <use xlink:href="#Roboto-Regular-30"/>
       <use xlink:href="#Roboto-Regular-2e" x="56.201172"/>
       <use xlink:href="#Roboto-Regular-30" x="82.568359"/>
      </g>
     </g>
    </g>
    <g id="ytick_2">
     <g id="line2d_38">
      <g>
       <use xlink:href="#m11cefa4415" x="46.118521" y="93.144366" style="fill: #ffffff; stroke: #ffffff; stroke-width: 0.8"/>
      </g>
     </g>
     <g id="text_7">
      <!-- 0.5 -->
      <g style="fill: #ffffff" transform="translate(23.852584 97.269366) scale(0.11 -0.11)">
       <defs>
        <path id="Roboto-Regular-35" d="M 1109 2166  L 647 2284  L 875 4550  L 3209 4550  L 3209 4016  L 1366 4016  L 1228 2778  Q 1572 2975 1988 2975  Q 2616 2975 2980 2561  Q 3344 2147 3344 1450  Q 3344 797 2987 367  Q 2631 -63 1903 -63  Q 1350 -63 947 248  Q 544 559 481 1197  L 1031 1197  Q 1141 413 1903 413  Q 2313 413 2538 691  Q 2763 969 2763 1444  Q 2763 1872 2527 2164  Q 2291 2456 1853 2456  Q 1563 2456 1413 2378  Q 1263 2300 1109 2166  z " transform="scale(0.015625)"/>
       </defs>
       <use xlink:href="#Roboto-Regular-30"/>
       <use xlink:href="#Roboto-Regular-2e" x="56.201172"/>
       <use xlink:href="#Roboto-Regular-35" x="82.568359"/>
      </g>
     </g>
    </g>
    <g id="ytick_3">
     <g id="line2d_39">
      <g>
       <use xlink:href="#m11cefa4415" x="46.118521" y="50.434106" style="fill: #ffffff; stroke: #ffffff; stroke-width: 0.8"/>
      </g>
     </g>
     <g id="text_8">
      <!-- 1.0 -->
      <g style="fill: #ffffff" transform="translate(23.852584 54.559106) scale(0.11 -0.11)">
       <use xlink:href="#Roboto-Regular-31"/>
       <use xlink:href="#Roboto-Regular-2e" x="56.201172"/>
       <use xlink:href="#Roboto-Regular-30" x="82.568359"/>
      </g>
     </g>
    </g>
    <g id="ytick_4">
     <g id="line2d_40">
      <g>
       <use xlink:href="#m11cefa4415" x="46.118521" y="7.723847" style="fill: #ffffff; stroke: #ffffff; stroke-width: 0.8"/>
      </g>
     </g>
     <g id="text_9">
      <!-- 1.5 -->
      <g style="fill: #ffffff" transform="translate(23.852584 11.848847) scale(0.11 -0.11)">
       <use xlink:href="#Roboto-Regular-31"/>
       <use xlink:href="#Roboto-Regular-2e" x="56.201172"/>
       <use xlink:href="#Roboto-Regular-35" x="82.568359"/>
      </g>
     </g>
    </g>
    <g id="text_10">
     <!-- Slumping velocity, $\mathcal{F}r$ -->
     <g style="fill: #ffffff" transform="translate(11.25024 119.205312) rotate(-90) scale(0.11 -0.11)">
      <defs>
       <path id="Roboto-Regular-6c" d="M 1069 4800  L 1069 0  L 488 0  L 488 4800  L 1069 4800  z " transform="scale(0.015625)"/>
       <path id="Roboto-Regular-70" d="M 1984 -63  Q 1375 -63 1019 328  L 1019 -1300  L 438 -1300  L 438 3381  L 969 3381  L 997 3009  Q 1353 3444 1975 3444  Q 2616 3444 2956 2969  Q 3297 2494 3297 1719  L 3297 1653  Q 3297 913 2955 425  Q 2613 -63 1984 -63  z M 1806 2956  Q 1281 2956 1019 2491  L 1019 872  Q 1284 413 1813 413  Q 2281 413 2498 781  Q 2716 1150 2716 1653  L 2716 1719  Q 2716 2222 2498 2589  Q 2281 2956 1806 2956  z " transform="scale(0.015625)"/>
       <path id="Roboto-Regular-69" d="M 444 4278  Q 444 4419 530 4516  Q 616 4613 784 4613  Q 950 4613 1039 4516  Q 1128 4419 1128 4278  Q 1128 4144 1039 4048  Q 950 3953 784 3953  Q 616 3953 530 4048  Q 444 4144 444 4278  z M 1069 3381  L 1069 0  L 488 0  L 488 3381  L 1069 3381  z " transform="scale(0.015625)"/>
       <path id="Roboto-Regular-67" d="M 1725 -1334  Q 1463 -1334 1081 -1206  Q 700 -1078 472 -747  L 775 -403  Q 1150 -859 1681 -859  Q 2091 -859 2334 -629  Q 2578 -400 2578 44  L 2578 341  Q 2234 -63 1631 -63  Q 1022 -63 662 425  Q 303 913 303 1653  L 303 1719  Q 303 2494 661 2969  Q 1019 3444 1638 3444  Q 2259 3444 2603 3006  L 2631 3381  L 3156 3381  L 3156 72  Q 3156 -600 2756 -967  Q 2356 -1334 1725 -1334  z M 881 1653  Q 881 1150 1092 789  Q 1303 428 1772 428  Q 2322 428 2578 928  L 2578 2469  Q 2469 2678 2275 2817  Q 2081 2956 1778 2956  Q 1306 2956 1093 2589  Q 881 2222 881 1719  L 881 1653  z " transform="scale(0.015625)"/>
       <path id="Roboto-Regular-76" d="M 2984 3381  L 1769 0  L 1328 0  L 103 3381  L 697 3381  L 1556 791  L 2394 3381  L 2984 3381  z " transform="scale(0.015625)"/>
       <path id="Roboto-Regular-63" d="M 1794 413  Q 2103 413 2336 597  Q 2569 781 2591 1069  L 3141 1069  Q 3119 616 2725 276  Q 2331 -63 1794 -63  Q 1031 -63 661 440  Q 291 944 291 1625  L 291 1756  Q 291 2438 661 2941  Q 1031 3444 1794 3444  Q 2388 3444 2753 3092  Q 3119 2741 3141 2219  L 2591 2219  Q 2569 2531 2355 2750  Q 2141 2969 1794 2969  Q 1438 2969 1236 2787  Q 1034 2606 951 2328  Q 869 2050 869 1756  L 869 1625  Q 869 1328 950 1050  Q 1031 772 1232 592  Q 1434 413 1794 413  z " transform="scale(0.015625)"/>
       <path id="Roboto-Regular-79" d="M 1594 -522  Q 1294 -1316 688 -1363  L 591 -1366  Q 406 -1366 266 -1316  L 263 -847  L 419 -859  Q 713 -859 878 -739  Q 1044 -619 1150 -306  L 1275 38  L 69 3381  L 700 3381  L 1547 850  L 2331 3381  L 2950 3381  L 1594 -522  z " transform="scale(0.015625)"/>
       <path id="STIXNonUnicode-Italic-e232" d="M 378 3418  L 275 3533  Q 730 3955 1174 4096  Q 1619 4237 2163 4237  Q 2714 4237 3110 4208  Q 3507 4179 3849 4099  Q 4192 4019 4368 3868  Q 4544 3718 4544 3488  Q 4544 3270 4429 3123  Q 4314 2976 4109 2976  Q 3962 2976 3853 3062  Q 3744 3149 3744 3277  Q 3744 3398 3792 3465  Q 3840 3533 3897 3549  Q 3955 3565 4000 3593  Q 4045 3622 4045 3680  Q 4045 3808 3696 3894  Q 3347 3981 2893 3981  Q 2694 3981 2608 3920  Q 2522 3859 2464 3667  L 2099 2413  L 3494 2413  L 3411 2157  L 2029 2157  L 1747 1203  Q 1626 787 1491 537  Q 1357 288 1174 173  Q 992 58 829 29  Q 666 0 384 0  L 435 154  Q 608 154 726 288  Q 845 422 934 742  L 1690 3334  Q 1754 3558 1754 3667  Q 1754 3776 1690 3827  Q 1626 3878 1459 3878  Q 858 3878 378 3418  z " transform="scale(0.015625)"/>
       <path id="STIXGeneral-Italic-72" d="M 1126 1427  L 1229 1651  Q 1446 2131 1830 2534  Q 2106 2822 2336 2822  Q 2470 2822 2553 2732  Q 2637 2643 2637 2496  Q 2637 2349 2557 2249  Q 2477 2150 2336 2150  Q 2214 2150 2112 2317  Q 2061 2406 2010 2406  Q 1837 2406 1485 1805  Q 1267 1434 1136 1104  Q 1005 774 774 0  L 288 0  L 806 1869  Q 909 2246 909 2394  Q 909 2560 666 2560  Q 614 2560 467 2541  L 467 2650  L 1459 2822  L 1478 2810  L 1126 1427  z " transform="scale(0.015625)"/>
      </defs>
      <use xlink:href="#Roboto-Regular-53"/>
      <use xlink:href="#Roboto-Regular-6c" transform="translate(59.375 0)"/>
      <use xlink:href="#Roboto-Regular-75" transform="translate(83.691406 0)"/>
      <use xlink:href="#Roboto-Regular-6d" transform="translate(138.818359 0)"/>
      <use xlink:href="#Roboto-Regular-70" transform="translate(226.513672 0)"/>
      <use xlink:href="#Roboto-Regular-69" transform="translate(282.666016 0)"/>
      <use xlink:href="#Roboto-Regular-6e" transform="translate(306.982422 0)"/>
      <use xlink:href="#Roboto-Regular-67" transform="translate(362.207031 0)"/>
      <use xlink:href="#Roboto-Regular-20" transform="translate(418.359375 0)"/>
      <use xlink:href="#Roboto-Regular-76" transform="translate(443.164062 0)"/>
      <use xlink:href="#Roboto-Regular-65" transform="translate(491.601562 0)"/>
      <use xlink:href="#Roboto-Regular-6c" transform="translate(544.628906 0)"/>
      <use xlink:href="#Roboto-Regular-6f" transform="translate(568.945312 0)"/>
      <use xlink:href="#Roboto-Regular-63" transform="translate(625.976562 0)"/>
      <use xlink:href="#Roboto-Regular-69" transform="translate(678.320312 0)"/>
      <use xlink:href="#Roboto-Regular-74" transform="translate(702.636719 0)"/>
      <use xlink:href="#Roboto-Regular-79" transform="translate(735.351562 0)"/>
      <use xlink:href="#Roboto-Regular-2c" transform="translate(782.666016 0)"/>
      <use xlink:href="#Roboto-Regular-20" transform="translate(802.34375 0)"/>
      <use xlink:href="#STIXNonUnicode-Italic-e232" transform="translate(827.148438 0)"/>
      <use xlink:href="#STIXGeneral-Italic-72" transform="translate(892.348434 0)"/>
     </g>
    </g>
   </g>
   <g id="patch_3">
    <path d="M 46.118521 135.854625  L 46.118521 0.036  " style="fill: none; stroke: #ffffff; stroke-width: 0.8; stroke-linejoin: miter; stroke-linecap: square"/>
   </g>
   <g id="patch_4">
    <path d="M 498.69217 135.854625  L 498.69217 0.036  " style="fill: none; stroke: #ffffff; stroke-width: 0.8; stroke-linejoin: miter; stroke-linecap: square"/>
   </g>
   <g id="patch_5">
    <path d="M 46.118521 135.854625  L 498.69217 135.854625  " style="fill: none; stroke: #ffffff; stroke-width: 0.8; stroke-linejoin: miter; stroke-linecap: square"/>
   </g>
   <g id="patch_6">
    <path d="M 46.118521 0.036  L 498.69217 0.036  " style="fill: none; stroke: #ffffff; stroke-width: 0.8; stroke-linejoin: miter; stroke-linecap: square"/>
   </g>
  </g>
  <g id="axes_2"/>
  <g id="legend_1">
   <g id="patch_7">
    <path d="M 549.468828 88.721875  L 631.221171 88.721875  Q 633.421171 88.721875 633.421171 86.521875  L 633.421171 7.7  Q 633.421171 5.5 631.221171 5.5  L 549.468828 5.5  Q 547.268828 5.5 547.268828 7.7  L 547.268828 86.521875  Q 547.268828 88.721875 549.468828 88.721875  z " style="fill: #191919; opacity: 0.8; stroke: #cccccc; stroke-linejoin: miter"/>
   </g>
   <g id="text_11">
    <!-- Datasets -->
    <g style="fill: #ffffff" transform="translate(568.559843 18.15) scale(0.11 -0.11)">
     <defs>
      <path id="Roboto-Regular-44" d="M 528 0  L 528 4550  L 1816 4550  Q 2713 4550 3267 3973  Q 3822 3397 3822 2409  L 3822 2138  Q 3822 1150 3264 575  Q 2706 0 1759 0  L 528 0  z M 1131 4056  L 1131 491  L 1759 491  Q 2488 491 2856 941  Q 3225 1391 3225 2138  L 3225 2416  Q 3225 3200 2856 3628  Q 2488 4056 1816 4056  L 1131 4056  z " transform="scale(0.015625)"/>
      <path id="Roboto-Regular-61" d="M 2528 0  Q 2472 122 2447 356  Q 2284 184 2040 60  Q 1797 -63 1484 -63  Q 966 -63 653 228  Q 341 519 341 941  Q 341 1484 753 1767  Q 1166 2050 1863 2050  L 2434 2050  L 2434 2319  Q 2434 2619 2254 2798  Q 2075 2978 1722 2978  Q 1394 2978 1192 2817  Q 991 2656 991 2444  L 413 2444  Q 413 2806 778 3125  Q 1144 3444 1756 3444  Q 2306 3444 2659 3162  Q 3013 2881 3013 2313  L 3013 794  Q 3013 325 3131 50  L 3131 0  L 2528 0  z M 1569 444  Q 1881 444 2111 600  Q 2341 756 2434 947  L 2434 1644  L 1897 1644  Q 922 1625 922 1019  Q 922 778 1084 611  Q 1247 444 1569 444  z " transform="scale(0.015625)"/>
     </defs>
     <use xlink:href="#Roboto-Regular-44"/>
     <use xlink:href="#Roboto-Regular-61" x="65.625"/>
     <use xlink:href="#Roboto-Regular-74" x="120.019531"/>
     <use xlink:href="#Roboto-Regular-61" x="152.734375"/>
     <use xlink:href="#Roboto-Regular-73" x="207.128906"/>
     <use xlink:href="#Roboto-Regular-65" x="258.740234"/>
     <use xlink:href="#Roboto-Regular-74" x="311.767578"/>
     <use xlink:href="#Roboto-Regular-73" x="344.482422"/>
    </g>
   </g>
   <g id="line2d_41">
    <defs>
     <path id="m0394abef21" d="M 0 3  C 0.795609 3 1.55874 2.683901 2.12132 2.12132  C 2.683901 1.55874 3 0.795609 3 0  C 3 -0.795609 2.683901 -1.55874 2.12132 -2.12132  C 1.55874 -2.683901 0.795609 -3 0 -3  C -0.795609 -3 -1.55874 -2.683901 -2.12132 -2.12132  C -2.683901 -1.55874 -3 -0.795609 -3 0  C -3 0.795609 -2.683901 1.55874 -2.12132 2.12132  C -1.55874 2.683901 -0.795609 3 0 3  z " style="stroke: #fcca46"/>
    </defs>
    <g>
     <use xlink:href="#m0394abef21" x="562.668828" y="30.284375" style="fill: #fcca46; stroke: #fcca46"/>
    </g>
   </g>
   <g id="text_12">
    <!-- IMFT -->
    <g style="fill: #ffffff" transform="translate(582.468828 34.134375) scale(0.11 -0.11)">
     <defs>
      <path id="Roboto-Regular-49" d="M 1175 4550  L 1175 0  L 572 0  L 572 4550  L 1175 4550  z " transform="scale(0.015625)"/>
      <path id="Roboto-Regular-4d" d="M 2794 841  L 4281 4550  L 5056 4550  L 5056 0  L 4456 0  L 4456 1775  L 4516 3678  L 3019 0  L 2563 0  L 1069 3684  L 1128 1775  L 1128 0  L 528 0  L 528 4550  L 1303 4550  L 2794 841  z " transform="scale(0.015625)"/>
      <path id="Roboto-Regular-46" d="M 528 0  L 528 4550  L 3347 4550  L 3347 4056  L 1131 4056  L 1131 2503  L 3038 2503  L 3038 2009  L 1131 2009  L 1131 0  L 528 0  z " transform="scale(0.015625)"/>
      <path id="Roboto-Regular-54" d="M 156 4056  L 156 4550  L 3672 4550  L 3672 4056  L 2209 4056  L 2209 0  L 1616 0  L 1616 4056  L 156 4056  z " transform="scale(0.015625)"/>
     </defs>
     <use xlink:href="#Roboto-Regular-49"/>
     <use xlink:href="#Roboto-Regular-4d" x="27.197266"/>
     <use xlink:href="#Roboto-Regular-46" x="114.501953"/>
     <use xlink:href="#Roboto-Regular-54" x="169.775391"/>
    </g>
   </g>
   <g id="line2d_42">
    <defs>
     <path id="m89d1b6139e" d="M 0 3  C 0.795609 3 1.55874 2.683901 2.12132 2.12132  C 2.683901 1.55874 3 0.795609 3 0  C 3 -0.795609 2.683901 -1.55874 2.12132 -2.12132  C 1.55874 -2.683901 0.795609 -3 0 -3  C -0.795609 -3 -1.55874 -2.683901 -2.12132 -2.12132  C -2.683901 -1.55874 -3 -0.795609 -3 0  C -3 0.795609 -2.683901 1.55874 -2.12132 2.12132  C -1.55874 2.683901 -0.795609 3 0 3  z " style="stroke: #83b692"/>
    </defs>
    <g>
     <use xlink:href="#m89d1b6139e" x="562.668828" y="46.26875" style="fill: #83b692; stroke: #83b692"/>
    </g>
   </g>
   <g id="text_13">
    <!-- LEGI -->
    <g style="fill: #ffffff" transform="translate(582.468828 50.11875) scale(0.11 -0.11)">
     <defs>
      <path id="Roboto-Regular-4c" d="M 3288 491  L 3288 0  L 528 0  L 528 4550  L 1131 4550  L 1131 491  L 3288 491  z " transform="scale(0.015625)"/>
      <path id="Roboto-Regular-45" d="M 528 0  L 528 4550  L 3388 4550  L 3388 4056  L 1131 4056  L 1131 2594  L 3100 2594  L 3100 2103  L 1131 2103  L 1131 491  L 3419 491  L 3419 0  L 528 0  z " transform="scale(0.015625)"/>
      <path id="Roboto-Regular-47" d="M 3891 2266  L 3891 600  Q 3763 413 3403 175  Q 3044 -63 2281 -63  Q 1450 -63 915 507  Q 381 1078 381 2100  L 381 2453  Q 381 3469 856 4041  Q 1331 4613 2213 4613  Q 2994 4613 3398 4219  Q 3803 3825 3891 3219  L 3288 3219  Q 3225 3588 2979 3853  Q 2734 4119 2213 4119  Q 1584 4119 1287 3676  Q 991 3234 988 2475  L 988 2100  Q 988 1313 1344 870  Q 1700 428 2284 428  Q 2769 428 2984 542  Q 3200 656 3291 759  L 3291 1778  L 2238 1778  L 2238 2266  L 3891 2266  z " transform="scale(0.015625)"/>
     </defs>
     <use xlink:href="#Roboto-Regular-4c"/>
     <use xlink:href="#Roboto-Regular-45" x="53.857422"/>
     <use xlink:href="#Roboto-Regular-47" x="110.693359"/>
     <use xlink:href="#Roboto-Regular-49" x="178.808594"/>
    </g>
   </g>
   <g id="line2d_43">
    <defs>
     <path id="m4d9cabef7d" d="M 0 3  C 0.795609 3 1.55874 2.683901 2.12132 2.12132  C 2.683901 1.55874 3 0.795609 3 0  C 3 -0.795609 2.683901 -1.55874 2.12132 -2.12132  C 1.55874 -2.683901 0.795609 -3 0 -3  C -0.795609 -3 -1.55874 -2.683901 -2.12132 -2.12132  C -2.683901 -1.55874 -3 -0.795609 -3 0  C -3 0.795609 -2.683901 1.55874 -2.12132 2.12132  C -1.55874 2.683901 -0.795609 3 0 3  z " style="stroke: #fe7f2d"/>
    </defs>
    <g>
     <use xlink:href="#m4d9cabef7d" x="562.668828" y="62.253125" style="fill: #fe7f2d; stroke: #fe7f2d"/>
    </g>
   </g>
   <g id="text_14">
    <!-- LEMTA -->
    <g style="fill: #ffffff" transform="translate(582.468828 66.103125) scale(0.11 -0.11)">
     <defs>
      <path id="Roboto-Regular-41" d="M 91 0  L 1825 4550  L 2353 4550  L 4094 0  L 3475 0  L 3041 1191  L 1138 1191  L 706 0  L 91 0  z M 1319 1684  L 2863 1684  L 2091 3806  L 1319 1684  z " transform="scale(0.015625)"/>
     </defs>
     <use xlink:href="#Roboto-Regular-4c"/>
     <use xlink:href="#Roboto-Regular-45" x="53.857422"/>
     <use xlink:href="#Roboto-Regular-4d" x="110.693359"/>
     <use xlink:href="#Roboto-Regular-54" x="197.998047"/>
     <use xlink:href="#Roboto-Regular-41" x="257.666016"/>
    </g>
   </g>
   <g id="line2d_44">
    <defs>
     <path id="me18cdb093b" d="M -3 3  L 3 3  L 3 -3  L -3 -3  z " style="stroke: #780116; stroke-linejoin: miter"/>
    </defs>
    <g>
     <use xlink:href="#me18cdb093b" x="562.668828" y="78.2375" style="fill: #780116; stroke: #780116; stroke-linejoin: miter"/>
    </g>
   </g>
   <g id="text_15">
    <!-- SedFoam -->
    <g style="fill: #ffffff" transform="translate(582.468828 82.0875) scale(0.11 -0.11)">
     <defs>
      <path id="Roboto-Regular-64" d="M 2622 0  L 2594 363  Q 2247 -63 1628 -63  Q 1034 -63 668 418  Q 303 900 297 1628  L 297 1719  Q 297 2494 664 2969  Q 1031 3444 1634 3444  Q 2231 3444 2572 3044  L 2572 4800  L 3153 4800  L 3153 0  L 2622 0  z M 878 1653  Q 878 1150 1090 789  Q 1303 428 1772 428  Q 2309 428 2572 919  L 2572 2475  Q 2313 2956 1778 2956  Q 1306 2956 1092 2589  Q 878 2222 878 1719  L 878 1653  z " transform="scale(0.015625)"/>
     </defs>
     <use xlink:href="#Roboto-Regular-53"/>
     <use xlink:href="#Roboto-Regular-65" x="59.375"/>
     <use xlink:href="#Roboto-Regular-64" x="112.402344"/>
     <use xlink:href="#Roboto-Regular-46" x="168.798828"/>
     <use xlink:href="#Roboto-Regular-6f" x="224.072266"/>
     <use xlink:href="#Roboto-Regular-61" x="281.103516"/>
     <use xlink:href="#Roboto-Regular-6d" x="335.498047"/>
    </g>
   </g>
  </g>
  <g id="legend_2">
   <g id="patch_8">
    <path d="M 512.97289 209.612969  L 631.221171 209.612969  Q 633.421171 209.612969 633.421171 207.412969  L 633.421171 96.337031  Q 633.421171 94.137031 631.221171 94.137031  L 512.97289 94.137031  Q 510.77289 94.137031 510.77289 96.337031  L 510.77289 207.412969  Q 510.77289 209.612969 512.97289 209.612969  z " style="fill: #191919; opacity: 0.8; stroke: #cccccc; stroke-linejoin: miter"/>
   </g>
   <g id="text_16">
    <!-- Particles -->
    <g style="fill: #ffffff" transform="translate(550.663359 106.787031) scale(0.11 -0.11)">
     <defs>
      <path id="Roboto-Regular-50" d="M 1131 1784  L 1131 0  L 528 0  L 528 4550  L 2206 4550  Q 2981 4550 3392 4159  Q 3803 3769 3803 3163  Q 3803 2503 3392 2143  Q 2981 1784 2206 1784  L 1131 1784  z M 1131 4056  L 1131 2275  L 2206 2275  Q 2738 2275 2969 2522  Q 3200 2769 3200 3156  Q 3200 3506 2969 3781  Q 2738 4056 2206 4056  L 1131 4056  z " transform="scale(0.015625)"/>
     </defs>
     <use xlink:href="#Roboto-Regular-50"/>
     <use xlink:href="#Roboto-Regular-61" x="63.085938"/>
     <use xlink:href="#Roboto-Regular-72" x="117.480469"/>
     <use xlink:href="#Roboto-Regular-74" x="151.367188"/>
     <use xlink:href="#Roboto-Regular-69" x="184.082031"/>
     <use xlink:href="#Roboto-Regular-63" x="208.398438"/>
     <use xlink:href="#Roboto-Regular-6c" x="260.742188"/>
     <use xlink:href="#Roboto-Regular-65" x="285.058594"/>
     <use xlink:href="#Roboto-Regular-73" x="338.085938"/>
    </g>
   </g>
   <g id="line2d_45">
    <defs>
     <path id="m65f229c351" d="M 0 -3  L -0.673542 -0.927051  L -2.85317 -0.927051  L -1.089814 0.354102  L -1.763356 2.427051  L -0 1.145898  L 1.763356 2.427051  L 1.089814 0.354102  L 2.85317 -0.927051  L 0.673542 -0.927051  z " style="stroke: #ffffff; stroke-linejoin: bevel"/>
    </defs>
    <g>
     <use xlink:href="#m65f229c351" x="526.17289" y="118.921406" style="fill-opacity: 0; stroke: #ffffff; stroke-linejoin: bevel"/>
    </g>
   </g>
   <g id="text_17">
    <!-- hydrogels -->
    <g style="fill: #ffffff" transform="translate(545.97289 122.771406) scale(0.11 -0.11)">
     <defs>
      <path id="Roboto-Regular-68" d="M 1844 2956  Q 1566 2956 1353 2806  Q 1141 2656 1019 2416  L 1019 0  L 441 0  L 441 4800  L 1019 4800  L 1019 2978  Q 1403 3444 2016 3444  Q 2513 3444 2805 3166  Q 3097 2888 3100 2231  L 3100 0  L 2519 0  L 2519 2222  Q 2519 2619 2345 2787  Q 2172 2956 1844 2956  z " transform="scale(0.015625)"/>
     </defs>
     <use xlink:href="#Roboto-Regular-68"/>
     <use xlink:href="#Roboto-Regular-79" x="55.078125"/>
     <use xlink:href="#Roboto-Regular-64" x="102.392578"/>
     <use xlink:href="#Roboto-Regular-72" x="158.789062"/>
     <use xlink:href="#Roboto-Regular-6f" x="192.675781"/>
     <use xlink:href="#Roboto-Regular-67" x="249.707031"/>
     <use xlink:href="#Roboto-Regular-65" x="305.859375"/>
     <use xlink:href="#Roboto-Regular-6c" x="358.886719"/>
     <use xlink:href="#Roboto-Regular-73" x="383.203125"/>
    </g>
   </g>
   <g id="line2d_46">
    <defs>
     <path id="m5e70e465d9" d="M -0 4.242641  L 4.242641 0  L 0 -4.242641  L -4.242641 -0  z " style="stroke: #ffffff; stroke-linejoin: miter"/>
    </defs>
    <g>
     <use xlink:href="#m5e70e465d9" x="526.17289" y="135.019219" style="fill-opacity: 0; stroke: #ffffff; stroke-linejoin: miter"/>
    </g>
   </g>
   <g id="text_18">
    <!-- PMMA -->
    <g style="fill: #ffffff" transform="translate(545.97289 138.869219) scale(0.11 -0.11)">
     <use xlink:href="#Roboto-Regular-50"/>
     <use xlink:href="#Roboto-Regular-4d" x="63.085938"/>
     <use xlink:href="#Roboto-Regular-4d" x="150.390625"/>
     <use xlink:href="#Roboto-Regular-41" x="237.695312"/>
    </g>
   </g>
   <g id="line2d_47">
    <defs>
     <path id="m4335b94f37" d="M -3 3  L 3 3  L 3 -3  L -3 -3  z " style="stroke: #ffffff; stroke-linejoin: miter"/>
    </defs>
    <g>
     <use xlink:href="#m4335b94f37" x="526.17289" y="151.003594" style="fill-opacity: 0; stroke: #ffffff; stroke-linejoin: miter"/>
    </g>
   </g>
   <g id="text_19">
    <!-- simulations -->
    <g style="fill: #ffffff" transform="translate(545.97289 154.853594) scale(0.11 -0.11)">
     <use xlink:href="#Roboto-Regular-73"/>
     <use xlink:href="#Roboto-Regular-69" x="51.611328"/>
     <use xlink:href="#Roboto-Regular-6d" x="75.927734"/>
     <use xlink:href="#Roboto-Regular-75" x="163.623047"/>
     <use xlink:href="#Roboto-Regular-6c" x="218.75"/>
     <use xlink:href="#Roboto-Regular-61" x="243.066406"/>
     <use xlink:href="#Roboto-Regular-74" x="297.460938"/>
     <use xlink:href="#Roboto-Regular-69" x="330.175781"/>
     <use xlink:href="#Roboto-Regular-6f" x="354.492188"/>
     <use xlink:href="#Roboto-Regular-6e" x="411.523438"/>
     <use xlink:href="#Roboto-Regular-73" x="466.748047"/>
    </g>
   </g>
   <g id="line2d_48">
    <defs>
     <path id="mebfd26107b" d="M 0 3  C 0.795609 3 1.55874 2.683901 2.12132 2.12132  C 2.683901 1.55874 3 0.795609 3 0  C 3 -0.795609 2.683901 -1.55874 2.12132 -2.12132  C 1.55874 -2.683901 0.795609 -3 0 -3  C -0.795609 -3 -1.55874 -2.683901 -2.12132 -2.12132  C -2.683901 -1.55874 -3 -0.795609 -3 0  C -3 0.795609 -2.683901 1.55874 -2.12132 2.12132  C -1.55874 2.683901 -0.795609 3 0 3  z " style="stroke: #ffffff"/>
    </defs>
    <g>
     <use xlink:href="#mebfd26107b" x="526.17289" y="166.987969" style="fill-opacity: 0; stroke: #ffffff"/>
    </g>
   </g>
   <g id="text_20">
    <!-- glass beads -->
    <g style="fill: #ffffff" transform="translate(545.97289 170.837969) scale(0.11 -0.11)">
     <use xlink:href="#Roboto-Regular-67"/>
     <use xlink:href="#Roboto-Regular-6c" x="56.152344"/>
     <use xlink:href="#Roboto-Regular-61" x="80.46875"/>
     <use xlink:href="#Roboto-Regular-73" x="134.863281"/>
     <use xlink:href="#Roboto-Regular-73" x="186.474609"/>
     <use xlink:href="#Roboto-Regular-20" x="238.085938"/>
     <use xlink:href="#Roboto-Regular-62" x="262.890625"/>
     <use xlink:href="#Roboto-Regular-65" x="319.042969"/>
     <use xlink:href="#Roboto-Regular-61" x="372.070312"/>
     <use xlink:href="#Roboto-Regular-64" x="426.464844"/>
     <use xlink:href="#Roboto-Regular-73" x="482.861328"/>
    </g>
   </g>
   <g id="line2d_49">
    <defs>
     <path id="m6a381b48e3" d="M -1.5 3  L 0 1.5  L 1.5 3  L 3 1.5  L 1.5 0  L 3 -1.5  L 1.5 -3  L 0 -1.5  L -1.5 -3  L -3 -1.5  L -1.5 0  L -3 1.5  z " style="stroke: #ffffff; stroke-linejoin: miter"/>
    </defs>
    <g>
     <use xlink:href="#m6a381b48e3" x="526.17289" y="183.030781" style="fill-opacity: 0; stroke: #ffffff; stroke-linejoin: miter"/>
    </g>
   </g>
   <g id="text_21">
    <!-- polystyren beads -->
    <g style="fill: #ffffff" transform="translate(545.97289 186.880781) scale(0.11 -0.11)">
     <use xlink:href="#Roboto-Regular-70"/>
     <use xlink:href="#Roboto-Regular-6f" x="56.152344"/>
     <use xlink:href="#Roboto-Regular-6c" x="113.183594"/>
     <use xlink:href="#Roboto-Regular-79" x="137.5"/>
     <use xlink:href="#Roboto-Regular-73" x="184.814453"/>
     <use xlink:href="#Roboto-Regular-74" x="236.425781"/>
     <use xlink:href="#Roboto-Regular-79" x="269.140625"/>
     <use xlink:href="#Roboto-Regular-72" x="316.455078"/>
     <use xlink:href="#Roboto-Regular-65" x="350.341797"/>
     <use xlink:href="#Roboto-Regular-6e" x="403.369141"/>
     <use xlink:href="#Roboto-Regular-20" x="458.59375"/>
     <use xlink:href="#Roboto-Regular-62" x="483.398438"/>
     <use xlink:href="#Roboto-Regular-65" x="539.550781"/>
     <use xlink:href="#Roboto-Regular-61" x="592.578125"/>
     <use xlink:href="#Roboto-Regular-64" x="646.972656"/>
     <use xlink:href="#Roboto-Regular-73" x="703.369141"/>
    </g>
   </g>
   <g id="line2d_50">
    <defs>
     <path id="mdb730e4f4f" d="M 0 -3  L -2.598076 -1.5  L -2.598076 1.5  L -0 3  L 2.598076 1.5  L 2.598076 -1.5  z " style="stroke: #ffffff; stroke-linejoin: miter"/>
    </defs>
    <g>
     <use xlink:href="#mdb730e4f4f" x="526.17289" y="199.128594" style="fill-opacity: 0; stroke: #ffffff; stroke-linejoin: miter"/>
    </g>
   </g>
   <g id="text_22">
    <!-- silica sand -->
    <g style="fill: #ffffff" transform="translate(545.97289 202.978594) scale(0.11 -0.11)">
     <use xlink:href="#Roboto-Regular-73"/>
     <use xlink:href="#Roboto-Regular-69" x="51.611328"/>
     <use xlink:href="#Roboto-Regular-6c" x="75.927734"/>
     <use xlink:href="#Roboto-Regular-69" x="100.244141"/>
     <use xlink:href="#Roboto-Regular-63" x="124.560547"/>
     <use xlink:href="#Roboto-Regular-61" x="176.904297"/>
     <use xlink:href="#Roboto-Regular-20" x="231.298828"/>
     <use xlink:href="#Roboto-Regular-73" x="256.103516"/>
     <use xlink:href="#Roboto-Regular-61" x="307.714844"/>
     <use xlink:href="#Roboto-Regular-6e" x="362.109375"/>
     <use xlink:href="#Roboto-Regular-64" x="417.333984"/>
    </g>
   </g>
  </g>
 </g>
 <defs>
  <clipPath id="pf9c842db0a">
   <rect x="46.118521" y="0.036" width="452.573649" height="135.818625"/>
  </clipPath>
 </defs>
</svg>
