<?xml version='1.0' encoding='ASCII' standalone='yes'?>
<svg xmlns:xlink="http://www.w3.org/1999/xlink" xmlns="http://www.w3.org/2000/svg" width="589.773388pt" height="607.5pt" viewBox="0 0 294.886694 303.75" version="1.1">
 <metadata>
  <rdf:RDF xmlns:dc="http://purl.org/dc/elements/1.1/" xmlns:cc="http://creativecommons.org/ns#" xmlns:rdf="http://www.w3.org/1999/02/22-rdf-syntax-ns#">
   <cc:Work>
    <dc:type rdf:resource="http://purl.org/dc/dcmitype/StillImage"/>
    <dc:date>2023-11-27T17:32:17.437804</dc:date>
    <dc:format>image/svg+xml</dc:format>
    <dc:creator>
     <cc:Agent>
      <dc:title>Matplotlib v3.8.0, https://matplotlib.org/</dc:title>
     </cc:Agent>
    </dc:creator>
   </cc:Work>
  </rdf:RDF>
 </metadata>
 <defs>
  <style type="text/css">*{stroke-linejoin: round; stroke-linecap: butt}</style>
 </defs>
 <g id="figure_1">
  <g id="patch_1">
   <path d="M 0 303.75  L 294.886694 303.75  L 294.886694 0  L 0 0  z " style="fill: #191919"/>
  </g>
  <g id="axes_1">
   <g id="patch_2">
    <path d="M 36.849303 268.78101  L 291.886454 268.78101  L 291.886454 3.00024  L 36.849303 3.00024  z " style="fill: #191919"/>
   </g>
   <g id="matplotlib.axis_1">
    <g id="xtick_1">
     <g id="line2d_1">
      <defs>
       <path id="m29a83e46f6" d="M 0 0  L 0 3.5  " style="stroke: #ffffff; stroke-width: 0.8"/>
      </defs>
      <g>
       <use xlink:href="#m29a83e46f6" x="55.821214" y="268.78101" style="fill: #ffffff; stroke: #ffffff; stroke-width: 0.8"/>
      </g>
     </g>
     <g id="text_1">
      <!-- 0 -->
      <g style="fill: #ffffff" transform="translate(52.730042 284.03101) scale(0.11 -0.11)">
       <defs>
        <path id="Roboto-Regular-30" d="M 3234 1944  Q 3234 825 2848 381  Q 2463 -63 1800 -63  Q 1156 -63 764 368  Q 372 800 359 1872  L 359 2638  Q 359 3753 750 4183  Q 1141 4613 1794 4613  Q 2447 4613 2834 4195  Q 3222 3778 3234 2709  L 3234 1944  z M 2653 2734  Q 2653 3503 2434 3822  Q 2216 4141 1794 4141  Q 1388 4141 1167 3831  Q 947 3522 941 2778  L 941 1850  Q 941 1088 1164 750  Q 1388 413 1800 413  Q 2222 413 2436 745  Q 2650 1078 2653 1825  L 2653 2734  z " transform="scale(0.015625)"/>
       </defs>
       <use xlink:href="#Roboto-Regular-30"/>
      </g>
     </g>
    </g>
    <g id="xtick_2">
     <g id="line2d_2">
      <g>
       <use xlink:href="#m29a83e46f6" x="95.33148" y="268.78101" style="fill: #ffffff; stroke: #ffffff; stroke-width: 0.8"/>
      </g>
     </g>
     <g id="text_2">
      <!-- 5 -->
      <g style="fill: #ffffff" transform="translate(92.240308 284.03101) scale(0.11 -0.11)">
       <defs>
        <path id="Roboto-Regular-35" d="M 1109 2166  L 647 2284  L 875 4550  L 3209 4550  L 3209 4016  L 1366 4016  L 1228 2778  Q 1572 2975 1988 2975  Q 2616 2975 2980 2561  Q 3344 2147 3344 1450  Q 3344 797 2987 367  Q 2631 -63 1903 -63  Q 1350 -63 947 248  Q 544 559 481 1197  L 1031 1197  Q 1141 413 1903 413  Q 2313 413 2538 691  Q 2763 969 2763 1444  Q 2763 1872 2527 2164  Q 2291 2456 1853 2456  Q 1563 2456 1413 2378  Q 1263 2300 1109 2166  z " transform="scale(0.015625)"/>
       </defs>
       <use xlink:href="#Roboto-Regular-35"/>
      </g>
     </g>
    </g>
    <g id="xtick_3">
     <g id="line2d_3">
      <g>
       <use xlink:href="#m29a83e46f6" x="134.841746" y="268.78101" style="fill: #ffffff; stroke: #ffffff; stroke-width: 0.8"/>
      </g>
     </g>
     <g id="text_3">
      <!-- 10 -->
      <g style="fill: #ffffff" transform="translate(128.659403 284.03101) scale(0.11 -0.11)">
       <defs>
        <path id="Roboto-Regular-31" d="M 2278 4575  L 2278 0  L 1700 0  L 1700 3853  L 534 3428  L 534 3950  L 2188 4575  L 2278 4575  z " transform="scale(0.015625)"/>
       </defs>
       <use xlink:href="#Roboto-Regular-31"/>
       <use xlink:href="#Roboto-Regular-30" x="56.201172"/>
      </g>
     </g>
    </g>
    <g id="xtick_4">
     <g id="line2d_4">
      <g>
       <use xlink:href="#m29a83e46f6" x="174.352012" y="268.78101" style="fill: #ffffff; stroke: #ffffff; stroke-width: 0.8"/>
      </g>
     </g>
     <g id="text_4">
      <!-- 15 -->
      <g style="fill: #ffffff" transform="translate(168.169669 284.03101) scale(0.11 -0.11)">
       <use xlink:href="#Roboto-Regular-31"/>
       <use xlink:href="#Roboto-Regular-35" x="56.201172"/>
      </g>
     </g>
    </g>
    <g id="xtick_5">
     <g id="line2d_5">
      <g>
       <use xlink:href="#m29a83e46f6" x="213.862279" y="268.78101" style="fill: #ffffff; stroke: #ffffff; stroke-width: 0.8"/>
      </g>
     </g>
     <g id="text_5">
      <!-- 20 -->
      <g style="fill: #ffffff" transform="translate(207.679935 284.03101) scale(0.11 -0.11)">
       <defs>
        <path id="Roboto-Regular-32" d="M 3359 475  L 3359 0  L 381 0  L 381 416  L 1925 2134  Q 2306 2566 2439 2819  Q 2572 3072 2572 3328  Q 2572 3663 2364 3900  Q 2156 4138 1778 4138  Q 1322 4138 1097 3878  Q 872 3619 872 3213  L 294 3213  Q 294 3788 672 4200  Q 1050 4613 1778 4613  Q 2422 4613 2786 4278  Q 3150 3944 3150 3397  Q 3150 2997 2903 2592  Q 2656 2188 2297 1797  L 1078 475  L 3359 475  z " transform="scale(0.015625)"/>
       </defs>
       <use xlink:href="#Roboto-Regular-32"/>
       <use xlink:href="#Roboto-Regular-30" x="56.201172"/>
      </g>
     </g>
    </g>
    <g id="xtick_6">
     <g id="line2d_6">
      <g>
       <use xlink:href="#m29a83e46f6" x="253.372545" y="268.78101" style="fill: #ffffff; stroke: #ffffff; stroke-width: 0.8"/>
      </g>
     </g>
     <g id="text_6">
      <!-- 25 -->
      <g style="fill: #ffffff" transform="translate(247.190201 284.03101) scale(0.11 -0.11)">
       <use xlink:href="#Roboto-Regular-32"/>
       <use xlink:href="#Roboto-Regular-35" x="56.201172"/>
      </g>
     </g>
    </g>
    <g id="text_7">
     <!-- Time, $t/t_{0}$ -->
     <g style="fill: #ffffff" transform="translate(142.807878 298.515385) scale(0.11 -0.11)">
      <defs>
       <path id="Roboto-Regular-54" d="M 156 4056  L 156 4550  L 3672 4550  L 3672 4056  L 2209 4056  L 2209 0  L 1616 0  L 1616 4056  L 156 4056  z " transform="scale(0.015625)"/>
       <path id="Roboto-Regular-69" d="M 444 4278  Q 444 4419 530 4516  Q 616 4613 784 4613  Q 950 4613 1039 4516  Q 1128 4419 1128 4278  Q 1128 4144 1039 4048  Q 950 3953 784 3953  Q 616 3953 530 4048  Q 444 4144 444 4278  z M 1069 3381  L 1069 0  L 488 0  L 488 3381  L 1069 3381  z " transform="scale(0.015625)"/>
       <path id="Roboto-Regular-6d" d="M 1794 2956  Q 1225 2956 1016 2478  L 1016 0  L 434 0  L 434 3381  L 984 3381  L 1000 3013  Q 1366 3444 2000 3444  Q 2325 3444 2579 3314  Q 2834 3184 2969 2900  Q 3138 3144 3408 3294  Q 3678 3444 4044 3444  Q 4588 3444 4883 3153  Q 5178 2863 5178 2222  L 5178 0  L 4597 0  L 4597 2228  Q 4597 2653 4401 2804  Q 4206 2956 3875 2956  Q 3525 2956 3325 2748  Q 3125 2541 3094 2244  L 3094 0  L 2516 0  L 2516 2225  Q 2516 2622 2319 2789  Q 2122 2956 1794 2956  z " transform="scale(0.015625)"/>
       <path id="Roboto-Regular-65" d="M 3116 591  Q 2950 341 2647 139  Q 2344 -63 1844 -63  Q 1138 -63 714 396  Q 291 856 291 1572  L 291 1703  Q 291 2256 502 2645  Q 713 3034 1050 3239  Q 1388 3444 1769 3444  Q 2494 3444 2826 2970  Q 3159 2497 3159 1788  L 3159 1528  L 872 1528  Q 884 1063 1148 736  Q 1413 409 1875 409  Q 2181 409 2393 534  Q 2606 659 2766 869  L 3116 591  z M 1769 2969  Q 1425 2969 1187 2719  Q 950 2469 891 2000  L 2581 2000  L 2581 2044  Q 2559 2381 2386 2675  Q 2213 2969 1769 2969  z " transform="scale(0.015625)"/>
       <path id="Roboto-Regular-2c" d="M 966 688  L 966 222  Q 966 -63 822 -380  Q 678 -697 419 -909  L 91 -681  Q 391 -263 400 175  L 400 688  L 966 688  z " transform="scale(0.015625)"/>
       <path id="Roboto-Regular-20" transform="scale(0.015625)"/>
       <path id="STIXGeneral-Italic-74" d="M 1894 2739  L 1862 2534  L 1325 2534  L 768 435  Q 755 384 755 346  Q 755 243 851 243  Q 928 243 1030 342  Q 1133 442 1370 749  L 1453 704  Q 1158 256 969 93  Q 781 -70 538 -70  Q 243 -70 243 166  Q 243 230 346 640  L 845 2534  L 365 2534  L 358 2573  Q 358 2688 570 2733  Q 730 2771 992 2979  Q 1254 3187 1421 3437  Q 1459 3494 1510 3494  Q 1568 3494 1568 3443  Q 1568 3411 1562 3398  L 1382 2739  L 1894 2739  z " transform="scale(0.015625)"/>
       <path id="STIXGeneral-Regular-2f" d="M 1837 4326  L 378 -90  L -58 -90  L 1408 4326  L 1837 4326  z " transform="scale(0.015625)"/>
       <path id="STIXGeneral-Regular-30" d="M 3046 2112  Q 3046 1683 2963 1302  Q 2880 922 2717 602  Q 2554 282 2266 96  Q 1978 -90 1600 -90  Q 1210 -90 915 108  Q 621 307 461 640  Q 301 973 227 1350  Q 154 1728 154 2150  Q 154 2746 301 3222  Q 448 3699 790 4012  Q 1133 4326 1626 4326  Q 2253 4326 2649 3712  Q 3046 3098 3046 2112  z M 2432 2080  Q 2432 3091 2217 3625  Q 2003 4160 1587 4160  Q 1190 4160 979 3622  Q 768 3085 768 2106  Q 768 1120 979 598  Q 1190 77 1600 77  Q 2003 77 2217 598  Q 2432 1120 2432 2080  z " transform="scale(0.015625)"/>
      </defs>
      <use xlink:href="#Roboto-Regular-54" transform="translate(0 0.921875)"/>
      <use xlink:href="#Roboto-Regular-69" transform="translate(59.667969 0.921875)"/>
      <use xlink:href="#Roboto-Regular-6d" transform="translate(83.984375 0.921875)"/>
      <use xlink:href="#Roboto-Regular-65" transform="translate(171.679688 0.921875)"/>
      <use xlink:href="#Roboto-Regular-2c" transform="translate(224.707031 0.921875)"/>
      <use xlink:href="#Roboto-Regular-20" transform="translate(244.384766 0.921875)"/>
      <use xlink:href="#STIXGeneral-Italic-74" transform="translate(269.189453 0.921875)"/>
      <use xlink:href="#STIXGeneral-Regular-2f" transform="translate(296.989441 0.921875)"/>
      <use xlink:href="#STIXGeneral-Italic-74" transform="translate(324.789429 0.921875)"/>
      <use xlink:href="#STIXGeneral-Regular-30" transform="translate(352.589417 -12.30625) scale(0.7)"/>
     </g>
    </g>
   </g>
   <g id="matplotlib.axis_2">
    <g id="ytick_1">
     <g id="line2d_7">
      <defs>
       <path id="m005e81f9c2" d="M 0 0  L -3.5 0  " style="stroke: #ffffff; stroke-width: 0.8"/>
      </defs>
      <g>
       <use xlink:href="#m005e81f9c2" x="36.849303" y="257.49624" style="fill: #ffffff; stroke: #ffffff; stroke-width: 0.8"/>
      </g>
     </g>
     <g id="text_8">
      <!-- 0 -->
      <g style="fill: #ffffff" transform="translate(23.666959 261.62124) scale(0.11 -0.11)">
       <use xlink:href="#Roboto-Regular-30"/>
      </g>
     </g>
    </g>
    <g id="ytick_2">
     <g id="line2d_8">
      <g>
       <use xlink:href="#m005e81f9c2" x="36.849303" y="210.657511" style="fill: #ffffff; stroke: #ffffff; stroke-width: 0.8"/>
      </g>
     </g>
     <g id="text_9">
      <!-- 2 -->
      <g style="fill: #ffffff" transform="translate(23.666959 214.782511) scale(0.11 -0.11)">
       <use xlink:href="#Roboto-Regular-32"/>
      </g>
     </g>
    </g>
    <g id="ytick_3">
     <g id="line2d_9">
      <g>
       <use xlink:href="#m005e81f9c2" x="36.849303" y="163.818782" style="fill: #ffffff; stroke: #ffffff; stroke-width: 0.8"/>
      </g>
     </g>
     <g id="text_10">
      <!-- 4 -->
      <g style="fill: #ffffff" transform="translate(23.666959 167.943782) scale(0.11 -0.11)">
       <defs>
        <path id="Roboto-Regular-34" d="M 166 1397  L 2203 4550  L 2819 4550  L 2819 1531  L 3453 1531  L 3453 1056  L 2819 1056  L 2819 0  L 2241 0  L 2241 1056  L 166 1056  L 166 1397  z M 822 1531  L 2241 1531  L 2241 3766  L 2169 3638  L 822 1531  z " transform="scale(0.015625)"/>
       </defs>
       <use xlink:href="#Roboto-Regular-34"/>
      </g>
     </g>
    </g>
    <g id="ytick_4">
     <g id="line2d_10">
      <g>
       <use xlink:href="#m005e81f9c2" x="36.849303" y="116.980054" style="fill: #ffffff; stroke: #ffffff; stroke-width: 0.8"/>
      </g>
     </g>
     <g id="text_11">
      <!-- 6 -->
      <g style="fill: #ffffff" transform="translate(23.666959 121.105054) scale(0.11 -0.11)">
       <defs>
        <path id="Roboto-Regular-36" d="M 3291 1484  Q 3291 838 2930 387  Q 2569 -63 1878 -63  Q 1388 -63 1063 198  Q 738 459 577 861  Q 416 1263 416 1684  L 416 1956  Q 416 2597 595 3194  Q 775 3791 1247 4173  Q 1719 4556 2597 4556  L 2647 4556  L 2647 4066  Q 2041 4066 1705 3853  Q 1369 3641 1205 3302  Q 1041 2963 1006 2575  Q 1369 2984 1984 2984  Q 2438 2984 2727 2765  Q 3016 2547 3153 2201  Q 3291 1856 3291 1484  z M 997 1666  Q 997 1059 1267 737  Q 1538 416 1878 416  Q 2278 416 2498 708  Q 2719 1000 2719 1456  Q 2719 1863 2516 2184  Q 2313 2506 1891 2506  Q 1588 2506 1341 2325  Q 1094 2144 997 1884  L 997 1666  z " transform="scale(0.015625)"/>
       </defs>
       <use xlink:href="#Roboto-Regular-36"/>
      </g>
     </g>
    </g>
    <g id="ytick_5">
     <g id="line2d_11">
      <g>
       <use xlink:href="#m005e81f9c2" x="36.849303" y="70.141325" style="fill: #ffffff; stroke: #ffffff; stroke-width: 0.8"/>
      </g>
     </g>
     <g id="text_12">
      <!-- 8 -->
      <g style="fill: #ffffff" transform="translate(23.666959 74.266325) scale(0.11 -0.11)">
       <defs>
        <path id="Roboto-Regular-38" d="M 3244 1231  Q 3244 606 2826 271  Q 2409 -63 1796 -63  Q 1184 -63 767 271  Q 350 606 350 1231  Q 350 1613 554 1905  Q 759 2197 1109 2347  Q 806 2494 629 2762  Q 453 3031 453 3366  Q 453 3963 833 4288  Q 1213 4613 1794 4613  Q 2378 4613 2758 4288  Q 3138 3963 3138 3366  Q 3138 3028 2956 2761  Q 2775 2494 2472 2347  Q 2825 2197 3034 1903  Q 3244 1609 3244 1231  z M 2559 3356  Q 2559 3697 2346 3917  Q 2134 4138 1793 4138  Q 1453 4138 1243 3927  Q 1034 3716 1034 3356  Q 1034 3003 1243 2790  Q 1453 2578 1797 2578  Q 2138 2578 2348 2790  Q 2559 3003 2559 3356  z M 2663 1244  Q 2663 1625 2420 1865  Q 2178 2106 1791 2106  Q 1394 2106 1161 1865  Q 928 1625 928 1244  Q 928 850 1161 631  Q 1394 413 1797 413  Q 2200 413 2431 631  Q 2663 850 2663 1244  z " transform="scale(0.015625)"/>
       </defs>
       <use xlink:href="#Roboto-Regular-38"/>
      </g>
     </g>
    </g>
    <g id="ytick_6">
     <g id="line2d_12">
      <g>
       <use xlink:href="#m005e81f9c2" x="36.849303" y="23.302596" style="fill: #ffffff; stroke: #ffffff; stroke-width: 0.8"/>
      </g>
     </g>
     <g id="text_13">
      <!-- 10 -->
      <g style="fill: #ffffff" transform="translate(17.484615 27.427596) scale(0.11 -0.11)">
       <use xlink:href="#Roboto-Regular-31"/>
       <use xlink:href="#Roboto-Regular-30" x="56.201172"/>
      </g>
     </g>
    </g>
    <g id="text_14">
     <!-- Front position, $x_{\rm f}/l_{0}$ -->
     <g style="fill: #ffffff" transform="translate(11.174615 181.485625) rotate(-90) scale(0.11 -0.11)">
      <defs>
       <path id="Roboto-Regular-46" d="M 528 0  L 528 4550  L 3347 4550  L 3347 4056  L 1131 4056  L 1131 2503  L 3038 2503  L 3038 2009  L 1131 2009  L 1131 0  L 528 0  z " transform="scale(0.015625)"/>
       <path id="Roboto-Regular-72" d="M 1791 2888  Q 1225 2888 1019 2400  L 1019 0  L 441 0  L 441 3381  L 1003 3381  L 1016 2994  Q 1294 3444 1819 3444  Q 1981 3444 2075 3400  L 2072 2863  Q 1944 2888 1791 2888  z " transform="scale(0.015625)"/>
       <path id="Roboto-Regular-6f" d="M 288 1725  Q 288 2459 700 2951  Q 1113 3444 1822 3444  Q 2531 3444 2943 2961  Q 3356 2478 3366 1756  L 3366 1653  Q 3366 919 2952 428  Q 2538 -63 1828 -63  Q 1116 -63 702 428  Q 288 919 288 1653  L 288 1725  z M 866 1653  Q 866 1150 1105 781  Q 1344 413 1828 413  Q 2300 413 2540 777  Q 2781 1141 2784 1644  L 2784 1725  Q 2784 2222 2543 2595  Q 2303 2969 1822 2969  Q 1344 2969 1105 2595  Q 866 2222 866 1725  L 866 1653  z " transform="scale(0.015625)"/>
       <path id="Roboto-Regular-6e" d="M 1844 2956  Q 1566 2956 1353 2806  Q 1141 2656 1019 2416  L 1019 0  L 441 0  L 441 3381  L 988 3381  L 1006 2959  Q 1391 3444 2016 3444  Q 2513 3444 2805 3166  Q 3097 2888 3100 2231  L 3100 0  L 2519 0  L 2519 2222  Q 2519 2619 2345 2787  Q 2172 2956 1844 2956  z " transform="scale(0.015625)"/>
       <path id="Roboto-Regular-74" d="M 1872 0  Q 1675 -63 1425 -63  Q 1103 -63 875 134  Q 647 331 647 841  L 647 2938  L 28 2938  L 28 3381  L 647 3381  L 647 4203  L 1225 4203  L 1225 3381  L 1856 3381  L 1856 2938  L 1225 2938  L 1225 838  Q 1225 578 1337 506  Q 1450 434 1597 434  Q 1706 434 1869 472  L 1872 0  z " transform="scale(0.015625)"/>
       <path id="Roboto-Regular-70" d="M 1984 -63  Q 1375 -63 1019 328  L 1019 -1300  L 438 -1300  L 438 3381  L 969 3381  L 997 3009  Q 1353 3444 1975 3444  Q 2616 3444 2956 2969  Q 3297 2494 3297 1719  L 3297 1653  Q 3297 913 2955 425  Q 2613 -63 1984 -63  z M 1806 2956  Q 1281 2956 1019 2491  L 1019 872  Q 1284 413 1813 413  Q 2281 413 2498 781  Q 2716 1150 2716 1653  L 2716 1719  Q 2716 2222 2498 2589  Q 2281 2956 1806 2956  z " transform="scale(0.015625)"/>
       <path id="Roboto-Regular-73" d="M 2409 897  Q 2409 1081 2273 1229  Q 2138 1378 1647 1478  Q 1081 1594 747 1814  Q 413 2034 413 2456  Q 413 2856 755 3150  Q 1097 3444 1666 3444  Q 2272 3444 2612 3134  Q 2953 2825 2953 2388  L 2375 2388  Q 2375 2597 2190 2783  Q 2006 2969 1666 2969  Q 1306 2969 1150 2812  Q 994 2656 994 2472  Q 994 2288 1139 2173  Q 1284 2059 1756 1953  Q 2378 1813 2683 1584  Q 2988 1356 2988 941  Q 2988 494 2630 215  Q 2272 -63 1681 -63  Q 1009 -63 653 281  Q 297 625 297 1044  L 878 1044  Q 897 684 1155 548  Q 1413 413 1681 413  Q 2034 413 2221 550  Q 2409 688 2409 897  z " transform="scale(0.015625)"/>
       <path id="STIXGeneral-Italic-78" d="M 1555 2272  L 1632 1907  Q 1971 2426 2179 2624  Q 2387 2822 2598 2822  Q 2714 2822 2787 2755  Q 2861 2688 2861 2585  Q 2861 2483 2800 2419  Q 2739 2355 2643 2355  Q 2586 2355 2490 2409  Q 2394 2464 2310 2464  Q 2125 2464 1683 1690  Q 1683 1606 1734 1402  L 1939 544  Q 2003 282 2131 282  Q 2234 282 2432 538  Q 2451 563 2476 598  Q 2502 634 2521 662  Q 2541 691 2566 717  L 2662 659  Q 2387 230 2227 80  Q 2067 -70 1882 -70  Q 1728 -70 1645 26  Q 1562 122 1504 365  L 1318 1126  L 755 365  Q 557 96 432 13  Q 307 -70 147 -70  Q 0 -70 -86 0  Q -173 70 -173 198  Q -173 294 -112 361  Q -51 429 45 429  Q 122 429 250 358  Q 346 301 416 301  Q 525 301 742 614  L 1267 1357  L 1088 2150  Q 1024 2432 969 2509  Q 915 2586 794 2586  Q 717 2586 544 2541  L 429 2509  L 410 2611  L 480 2637  Q 992 2822 1229 2822  Q 1350 2822 1420 2707  Q 1491 2592 1555 2272  z " transform="scale(0.015625)"/>
       <path id="STIXGeneral-Regular-66" d="M 134 2880  L 659 2880  Q 666 3264 710 3478  Q 755 3693 883 3910  Q 1152 4371 1786 4371  Q 2074 4371 2262 4259  Q 2451 4147 2451 3974  Q 2451 3866 2374 3789  Q 2298 3712 2182 3712  Q 2029 3712 1894 3942  Q 1741 4192 1555 4192  Q 1197 4192 1197 3622  L 1197 2880  L 1978 2880  L 1978 2675  L 1197 2675  L 1197 666  Q 1197 307 1299 208  Q 1402 109 1792 96  L 1792 0  L 128 0  L 128 96  Q 474 115 566 214  Q 659 314 659 666  L 659 2675  L 134 2675  L 134 2880  z " transform="scale(0.015625)"/>
       <path id="STIXGeneral-Italic-6c" d="M 1786 4339  L 806 595  Q 755 410 755 320  Q 755 205 864 205  Q 1037 205 1293 570  L 1453 794  L 1542 730  Q 1254 275 1046 102  Q 838 -70 576 -70  Q 262 -70 262 288  Q 262 397 288 480  L 1165 3834  Q 1184 3898 1184 3955  Q 1184 4096 870 4096  L 755 4096  L 755 4198  Q 1203 4250 1747 4371  L 1786 4339  z " transform="scale(0.015625)"/>
      </defs>
      <use xlink:href="#Roboto-Regular-46" transform="translate(0 0.921875)"/>
      <use xlink:href="#Roboto-Regular-72" transform="translate(55.273438 0.921875)"/>
      <use xlink:href="#Roboto-Regular-6f" transform="translate(89.160156 0.921875)"/>
      <use xlink:href="#Roboto-Regular-6e" transform="translate(146.191406 0.921875)"/>
      <use xlink:href="#Roboto-Regular-74" transform="translate(201.416016 0.921875)"/>
      <use xlink:href="#Roboto-Regular-20" transform="translate(234.130859 0.921875)"/>
      <use xlink:href="#Roboto-Regular-70" transform="translate(258.935547 0.921875)"/>
      <use xlink:href="#Roboto-Regular-6f" transform="translate(315.087891 0.921875)"/>
      <use xlink:href="#Roboto-Regular-73" transform="translate(372.119141 0.921875)"/>
      <use xlink:href="#Roboto-Regular-69" transform="translate(423.730469 0.921875)"/>
      <use xlink:href="#Roboto-Regular-74" transform="translate(448.046875 0.921875)"/>
      <use xlink:href="#Roboto-Regular-69" transform="translate(480.761719 0.921875)"/>
      <use xlink:href="#Roboto-Regular-6f" transform="translate(505.078125 0.921875)"/>
      <use xlink:href="#Roboto-Regular-6e" transform="translate(562.109375 0.921875)"/>
      <use xlink:href="#Roboto-Regular-2c" transform="translate(617.333984 0.921875)"/>
      <use xlink:href="#Roboto-Regular-20" transform="translate(637.011719 0.921875)"/>
      <use xlink:href="#STIXGeneral-Italic-78" transform="translate(661.816406 0.921875)"/>
      <use xlink:href="#STIXGeneral-Regular-66" transform="translate(706.2164 -12.30625) scale(0.7)"/>
      <use xlink:href="#STIXGeneral-Regular-2f" transform="translate(733.935767 0.921875)"/>
      <use xlink:href="#STIXGeneral-Italic-6c" transform="translate(761.735754 0.921875)"/>
      <use xlink:href="#STIXGeneral-Regular-30" transform="translate(789.535742 -12.30625) scale(0.7)"/>
     </g>
    </g>
   </g>
   <g id="line2d_13">
    <path d="M 79.223065 227.23255  L 79.286255 227.049172  M 79.665395 226.499039  L 79.728585 226.315662  M 80.486866 225.215396  L 80.550056 225.032019  M 82.003428 223.014865  L 82.066618 222.831488  M 84.21508 220.080824  L 84.27827 219.714069  M 85.858022 217.880293  L 85.921212 217.696916  M 86.489922 216.963405  L 86.553112 216.780028  M 97.548184 203.943597  L 97.611374 203.76022  M 98.053705 203.393465  L 98.116895 203.210087  M 100.075787 201.009556  L 100.138977 200.826179  M 100.834067 200.092668  L 100.897258 199.909291  M 101.150018 199.725913  L 101.276398 199.359158  M 102.350629 198.44227  L 102.413819 198.258893  M 104.941422 195.874984  L 105.067802 195.508229  M 106.078843 194.774719  L 106.142033 194.591341  M 107.216264 193.674453  L 107.279454 193.491076  M 188.66826 143.24562  L 188.73145 143.062242  M 199.094621 140.128201  L 199.157811 139.944823  M 208.257181 137.560915  L 208.320371 137.377537  M 280.293857 123.257464  " clip-path="url(#pb46c97c7b1)" style="fill: none; stroke: #8dd3c7; stroke-width: 1.5; stroke-linecap: square"/>
   </g>
   <g id="line2d_14">
    <path d="M 57.474935 255.684944  L 57.719072 255.247048  M 57.84114 255.107718  L 57.902174 254.908675  M 58.268378 254.331448  L 58.329412 252.341014  M 59.550092 251.942927  L 59.611126 251.743883  M 60.2825 251.146753  L 60.343534 250.947709  M 61.625249 248.957274  L 61.686283 248.758231  M 61.930419 248.360144  L 61.991453 248.161101  M 63.944542 244.578318  L 64.005576 244.379274  M 64.310746 243.981187  L 64.37178 243.782144  M 64.921086 242.98597  L 64.98212 242.786927  M 65.104188 242.587883  L 65.165222 242.38884  M 65.531426 241.990753  L 65.653494 241.592666  M 66.324869 240.597448  L 66.446937 240.398405  M 69.742774 234.626144  L 69.925876 234.228057  M 70.170012 233.82997  L 70.231046 233.630926  M 71.146556 232.237622  L 71.20759 232.038579  M 71.390692 231.839535  L 71.573794 231.441448  M 71.756896 231.242405  L 71.817931 231.043361  M 72.062067 230.62537  L 72.123101 230.247187  M 72.672407 229.25197  L 72.733441 229.192257  M 72.977577 228.853883  L 73.099645 228.455796  M 73.221713 228.256752  L 73.282747 228.057709  M 73.526883 227.659622  L 73.587917 227.639718  L 73.648951 227.261535  M 73.832053 227.062492  L 73.893087 226.943065  M 74.137223 226.6445  L 74.198257 226.445457  M 74.320325 226.266318  L 74.442393 225.868231  M 74.869632 225.251196  L 74.9917 224.873013  M 75.418938 224.076839  L 75.663074 223.479709  M 75.785142 223.459805  L 75.968244 222.882578  M 76.700652 221.668413  L 76.944788 221.091187  M 77.066856 220.892144  L 77.188924 220.494057  M 77.43306 220.09597  L 77.555129 219.697883  M 77.738231 219.498839  L 77.982367 218.901709  M 78.104435 218.8619  L 78.287537 218.284674  M 78.409605 218.105535  L 78.470639 218.085631  L 78.714775 217.508404  M 78.836843 217.309361  L 78.897877 217.110318  M 79.264081 216.513187  L 79.325115 216.174813  M 79.569251 215.916057  L 79.813387 215.318926  M 79.935455 215.119883  L 79.996489 215.099978  L 80.057523 214.920839  M 80.179591 214.721796  L 80.240625 214.701891  L 80.60683 213.925622  L 80.667864 213.905717  L 80.789932 213.527535  M 80.912 213.328491  L 80.973034 213.308587  M 81.095102 213.129448  L 81.278204 212.731361  M 81.400272 212.532317  L 81.461306 212.31337  M 81.705442 211.935187  L 81.766476 211.716239  M 82.010612 211.517196  L 82.071646 211.318152  M 82.193714 211.139013  L 82.254748 211.119109  L 82.315782 210.920065  M 82.43785 210.740926  L 82.498884 210.342839  M 82.74302 210.143796  L 82.804054 210.123891  L 82.926122 209.745709  M 83.04819 209.546665  L 83.109224 209.526761  L 83.231292 209.148578  M 83.353361 208.949535  L 83.414395 208.750491  M 83.780599 208.153361  L 83.902667 207.755274  M 84.024735 207.635848  L 84.146803 207.357187  M 84.268871 207.158143  L 84.329905 207.138239  L 84.513007 206.561013  M 84.757143 206.162926  L 84.818177 205.963883  M 85.062313 205.565796  L 85.123347 205.366752  M 85.245415 205.167709  L 85.306449 204.968665  M 85.428517 204.769622  L 85.489551 204.570578  M 85.977823 203.774404  L 86.038857 203.575361  M 86.282994 203.177274  L 86.405062 202.580143  M 86.771266 202.182056  L 86.893334 201.783969  M 87.076436 201.584926  L 87.13747 201.385882  M 87.259538 201.346074  L 87.44264 200.788752  M 87.686776 200.450378  L 87.74781 200.390665  L 87.808844 200.012482  M 87.930912 199.972674  L 88.05298 199.594491  M 88.236082 199.395448  L 88.297116 199.375543  L 88.541252 198.599274  M 88.66332 198.579369  L 88.724354 198.201187  M 89.151593 197.604056  L 89.212627 197.405013  M 89.456763 197.006926  L 89.517797 196.807882  M 90.128137 195.613622  L 90.250205 195.215535  M 90.494341 194.817448  L 90.555375 194.618404  M 90.677443 194.419361  L 90.738477 194.220317  M 90.921579 193.82223  L 90.982613 193.623187  M 91.165715 193.264908  L 91.226749 193.2251  M 91.348817 193.026056  L 91.409851 192.827013  M 91.531919 192.627969  L 91.592953 192.428926  M 91.959158 191.632752  L 92.081226 191.234665  M 92.386396 190.836578  L 92.44743 190.637535  M 92.813634 189.841361  L 92.935702 189.622413  M 93.05777 189.443274  L 93.36294 188.78643  M 93.485008 188.6471  L 93.729144 187.651882  M 93.97328 187.452839  L 94.034314 187.432934  L 94.156382 186.975134  M 94.400518 186.656665  L 94.461552 186.258578  M 94.644654 186.079439  L 94.705689 186.059534  M 94.949825 185.641543  L 95.254995 184.865274  M 95.926369 183.830247  L 95.987403 183.471969  M 96.170505 183.272926  L 96.231539 183.053978  M 96.353607 182.934552  L 96.414641 182.675795  M 96.536709 182.655891  L 96.597743 182.476752  M 96.780845 182.078665  L 96.841879 181.879621  M 97.024981 181.680578  L 97.086015 181.660673  L 97.147049 181.481534  M 97.269117 181.282491  L 97.391185 180.884404  M 97.696356 180.486317  L 97.818424 179.889187  M 98.06256 179.670239  L 98.184628 179.292056  M 99.58841 176.505447  L 99.649444 176.306404  M 100.015648 175.888413  L 100.076682 175.689369  M 100.259784 175.51023  L 100.320818 175.490326  L 100.503921 174.853386  M 100.870125 174.296065  L 100.931159 174.097021  M 101.297363 173.698934  L 101.358397 173.519795  M 101.602533 173.121708  L 101.785635 172.504673  M 102.029771 172.325534  L 102.212873 171.907543  M 102.334941 171.728404  L 102.579077 170.93223  M 102.701145 170.912326  L 103.067349 170.116152  L 103.128383 169.937012  M 103.555622 169.459308  L 103.799758 168.941795  L 103.860792 168.344665  M 105.264574 166.155186  L 105.325608 165.956143  M 105.752846 165.359012  L 105.874914 164.941021  M 106.180085 164.761882  L 106.302153 164.343891  M 106.729391 163.74676  L 106.912493 163.348673  M 107.278697 162.731638  L 107.522833 161.975273  M 107.766969 161.378143  L 107.828003 161.358238  M 108.194207 160.581969  L 108.255241 160.562064  M 108.438343 160.382925  L 108.499377 160.163978  M 108.621445 159.984838  L 108.682479 159.964934  L 108.743513 159.586751  M 108.926615 159.387708  L 108.98765 159.367804  M 109.109718 159.188664  L 109.231786 158.790578  M 109.475922 158.392491  L 109.536956 158.372586  L 109.59799 158.193447  M 109.781092 157.79536  L 109.964194 157.178325  M 110.269364 156.800143  L 110.330398 156.780238  M 110.696602 156.003969  L 110.757636 155.804925  M 111.001772 155.585977  L 111.062806 155.406838  M 111.184874 155.207795  L 111.306942 154.809708  M 111.42901 154.610664  L 111.490044 154.59076  M 111.612112 154.411621  L 111.673146 154.212577  M 111.917283 153.81449  L 111.978317 153.615447  M 112.161419 153.416404  L 112.222453 153.21736  M 112.344521 153.018317  L 112.405555 152.998412  L 112.466589 152.62023  M 112.710725 152.421186  L 112.771759 152.222143  M 112.893827 152.202238  L 113.015895 151.824056  M 113.137963 151.625012  L 113.198997 151.605108  L 113.260031 151.207021  M 113.443133 151.047786  L 113.504167 151.027882  M 113.748303 150.410847  L 113.809337 150.231708  M 114.114507 149.714195  L 114.175541 149.614673  M 114.358643 149.41563  L 114.480711 149.037447  M 114.785882 148.63936  L 114.968984 148.04223  M 115.396222 147.465003  L 115.457256 147.246056  M 115.640358 147.047012  L 115.701392 146.828064  M 115.945528 146.429977  L 116.189664 145.852751  M 116.311732 145.673612  L 116.372766 145.633803  M 116.494834 145.454664  L 116.555868 145.255621  M 116.73897 145.056577  L 116.800004 145.036673  L 116.861038 144.857534  M 116.983106 144.65849  L 117.166208 144.240499  M 117.532413 143.643369  L 117.654481 143.265186  M 118.325855 142.269969  L 118.386889 142.250064  L 118.569991 141.672838  M 118.692059 141.473795  L 118.753093 141.45389  M 119.912739 139.48336  L 119.973773 139.284316  M 120.278943 138.866325  L 120.52308 138.289099  M 120.645148 138.269195  L 120.82825 137.691969  M 121.011352 137.293882  L 121.072386 137.134647  M 121.255488 137.094838  L 121.499624 136.497708  M 121.926862 135.900577  L 122.04893 135.50249  M 122.232032 135.482586  L 122.415134 135.104403  M 122.537202 134.90536  L 122.598236 134.885455  M 122.720304 134.507273  L 122.781338 134.44756  M 122.903406 134.308229  L 122.96444 134.288325  L 123.025474 134.109186  M 123.147542 133.910142  L 123.330645 133.492151  M 123.574781 133.113968  L 123.635815 133.094064  M 123.940985 132.656168  L 124.124087 132.118751  M 124.307189 131.919708  L 124.368223 131.740568  M 124.795461 131.123534  L 124.917529 130.725447  M 125.039597 130.705542  L 125.100631 130.526403  M 125.283733 130.32736  L 125.466835 129.949177  M 125.588903 129.929273  L 125.772005 129.511281  M 125.894073 129.332142  L 125.955107 129.133099  M 126.077176 129.053481  L 126.199244 128.735012  M 126.321312 128.535968  L 126.44338 128.317021  M 126.565448 128.137881  L 126.626482 128.117977  L 126.870618 127.540751  M 126.992686 127.520847  L 127.175788 127.142664  M 128.335434 125.152229  L 128.396468 125.012899  M 128.518536 124.754142  L 128.57957 124.555099  M 128.823706 124.336151  L 128.88474 124.157012  M 129.067843 123.957968  L 129.128877 123.758925  M 129.311979 123.659403  L 129.373013 123.539977  M 129.495081 123.161794  L 129.556115 122.962751  M 130.227489 122.146673  L 130.288523 121.967533  M 130.898863 120.972316  L 131.020931 120.574229  M 131.448169 120.176142  L 131.570237 119.579012  M 132.180578 118.782838  L 132.241612 118.762933  L 132.302646 118.583794  M 132.424714 118.384751  L 132.485748 118.185707  M 132.912986 117.588577  L 132.97402 117.389533  M 133.523326 116.772499  L 133.645394 116.394316  M 133.828496 116.195273  L 133.88953 115.996229  M 134.1947 115.598142  L 134.255734 115.399099  M 134.560904 115.001012  L 134.621938 114.981107  L 134.744007 114.682542  M 134.988143 114.403881  L 135.049177 114.204838  M 135.232279 114.005794  L 135.293313 113.806751  M 135.842619 113.010577  L 136.025721 112.61249  M 136.269857 112.413446  L 136.391925 112.015359  M 136.575027 111.995455  L 136.636061 111.816316  M 136.758129 111.796412  L 136.941231 111.219186  M 137.551572 110.423012  L 137.612606 110.223968  M 137.917776 110.00502  L 138.039844 109.626838  M 138.345014 109.288464  L 138.467082 109.029707  M 138.58915 109.009803  L 138.711218 108.63162  M 139.138456 108.03449  L 139.19949 107.835446  M 139.50466 107.616498  L 139.626728 107.417455  M 139.748796 107.238316  L 139.80983 107.039272  M 139.931898 106.840229  L 139.992932 106.641185  M 140.176034 106.601377  L 140.237068 106.442142  M 140.359137 106.243098  L 140.420171 106.044055  M 140.725341 105.705681  L 140.786375 105.645968  M 140.969477 105.626064  L 141.152579 105.227977  M 141.823953 104.252664  L 141.884987 104.033716  M 142.312225 103.635629  L 142.373259 103.45649  M 142.617395 103.237542  L 142.678429 102.859359  M 142.983599 102.640411  L 143.105667 102.262229  M 143.471872 101.864142  L 143.532906 101.665098  M 144.326348 100.669881  L 144.387382 100.470838  M 144.692552 100.072751  L 144.753586 100.052846  M 145.058756 99.674664  L 145.11979 99.47562  M 145.608062 98.87849  L 145.669096 98.858585  M 152.077669 90.31962  L 152.199737 89.981246  M 152.382839 89.921533  L 152.504907 89.54335  M 153.054213 89.08555  L 153.115247 88.926316  M 153.237315 88.727272  L 153.298349 88.707368  M 154.152825 87.71215  L 154.213859 87.533011  M 154.335927 87.333968  L 154.396961 87.134924  M 154.763166 86.836359  L 154.885234 86.537794  M 155.12937 86.33875  L 155.190404 86.318846  L 155.251438 86.139707  M 155.922812 85.343533  L 155.983846 85.144489  M 156.35005 84.925542  L 156.533152 84.547359  M 157.143492 83.930324  L 157.26556 83.552142  M 157.509697 83.333194  L 157.631765 83.154055  M 157.936935 82.795776  L 157.997969 82.755968  M 158.425207 82.337976  L 158.486241 82.158837  M 158.730377 81.939889  L 158.791411 81.76075  M 159.401751 81.004385  L 159.462785 80.964576  M 159.584853 80.944672  L 159.706921 80.745629  M 159.951057 80.546585  L 160.012091 80.367446  M 160.256227 80.108689  L 160.43933 79.750411  M 160.622432 79.650889  L 160.805534 79.372229  M 160.927602 79.352324  L 160.988636 79.173185  M 161.232772 78.974142  L 161.293806 78.954237  L 161.35484 78.775098  M 161.782078 78.357107  L 161.904146 78.177968  M 162.148282 77.95902  L 162.331384 77.580837  M 163.18586 76.764759  L 163.246895 76.58562  M 164.040337 75.769542  L 164.101371 75.590402  M 164.284473 75.391359  L 164.345507 75.371455  L 164.406541 75.192315  M 165.566187 73.818915  L 165.627221 73.799011  M 165.871357 73.580063  L 165.932391 73.400924  M 166.237562 73.181976  L 166.298596 73.002837  M 166.847902 72.405707  L 166.908936 72.385802  L 167.031004 72.027524  M 167.458242 71.788672  L 167.519276 71.609533  M 167.946514 71.191541  L 168.007548 71.012402  M 168.129616 70.992498  L 168.434786 70.415272  M 168.617888 70.236133  L 168.678922 70.216228  M 168.80099 70.196324  L 168.862024 70.017185  M 169.167195 69.778333  L 169.228229 69.619098  M 169.533399 69.320533  L 169.594433 69.221011  M 169.838569 69.002063  L 169.960637 68.822924  M 170.082705 68.80302  L 170.265807 68.424837  M 170.815113 67.986941  L 170.998215 67.628663  M 171.120283 67.608759  L 171.242351 67.42962  M 171.364419 67.409715  L 171.547521 67.091246  M 171.669589 67.031533  L 171.730623 67.011628  L 171.791658 66.832489  M 172.524066 66.19555  L 172.707168 65.837272  M 172.829236 65.817367  L 172.89027 65.638228  M 173.256474 65.41928  L 173.317508 65.240141  M 173.439576 65.220237  L 173.561644 65.021194  M 173.80578 64.82215  L 173.866814 64.643011  M 174.233018 64.384254  L 174.477154 64.025976  M 174.599222 63.946359  L 174.721291 63.647794  M 174.965427 63.627889  L 175.026461 63.44875  M 175.148529 63.428846  L 175.209563 63.249707  M 175.575767 63.030759  L 175.636801 62.85162  M 175.941971 62.632672  L 176.064039 62.433628  M 176.308175 62.234585  L 176.369209 62.055446  M 176.552311 62.035541  L 176.613345 61.856402  M 176.857481 61.657359  L 176.918515 61.637454  L 177.040583 61.438411  M 177.406787 61.060228  L 177.467821 61.040324  M 177.58989 60.861185  L 177.650924 60.801472  M 177.89506 60.642237  L 178.017128 60.443193  M 178.139196 60.343672  L 178.322298 60.065011  M 178.627468 59.865967  L 178.688502 59.846063  M 178.81057 59.666924  L 178.871604 59.64702  M 179.11574 59.447976  L 179.298842 59.069793  M 179.72608 58.850846  L 179.787114 58.671706  M 180.03125 58.472663  L 180.092284 58.452759  M 180.214352 58.27362  L 180.275386 58.253715  L 180.336421 58.09448  M 180.580557 58.054672  L 180.702625 57.855628  M 180.946761 57.656585  L 181.068829 57.457541  M 181.435033 57.198785  L 181.557101 56.880315  M 181.740203 56.860411  L 181.801237 56.760889  M 182.045373 56.661367  L 182.228475 56.303089  M 182.350543 56.283185  L 182.411577 56.26328  L 182.472611 56.084141  M 182.838815 55.865193  L 182.899849 55.686054  M 183.021917 55.66615  L 183.082951 55.487011  M 183.20502 55.467106  L 183.266054 55.407393  M 183.449156 55.268063  L 183.571224 55.069019  M 183.876394 54.869976  L 183.937428 54.690837  M 184.059496 54.670932  L 184.12053 54.491793  M 184.4257 54.29275  L 184.486734 54.272846  M 184.913972 53.874759  L 184.975006 53.695619  M 185.34121 53.496576  L 185.402244 53.476672  L 185.524312 53.277628  M 185.768448 53.098489  L 185.890516 52.879541  M 186.073619 52.720306  L 186.195687 52.680498  M 186.317755 52.501359  L 186.378789 52.481454  M 186.867061 52.083367  L 186.928095 51.884324  M 187.111197 51.824611  L 187.172231 51.705185  M 187.416367 51.486237  L 187.477401 51.366811  M 187.721537 51.287193  L 187.782571 51.108054  M 188.026707 50.909011  L 188.087741 50.889106  M 188.270843 50.709967  L 188.331877 50.690063  M 188.453945 50.510924  L 188.514979 50.471115  M 189.43049 49.694845  L 189.491524 49.575419  M 189.857728 49.296759  L 189.918762 49.117619  M 190.162898 49.097715  L 190.223932 48.918576  M 190.346 48.898672  L 190.407034 48.719532  M 190.712204 48.500585  L 190.773238 48.321445  M 190.95634 48.301541  L 191.078408 48.122402  M 191.26151 48.102498  L 191.444612 47.784028  M 191.56668 47.724315  L 191.627714 47.704411  M 191.749782 47.525272  L 191.810817 47.505367  M 192.360123 47.10728  L 192.421157 46.928141  M 192.665293 46.729098  L 192.726327 46.709193  M 193.153565 46.331011  L 193.214599 46.311106  L 193.275633 46.112063  M 193.824939 45.73388  L 193.885973 45.713976  M 194.069075 45.534837  L 194.130109 45.514932  L 194.191143 45.335793  M 194.862518 44.917802  L 194.923552 44.738663  M 195.04562 44.718758  L 195.106654 44.639141  M 195.228722 44.539619  L 195.289756 44.519715  M 226.172971 23.520628  L 226.234005 23.44101  M 231.910169 20.833541  L 232.032237 20.455358  M 232.886713 20.375741  L 232.947747 20.256315  M 235.389108 19.241193  L 235.450142 19.062054  M 238.501843 17.847888  L 238.562877 17.668749  M 245.032483 15.081184  " clip-path="url(#pb46c97c7b1)" style="fill: none; stroke: #feffb3; stroke-width: 1.5; stroke-linecap: square"/>
   </g>
   <g id="line2d_15">
    <path d="M 71.121751 213.515121  L 71.184161 213.356789  M 71.308981 213.339197  L 71.371391 213.304012  L 71.621032 212.635499  L 71.933082 211.949393  M 72.057903 211.773469  L 72.682004 210.014224  L 72.806824 208.430904  M 73.306105 207.727206  L 73.493335 207.199433  M 73.618155 206.847584  L 73.742976 206.31981  M 73.867796 206.143886  L 74.242257 204.912414  M 74.367077 204.560566  L 74.741537 203.487426  M 74.866358 203.311502  L 75.053588 202.783728  M 75.178408 202.607804  L 75.365639 201.939291  L 75.428049 201.921698  L 75.92733 200.338378  M 76.05215 200.162454  L 76.17697 199.810605  M 76.30179 199.63468  L 76.551431 198.755058  M 76.676251 198.579133  L 76.925892 197.699511  L 76.988302 197.523587  M 77.113122 197.171738  L 77.674813 195.412493  L 77.799633 194.884719  M 77.924453 194.53287  L 78.111684 193.829173  M 78.236504 193.477324  L 78.673375 192.069928  M 78.798195 191.894003  L 78.985425 191.190305  M 79.110246 191.014381  L 79.235066 190.486608  M 79.359886 190.275498  L 79.734347 189.079212  L 80.171218 187.84774  L 80.233628 187.302375  M 80.483268 186.968118  L 80.732909 186.088496  L 80.795319 185.736647  M 81.044959 185.208873  L 81.107369 185.032949  M 81.54424 183.801478  L 81.60665 183.625553  M 81.793881 183.273704  L 81.856291 182.921855  M 81.981111 182.745931  L 82.230751 181.866308  M 82.730032 180.634837  L 82.792442 180.458913  M 82.979673 180.107064  L 83.042083 179.931139  M 83.166903 179.755215  L 83.603774 178.347819  M 83.978235 177.644121  L 84.103055 177.292272  M 84.227875 177.116348  L 84.477516 176.41265  L 84.539926 175.884876  M 84.851976 175.708952  L 84.976796 175.181178  M 85.101617 175.005254  L 85.164027 174.653405  M 85.725718 173.773783  L 85.850538 173.580266  L 85.912948 172.89416  M 86.162589 172.718236  L 86.287409 172.190462  M 87.535611 169.72752  L 87.598021 169.375671  M 87.785252 169.023822  L 87.972482 168.320124  M 88.346943 167.968275  L 88.471763 167.440501  M 88.846224 167.088653  L 88.908634 166.736804  M 89.595145 165.329408  L 89.657555 165.153483  M 89.782375 164.801634  L 89.844786 164.62571  M 90.094426 164.449785  L 90.281656 163.922012  M 90.531297 163.394239  L 90.593707 163.218314  M 90.780937 163.04239  L 90.968168 162.514616  M 91.904319 160.755371  L 91.966729 160.579447  M 92.34119 160.051674  L 92.4036 159.875749  M 92.653241 159.5239  L 92.840471 158.996127  M 93.027701 158.820202  L 93.090112 158.644278  M 93.714213 157.588731  L 93.776623 157.236882  M 93.963853 157.060957  L 94.088673 156.709109  M 94.525544 156.005411  L 94.587954 155.653562  M 95.336876 154.932271  L 95.461696 154.42209  M 95.711336 154.175796  L 95.836157 153.894317  L 95.898567 153.542468  M 96.148207 153.366544  L 96.210617 153.190619  M 96.585078 152.662846  L 96.647488 152.486921  M 96.834718 152.310997  L 96.959539 151.959148  M 97.084359 151.90637  L 97.333999 151.413782  M 97.45882 151.25545  L 97.52123 151.237857  L 97.77087 150.551752  M 98.519792 149.496205  L 98.582202 149.320281  M 98.894252 149.056394  L 99.081483 148.616583  L 99.143893 148.493436  M 99.268713 148.440658  L 99.393533 148.088809  M 99.643174 147.73696  L 99.767994 147.385111  M 99.955224 147.209187  L 100.017634 147.01567  M 100.267275 146.786968  L 100.329685 146.681414  M 100.454505 146.505489  L 100.641736 146.136048  M 100.828966 145.977716  L 100.891376 145.801791  M 101.577887 144.904576  L 101.952348 144.218471  M 102.201988 144.024954  L 102.389219 143.655513  M 102.763679 143.162924  L 102.8885 142.811075  M 103.20055 142.617558  L 103.325371 142.283302  M 104.199112 141.210162  L 104.261522 141.034238  M 104.511163 140.823129  L 104.698393 140.33054  M 105.384904 139.450918  L 105.509725 139.292586  M 105.696955 139.274993  L 105.821775 138.923144  M 106.009005 138.764812  L 106.133826 138.395371  M 106.445876 138.061114  L 106.508286 138.043522  M 107.069977 137.410194  L 107.257208 137.111122  L 107.319618 137.005567  M 107.444438 136.987975  L 107.756489 136.30187  M 107.881309 136.266685  L 107.943719 136.125945  M 108.068539 136.108353  L 108.19336 135.774096  M 108.38059 135.756504  L 108.50541 135.422247  M 108.69264 135.246323  L 108.755051 135.070398  M 108.879871 135.052806  L 109.004691 134.718549  M 109.254331 134.542625  L 109.316742 134.3667  M 109.816023 133.838927  L 109.878433 133.821334  L 110.003253 133.64541  M 110.128073 133.416708  L 110.252893 133.135229  M 111.189045 132.238014  L 111.313865 131.903758  M 111.625916 131.710241  L 111.688326 131.375984  M 111.937966 131.20006  L 112.062787 131.147282  L 112.187607 130.848211  M 112.374837 130.672286  L 112.437247 130.654694  L 112.499658 130.496362  M 112.624478 130.478769  L 112.686888 130.320437  M 112.811708 130.302845  L 112.874118 130.12692  M 112.998938 130.021366  L 113.186169 129.775072  L 113.248579 129.616739  M 113.373399 129.599147  L 113.498219 129.423223  M 113.62304 129.264891  L 113.74786 129.159336  L 113.87268 128.913042  M 113.9975 128.877857  L 114.247141 128.561193  L 114.309551 128.5436  L 114.371961 128.209344  M 114.746422 127.857495  L 114.871242 127.734348  M 114.996062 127.663978  L 115.120882 127.488053  M 115.245703 127.329721  L 115.308113 127.153797  M 115.432933 127.136204  L 115.495343 126.88991  M 115.869804 126.626023  L 115.932214 126.608431  L 116.057034 126.432507  M 116.306675 126.09825  L 116.431495 126.02788  L 116.493905 125.904733  M 116.743545 125.570477  L 116.805956 125.552884  M 116.930776 125.464922  L 116.993186 125.218628  M 117.242826 125.042703  L 117.367647 124.901964  L 117.679697 124.497337  M 117.929338 124.321413  L 118.116568 124.039934  M 118.366208 123.793639  L 118.428619 123.635307  M 118.553439 123.617715  L 118.615849 123.459383  M 118.865489 123.265866  L 118.99031 122.931609  M 119.42718 122.579761  L 119.48959 122.562168  L 119.614411 122.386244  M 119.739231 122.333466  L 119.864051 122.051987  M 120.113692 121.85847  L 120.238512 121.700138  M 120.363332 121.682546  L 120.550562 121.348289  M 120.675383 121.330697  L 120.737793 121.20755  M 120.862613 121.154772  L 120.925023 120.978848  M 121.174664 120.802923  L 121.237074 120.644591  M 121.798765 120.099225  L 121.985995 119.923301  L 122.048405 119.782561  M 122.173225 119.764969  L 122.235636 119.747376  L 122.422866 119.501082  M 122.547686 119.395528  L 122.672506 119.219603  M 122.797327 119.061271  L 122.859737 119.043679  L 122.922147 118.867754  M 123.109377 118.709422  L 123.234197 118.639052  M 123.359018 118.515905  L 123.421428 118.357573  M 123.671068 118.164056  L 123.733478 118.076094  M 123.858299 118.005724  L 123.920709 117.988132  L 124.045529 117.794615  M 124.54481 117.284434  L 124.60722 117.214064  M 124.73204 117.108509  L 124.79445 116.950177  M 124.919271 116.932585  L 124.981681 116.75666  M 125.293731 116.580736  L 125.356141 116.404811  M 125.480962 116.369627  L 125.543372 116.228887  M 125.793012 116.052963  L 125.855422 115.877038  M 125.980243 115.806668  L 126.042653 115.701114  M 126.292293 115.507597  L 126.354703 115.349265  M 126.791574 114.944638  L 126.853984 114.821491  M 126.978804 114.663159  L 127.041214 114.645567  M 127.166035 114.469642  L 127.228445 114.38168  M 127.727726 113.959461  L 127.790136 113.818722  M 128.227007 113.431688  L 128.289417 113.255763  M 128.539057 113.079839  L 128.601467 113.062246  L 128.663877 112.903914  M 129.038338 112.552065  L 129.100748 112.534473  M 129.225569 112.393733  L 129.350389 112.358549  L 129.412799 112.182624  M 129.537619 112.112254  L 129.600029 112.0067  M 129.97449 111.654851  L 130.0369 111.531704  M 130.16172 111.478926  L 130.348951 111.250224  M 130.723411 110.951153  L 130.973052 110.616896  L 131.035462 110.599304  L 131.222692 110.405787  M 131.472333 110.106715  L 131.597153 109.913198  M 131.846793 109.737274  L 131.909204 109.719681  L 131.971614 109.561349  M 132.096434 109.543757  L 132.158844 109.367833  M 132.408484 109.191908  L 132.658125 108.857652  L 132.720535 108.840059  M 132.845355 108.69932  L 132.907765 108.664135  M 133.032586 108.48821  L 133.094996 108.41784  M 133.469456 108.118769  L 133.656687 107.83729  M 133.781507 107.784512  L 133.843917 107.608588  M 134.093558 107.432663  L 134.155968 107.274331  M 134.530428 106.992852  L 134.655249 106.728965  M 134.780069 106.711373  L 134.842479 106.553041  M 135.092119 106.377116  L 135.15453 106.201192  M 135.65381 105.673419  L 135.716221 105.567864  M 135.965861 105.339162  L 136.028271 105.286385  M 136.215501 105.145645  L 136.277912 105.004906  M 136.402732 104.969721  L 136.527552 104.793796  M 136.777193 104.617872  L 136.839603 104.45954  M 137.089243 104.266023  L 137.151653 104.142876  M 137.338884 104.090098  L 137.401294 103.914174  M 137.775754 103.579917  L 137.838165 103.562325  M 138.087805 103.298438  L 138.150215 103.210476  M 138.649496 102.717887  L 138.711906 102.682702  M 139.336007 102.154929  L 139.398417 101.979005  M 139.897698 101.591971  L 140.022519 101.310492  M 140.459389 101.01142  L 140.521799 100.923458  M 140.77144 100.729941  L 140.95867 100.448462  M 141.083491 100.395684  L 141.145901 100.21976  M 141.520361 99.885503  L 141.582771 99.867911  M 141.832412 99.604024  L 141.894822 99.516062  M 142.144462 99.304953  L 142.206873 99.164213  M 142.706154 98.741994  L 142.768564 98.63644  M 143.517485 97.756817  L 143.579895 97.616078  M 144.079176 97.246636  L 144.141586 97.229044  L 144.203996 97.070712  M 144.328817 97.035527  L 144.391227 96.894787  M 144.516047 96.877195  L 144.578457 96.754048  M 144.828097 96.525346  L 144.890508 96.472569  M 145.264968 96.173497  L 145.452199 95.90961  M 145.701839 95.645724  L 145.764249 95.610539  M 146.01389 95.329059  L 146.13871 95.293875  L 146.20112 95.11795  M 146.575581 94.783694  L 146.637991 94.766101  M 146.762811 94.607769  L 146.887631 94.484622  M 147.137272 94.238328  L 147.324502 94.062403  M 147.823783 93.622592  L 147.886193 93.53463  M 148.385474 93.059634  L 148.510294 92.830932  M 149.883317 91.634646  L 149.945727 91.599461  L 150.008137 91.423536  M 150.569828 91.071687  L 150.632238 90.895763  M 151.256339 90.508729  L 151.31875 90.367989  M 152.379721 89.646699  L 152.504542 89.488367  M 152.691772 89.36522  L 152.816592 89.136518  M 153.066233 89.083741  L 153.128643 88.960593  M 153.315873 88.802261  L 153.378283 88.784669  M 153.690334 88.50319  L 153.752744 88.43282  M 154.376845 87.940232  L 154.439255 87.905047  L 154.501665 87.729122  M 154.688896 87.658752  L 154.751306 87.553198  M 155.063356 87.394866  L 155.125767 87.377273  L 155.188177 87.201349  M 155.500227 87.025424  L 155.562637 86.8495  M 155.812278 86.796722  L 155.874688 86.673575  M 156.186739 86.497651  L 156.249149 86.321726  M 156.87325 85.952285  L 156.93566 85.793953  M 158.183862 84.808776  L 158.246272 84.738406  M 158.558323 84.527297  L 158.620733 84.386557  M 158.807963 84.245818  L 158.870374 84.210633  M 159.369654 83.858784  L 159.432065 83.700452  M 159.744115 83.524527  L 159.806525 83.40138  M 160.493037 82.979161  L 160.555447 82.820829  M 160.805087 82.644905  L 160.867497 82.627312  M 161.179548 82.451388  L 161.241958 82.293056  M 161.866059 81.923615  L 161.928469 81.74769  M 163.488722 80.551404  L 163.551132 80.340294  M 164.237643 79.988445  L 164.300054 79.812521  M 165.610666 78.844936  L 165.673076 78.756974  M 166.609228 78.053276  L 166.671638 78.000499  M 167.170919 77.701427  L 167.233329 77.525503  M 167.482969 77.419948  L 167.54538 77.349578  M 168.169481 76.85699  L 168.231891 76.821805  M 168.543941 76.575511  L 168.606352 76.469956  M 171.539627 74.376455  L 171.602037 74.358862  M 172.226138 74.007013  L 172.350959 73.831089  M 172.97506 73.444055  L 173.03747 73.303315  M 173.474341 73.127391  L 173.536751 72.969059  M 173.661571 72.951466  L 173.786391 72.775542  M 175.471464 71.719995  L 175.533874 71.544071  M 175.783515 71.456108  L 175.845925 71.368146  M 177.406178 70.330192  L 177.468588 70.312599  M 178.52956 69.608901  L 178.59197 69.468162  M 179.278481 69.186683  L 179.340891 69.081128  M 179.590532 68.905203  L 179.652942 68.729279  M 180.401863 68.324653  L 180.464274 68.201506  M 180.963554 68.025581  L 181.088375 67.849657  M 181.462835 67.673732  L 181.525246 67.497808  M 181.899706 67.480215  L 181.962116 67.321883  M 182.274167 67.145959  L 182.336577 66.970034  M 183.147909 66.618185  L 183.210319 66.442261  M 185.519493 65.052457  L 185.581903 65.034865  M 185.956364 64.858941  L 186.018774 64.700609  M 186.393235 64.524684  L 186.455645 64.507092  M 187.516617 63.785801  L 187.579027 63.627469  M 188.452768 63.117288  L 188.515178 63.099696  M 190.262662 62.079334  L 190.325072 62.044149  M 190.574712 61.885817  L 190.637122 61.868224  M 192.197375 60.935825  L 192.259785 60.812678  M 193.071117 60.372866  L 193.133527 60.284904  M 193.944859 59.792316  L 194.007269 59.757131  M 194.56896 59.510837  L 194.63137 59.405282  M 195.754752 58.877508  L 195.879572 58.701584  M 196.191623 58.666399  L 196.254033 58.525659  M 197.377415 57.804369  L 197.439825 57.646037  M 198.625617 57.118264  L 198.688027 56.959932  M 199.312128 56.678452  L 199.374539 56.59049  M 200.872381 55.816423  L 200.934792 55.710868  M 201.995763 55.183094  L 202.058174 55.00717  M 202.744685 54.690506  L 202.807095 54.655321  L 202.869505 54.479397  M 203.306376 54.391434  L 203.368786 54.303472  M 210.358719 50.274802  L 210.421129 50.257209  M 210.858 50.098877  L 210.92041 49.922953  M 211.17005 49.852583  L 211.232461 49.729436  M 212.355843 49.289625  L 212.418253 49.025738  M 213.479225 48.497964  L 213.541635 48.427595  M 214.290556 47.987783  L 214.352966 47.970191  M 215.538759 47.266493  L 215.601169 47.090569  M 219.782646 44.80355  L 219.845057 44.469294  M 226.522939 41.038767  L 226.647759 40.77488  M 230.891647 38.663786  L 230.954057 38.487862  M 231.328518 38.470269  L 231.390928 38.311937  M 233.200821 37.432315  L 233.263231 37.414723  M 236.945428 35.497146  L 237.007838 35.479553  M 237.195069 35.356406  L 237.257479 35.303629  M 237.444709 35.145297  L 237.507119 35.127704  M 237.75676 35.074927  L 237.81917 34.969372  M 238.0064 34.95178  L 238.06881 34.793448  M 238.880142 34.494376  L 238.942552 34.424006  M 239.129782 34.265674  L 239.192192 34.212897  M 240.627625 33.544384  L 240.690035 33.386052  M 245.932485 30.905517  L 246.057305 30.729593  M 246.556586 30.553668  L 246.618996 30.518483  M 246.868637 30.395336  L 246.931047 30.377744  M 247.243097 30.219412  L 247.305507 30.201819  M 247.492738 30.043487  L 247.555148 30.025895  M 247.992019 29.867563  L 248.054429 29.84997  M 248.366479 29.691638  L 248.42889 29.674046  M 248.990581 29.392567  L 249.052991 29.339789  M 249.989142 28.970348  L 250.051553 28.812016  M 251.486985 28.249057  L 251.549395 28.108318  M 252.735188 27.580544  L 252.797598 27.562952  M 254.10821 27.035179  L 254.17062 26.859254  M 255.481233 26.507405  L 255.543643 26.331481  M 256.667025 25.8213  L 256.729435 25.803707  M 259.66271 24.572236  L 259.725121 24.554643  M 260.099581 24.396311  L 260.161991 24.273164  M 261.285373 23.88613  L 261.347784 23.868538  M 261.971885 23.534282  L 262.034295 23.516689  M 264.031419 22.654659  L 264.093829 22.637067  M 265.466851 21.986146  L 265.529261 21.775037  M 266.278183 21.704667  L 266.340593 21.58152  M 268.150486 20.86023  " clip-path="url(#pb46c97c7b1)" style="fill: none; stroke: #bfbbd9; stroke-width: 1.5; stroke-linecap: square"/>
   </g>
   <g id="line2d_16">
    <path d="M 65.606054 227.214517  L 65.88452 226.201438  M 66.0516 225.99038  L 66.274373 225.336099  M 66.38576 224.935089  L 66.441453 224.724031  M 66.664226 224.090856  L 66.719919 224.06975  L 67.165466 222.613448  M 67.388239 221.980274  L 67.443932 221.769216  M 67.666705 220.924983  L 67.833785 220.692819  M 67.945172 220.48176  L 68.112251 219.848586  M 68.223638 219.700845  L 68.279331 219.236517  M 68.390718 219.215411  L 68.502104 218.793295  M 68.613491 218.392284  L 68.724878 217.970168  M 68.891957 217.548051  L 68.947651 217.336993  M 69.059037 216.914877  L 69.114731 216.893771  L 69.226117 216.49276  M 69.44889 215.859586  L 69.727357 215.226411  L 69.894437 214.593236  L 69.95013 214.57213  L 70.11721 213.960062  L 70.172903 213.938956  L 70.339983 213.305781  M 70.562756 212.693712  L 70.896916 211.216305  M 71.008302 211.005247  L 71.119689 210.372072  M 71.231075 210.161014  L 71.286769 209.949956  M 71.398155 209.738897  L 71.453849 209.316781  M 71.565235 209.105723  L 71.899395 207.839373  M 72.010781 207.628315  L 72.344941 206.361966  M 72.456328 206.150908  L 72.734794 205.306675  M 72.846181 205.074511  L 72.901874 204.863453  M 73.01326 204.6735  L 73.236034 203.829267  M 73.34742 203.428257  L 73.403113 203.386045  L 73.570193 202.773976  M 73.68158 202.584024  L 73.737273 202.541812  L 73.792966 202.35186  M 73.904353 201.929744  L 74.01574 201.507627  M 74.127126 201.296569  L 74.349899 200.304595  M 74.461286 200.241278  L 75.018219 198.341754  M 75.129605 198.130696  L 75.185299 197.919637  M 75.408072 197.497521  L 75.463765 197.286463  M 75.630845 197.075405  L 75.742231 196.44223  M 75.965005 196.125643  L 76.132084 195.597997  M 76.243471 195.576891  L 76.299164 195.175881  M 76.410551 194.964822  L 76.577631 194.12059  M 76.744711 193.825108  L 77.24595 192.221066  L 77.357337 191.798949  M 77.58011 191.313515  L 77.635803 191.144669  M 77.74719 190.954716  L 77.969963 189.87832  M 78.137043 189.857214  L 78.192736 189.456203  M 78.415509 189.034087  L 78.916749 187.155669  M 79.028135 186.94461  L 79.696455 184.221959  M 79.807841 184.179748  L 79.863534 183.989795  L 79.919228 183.187774  M 80.197694 182.70234  L 80.364774 181.879213  M 80.698934 181.246039  L 81.200173 179.768631  L 81.367253 179.325409  L 81.47864 179.114351  L 81.64572 178.291224  L 81.701413 178.270118  L 83.316518 172.381594  M 83.483598 171.959477  L 83.539291 171.938371  L 83.873451 170.861974  M 83.984838 170.672022  L 84.207611 169.848895  M 84.54177 168.983556  L 84.70885 168.139324  M 84.820237 167.949371  L 84.87593 167.928265  L 85.154396 166.471964  L 85.37717 165.606625  L 85.599943 164.614651  L 85.655636 163.939265  M 85.767023 163.728207  L 86.212569 162.229694  L 86.491035 160.963344  L 86.936582 159.084926  M 87.047968 158.852762  L 87.493514 156.678863  M 87.604901 156.531122  L 87.827674 155.285878  L 87.883367 154.800444  M 88.106141 154.019529  L 88.161834 153.956212  L 88.384607 152.542122  L 88.4403 152.521016  L 89.609859 147.708888  M 89.721246 147.075714  L 89.832632 146.611386  M 89.944019 146.231481  L 90.222485 144.732968  L 90.278179 144.711862  L 90.445259 143.740994  L 90.556645 143.529936  L 90.779418 142.263587  M 90.890805 141.862576  L 90.946498 141.44046  M 91.057885 141.018343  L 91.113578 140.701756  M 91.280658 140.300745  L 91.447738 139.435406  M 91.670511 138.612279  L 92.00467 136.83939  M 92.17175 136.501697  L 92.33883 135.847417  M 92.561603 134.813232  L 92.617297 134.581068  M 92.728683 134.370009  L 92.784376 134.137845  M 92.895763 133.757941  L 92.951456 133.736835  L 93.118536 132.871496  M 93.229923 132.681544  L 93.397003 131.858417  M 93.619776 131.204136  L 93.675469 131.014184  L 93.731162 130.381009  M 93.842549 130.148845  L 93.898242 129.958893  M 94.009629 129.937787  L 94.232402 129.11466  L 94.288095 128.502591  M 94.399482 128.249321  L 94.566562 127.4473  M 94.900721 126.349797  L 95.513347 124.049263  L 95.624734 123.394982  M 95.847507 122.761808  L 95.9032 122.339691  M 96.014587 121.938681  L 96.07028 121.706517  M 96.181667 121.600987  L 96.23736 120.862284  M 96.515827 120.250215  L 96.7386 119.110501  M 96.849986 118.96276  L 97.072759 117.696411  M 97.295532 117.063236  L 97.351226 117.021024  L 97.406919 116.598908  M 97.629692 116.029051  L 97.741079 115.37477  M 97.852465 115.353664  L 97.908159 114.931548  M 98.019545 114.530537  L 98.186625 113.876257  M 98.298012 113.496352  L 98.409398 113.05313  M 98.576478 112.652119  L 98.799251 111.596828  M 99.022024 110.731489  L 99.356184 109.043024  L 99.467571 108.241003  M 99.578957 108.05105  L 99.746037 106.995759  M 99.857424 106.742489  L 100.525743 103.998732  L 100.748516 102.816806  L 100.804209 102.732383  L 100.859903 102.415796  M 100.971289 101.993679  L 101.026983 101.655986  M 101.138369 101.360505  L 101.305449 100.811753  M 101.416836 100.600695  L 101.472529 100.389637  M 101.583915 99.988626  L 101.639609 99.693145  M 101.750995 99.482087  L 102.029462 98.701171  L 102.085155 98.279055  M 102.196542 98.089102  L 102.252235 97.856938  M 102.363621 97.666986  L 102.419315 97.223764  M 103.199021 95.303134  L 103.310407 95.092076  L 103.366101 94.268949  M 103.588874 94.057891  L 103.811647 93.0026  L 103.86734 92.812647  M 107.376017 80.360213  L 107.43171 80.128049  M 107.59879 79.66372  L 107.93295 78.460689  M 108.211416 77.616456  L 108.26711 77.405398  M 108.489883 76.772223  L 108.601269 76.117942  M 108.712656 75.92799  L 109.102509 74.429477  L 109.158202 73.796302  M 109.380975 73.163127  L 109.770828 71.68572  L 109.882215 70.883699  M 109.993601 70.672641  L 110.439148 69.153021  L 110.550534 68.540953  M 110.661921 68.393212  L 110.717614 67.886672  M 110.829001 67.69672  L 111.107467 66.725852  M 111.218854 66.303736  L 111.33024 66.092677  L 111.385933 65.797196  M 111.49732 65.459503  L 111.608707 65.164021  L 111.6644 64.931857  M 111.775786 64.530847  L 111.83148 64.509741  L 112.165639 63.243391  M 112.388413 62.610217  L 112.499799 61.765984  M 112.778266 61.132809  L 112.889652 60.668481  M 113.001039 60.309682  L 113.112425 60.035307  L 113.335198 59.043333  M 113.446585 58.811169  L 113.613665 58.156888  M 113.725051 57.966936  L 113.947825 56.932751  M 114.059211 56.721693  L 114.226291 55.87746  M 114.393371 55.434238  L 114.560451 54.822169  M 114.671837 54.61111  L 114.783224 53.977936  M 115.22877 52.690481  L 115.39585 52.099518  M 115.618623 51.424131  L 115.73001 51.023121  M 116.286942 49.186914  L 116.342636 49.102491  L 116.398329 48.764798  M 116.732489 47.625084  L 116.899569 47.013015  M 117.010955 46.464263  L 117.066648 46.253205  M 117.178035 45.936618  L 117.512195 44.691374  M 117.623581 44.374787  L 117.679275 44.037094  M 117.790661 43.762718  L 117.957741 43.002909  M 118.180514 42.348628  L 118.347594 41.736559  M 118.458981 41.103385  L 118.514674 40.892327  M 118.737447 40.47021  L 119.182993 38.570686  M 119.29438 38.359628  L 119.405766 37.937512  M 119.517153 37.494289  L 119.572846 37.304337  M 120.853792 33.9063  L 120.909485 33.716347  M 121.410725 33.294231  L 121.577805 31.183649  L 122.134737 29.284125  M 122.35751 28.65095  L 122.413204 28.439892  M 122.52459 28.102199  L 122.580284 27.806717  M 122.69167 27.680082  L 122.85875 27.152437  M 122.970137 26.962485  L 123.19291 26.118252  M 123.415683 25.801664  L 123.805536 24.218728  M 123.916922 23.796611  L 124.139696 23.353389  L 124.195389 22.74132  M 124.362469 22.530262  L 125.086481 19.976458  M 125.197868 19.575447  L 125.309255 19.153331  M 125.420641 18.731214  L 125.476334 18.520156  L 125.476334 18.520156  " clip-path="url(#pb46c97c7b1)" style="fill: none; stroke: #fa8174; stroke-width: 1.5; stroke-linecap: square"/>
   </g>
   <g id="patch_3">
    <path d="M 36.849303 268.78101  L 36.849303 3.00024  " style="fill: none; stroke: #ffffff; stroke-width: 0.8; stroke-linejoin: miter; stroke-linecap: square"/>
   </g>
   <g id="patch_4">
    <path d="M 291.886454 268.78101  L 291.886454 3.00024  " style="fill: none; stroke: #ffffff; stroke-width: 0.8; stroke-linejoin: miter; stroke-linecap: square"/>
   </g>
   <g id="patch_5">
    <path d="M 36.849303 268.78101  L 291.886454 268.78101  " style="fill: none; stroke: #ffffff; stroke-width: 0.8; stroke-linejoin: miter; stroke-linecap: square"/>
   </g>
   <g id="patch_6">
    <path d="M 36.849303 3.00024  L 291.886454 3.00024  " style="fill: none; stroke: #ffffff; stroke-width: 0.8; stroke-linejoin: miter; stroke-linecap: square"/>
   </g>
   <g id="legend_1">
    <g id="patch_7">
     <path d="M 44.549303 91.722115  L 92.11399 91.722115  Q 94.31399 91.722115 94.31399 89.522115  L 94.31399 10.70024  Q 94.31399 8.50024 92.11399 8.50024  L 44.549303 8.50024  Q 42.349303 8.50024 42.349303 10.70024  L 42.349303 89.522115  Q 42.349303 91.722115 44.549303 91.722115  z " style="fill: #191919; opacity: 0.8; stroke: #cccccc; stroke-linejoin: miter"/>
    </g>
    <g id="text_15">
     <!-- $\alpha [^\circ]$ -->
     <g style="fill: #ffffff" transform="translate(58.816646 21.15024) scale(0.11 -0.11)">
      <defs>
       <path id="STIXGeneral-Italic-3b1" d="M 3514 2739  L 2605 1069  L 2605 954  Q 2605 704 2662 512  Q 2720 320 2822 320  Q 2970 320 3149 794  L 3251 749  Q 3014 -58 2605 -58  Q 2291 -58 2272 614  Q 1709 -70 1030 -70  Q 589 -70 381 198  Q 173 467 173 902  Q 173 1293 329 1673  Q 486 2054 755 2330  Q 973 2547 1270 2684  Q 1568 2822 1862 2822  Q 2246 2822 2457 2595  Q 2669 2368 2669 2061  L 2963 2739  L 3514 2739  z M 2298 1741  Q 2298 2688 1805 2688  Q 1472 2688 1085 2099  Q 698 1510 698 800  Q 698 493 806 278  Q 915 64 1139 64  Q 1606 64 2195 1286  Q 2202 1325 2230 1411  Q 2259 1498 2278 1581  Q 2298 1664 2298 1741  z " transform="scale(0.015625)"/>
       <path id="STIXGeneral-Regular-5b" d="M 1914 -998  L 563 -998  L 563 4237  L 1914 4237  L 1914 4077  L 1382 4077  Q 1216 4077 1133 4006  Q 1050 3936 1050 3770  L 1050 -493  Q 1050 -838 1382 -838  L 1914 -838  L 1914 -998  z " transform="scale(0.015625)"/>
       <path id="STIXGeneral-Regular-2218" d="M 1734 2224  Q 1984 1971 1984 1612  Q 1984 1254 1731 1001  Q 1478 749 1120 749  Q 755 749 505 1001  Q 256 1254 256 1626  Q 256 1984 509 2230  Q 762 2477 1133 2477  Q 1485 2477 1734 2224  z M 1434 1299  Q 1562 1427 1562 1612  Q 1562 1798 1434 1926  Q 1306 2054 1133 2054  Q 934 2054 806 1929  Q 678 1805 678 1626  Q 678 1427 803 1299  Q 928 1171 1120 1171  Q 1306 1171 1434 1299  z " transform="scale(0.015625)"/>
       <path id="STIXGeneral-Regular-5d" d="M 1568 -998  L 218 -998  L 218 -838  L 781 -838  Q 947 -838 1014 -768  Q 1082 -698 1082 -544  L 1082 3731  Q 1082 4077 755 4077  L 218 4077  L 218 4237  L 1568 4237  L 1568 -998  z " transform="scale(0.015625)"/>
      </defs>
      <use xlink:href="#STIXGeneral-Italic-3b1" transform="translate(0 0.796875)"/>
      <use xlink:href="#STIXGeneral-Regular-5b" transform="translate(55.199997 0.796875)"/>
      <use xlink:href="#STIXGeneral-Regular-2218" transform="translate(100.151263 36.071875) scale(0.7)"/>
      <use xlink:href="#STIXGeneral-Regular-5d" transform="translate(139.168625 0.796875)"/>
     </g>
    </g>
    <g id="line2d_17">
     <path d="M 46.749303 33.284615  L 57.749303 33.284615  L 68.749302 33.284615  " style="fill: none; stroke: #8dd3c7; stroke-width: 1.5; stroke-linecap: square"/>
    </g>
    <g id="text_16">
     <!-- 0 -->
     <g style="fill: #ffffff" transform="translate(77.549303 37.134615) scale(0.11 -0.11)">
      <use xlink:href="#Roboto-Regular-30"/>
     </g>
    </g>
    <g id="line2d_18">
     <path d="M 46.749303 49.26899  L 57.749303 49.26899  L 68.749302 49.26899  " style="fill: none; stroke: #feffb3; stroke-width: 1.5; stroke-linecap: square"/>
    </g>
    <g id="text_17">
     <!-- 24 -->
     <g style="fill: #ffffff" transform="translate(77.549303 53.11899) scale(0.11 -0.11)">
      <use xlink:href="#Roboto-Regular-32"/>
      <use xlink:href="#Roboto-Regular-34" x="56.201172"/>
     </g>
    </g>
    <g id="line2d_19">
     <path d="M 46.749303 65.253365  L 57.749303 65.253365  L 68.749302 65.253365  " style="fill: none; stroke: #bfbbd9; stroke-width: 1.5; stroke-linecap: square"/>
    </g>
    <g id="text_18">
     <!-- 32 -->
     <g style="fill: #ffffff" transform="translate(77.549303 69.103365) scale(0.11 -0.11)">
      <defs>
       <path id="Roboto-Regular-33" d="M 1222 2084  L 1222 2559  L 1647 2559  Q 2094 2563 2312 2784  Q 2531 3006 2531 3338  Q 2531 4138 1738 4138  Q 1369 4138 1141 3927  Q 913 3716 913 3359  L 334 3359  Q 334 3881 720 4247  Q 1106 4613 1738 4613  Q 2353 4613 2733 4286  Q 3113 3959 3113 3325  Q 3113 3072 2942 2784  Q 2772 2497 2397 2338  Q 2850 2191 3015 1884  Q 3181 1578 3181 1269  Q 3181 631 2768 284  Q 2356 -63 1741 -63  Q 1147 -63 722 267  Q 297 597 297 1203  L 875 1203  Q 875 844 1108 628  Q 1341 413 1741 413  Q 2138 413 2369 622  Q 2600 831 2600 1256  Q 2600 1681 2337 1882  Q 2075 2084 1634 2084  L 1222 2084  z " transform="scale(0.015625)"/>
      </defs>
      <use xlink:href="#Roboto-Regular-33"/>
      <use xlink:href="#Roboto-Regular-32" x="56.201172"/>
     </g>
    </g>
    <g id="line2d_20">
     <path d="M 46.749303 81.23774  L 57.749303 81.23774  L 68.749302 81.23774  " style="fill: none; stroke: #fa8174; stroke-width: 1.5; stroke-linecap: square"/>
    </g>
    <g id="text_19">
     <!-- 45 -->
     <g style="fill: #ffffff" transform="translate(77.549303 85.08774) scale(0.11 -0.11)">
      <use xlink:href="#Roboto-Regular-34"/>
      <use xlink:href="#Roboto-Regular-35" x="56.201172"/>
     </g>
    </g>
   </g>
  </g>
 </g>
 <defs>
  <clipPath id="pb46c97c7b1">
   <rect x="36.849303" y="3.00024" width="255.037152" height="265.78077"/>
  </clipPath>
 </defs>
</svg>
