<?xml version='1.0' encoding='ASCII' standalone='yes'?>
<svg xmlns:xlink="http://www.w3.org/1999/xlink" xmlns="http://www.w3.org/2000/svg" width="491.477824pt" height="607.5pt" viewBox="0 0 245.738912 303.75" version="1.1">
 <metadata>
  <rdf:RDF xmlns:dc="http://purl.org/dc/elements/1.1/" xmlns:cc="http://creativecommons.org/ns#" xmlns:rdf="http://www.w3.org/1999/02/22-rdf-syntax-ns#">
   <cc:Work>
    <dc:type rdf:resource="http://purl.org/dc/dcmitype/StillImage"/>
    <dc:date>2023-11-29T19:30:35.834863</dc:date>
    <dc:format>image/svg+xml</dc:format>
    <dc:creator>
     <cc:Agent>
      <dc:title>Matplotlib v3.8.0, https://matplotlib.org/</dc:title>
     </cc:Agent>
    </dc:creator>
   </cc:Work>
  </rdf:RDF>
 </metadata>
 <defs>
  <style type="text/css">*{stroke-linejoin: round; stroke-linecap: butt}</style>
 </defs>
 <g id="figure_1">
  <g id="patch_1">
   <path d="M 0 303.75  L 245.738912 303.75  L 245.738912 0  L 0 0  z " style="fill: #191919"/>
  </g>
  <g id="axes_1">
   <g id="patch_2">
    <path d="M 36.849303 268.78101  L 241.853121 268.78101  L 241.853121 3.00024  L 36.849303 3.00024  z " style="fill: #191919"/>
   </g>
   <g id="line2d_1">
    <path d="M 42.901453 252.121784  L 43.910145 250.298167  L 45.019705 248.589959  L 48.449257 242.633958  L 48.751865 242.331756  L 49.659687 241.257858  L 50.164033 240.59859  L 50.668379 239.890434  L 52.181417 238.538427  L 52.282286 238.418741  L 52.383155 238.525101  L 52.484024 238.27984  L 52.584893 238.354286  L 53.896193 236.823031  L 54.703146 235.61872  L 55.40923 234.579154  L 56.61966 232.81838  L 58.838782 229.509784  L 61.360511 225.810315  L 62.268334 224.312657  L 62.974418 223.448662  L 63.176156 223.243864  L 64.890932 220.491133  L 67.009185 217.627198  L 69.833522 214.747873  L 71.043952 213.654186  L 72.153513 212.422537  L 74.372634 209.587122  L 74.776111 209.111229  L 75.784803 207.868348  L 76.18828 207.434676  L 76.692625 206.83974  L 78.710009 204.741757  L 83.047383 201.388374  L 84.358683 200.088492  L 84.66129 199.801695  L 85.972589 198.588437  L 86.880412 197.749472  L 87.586496 197.157403  L 87.889104 196.9654  L 88.595188 196.458973  L 88.796926 196.365452  L 89.099534 196.161145  L 90.108225 195.633491  L 90.309964 195.614904  L 91.621263 195.308171  L 91.92387 195.270788  L 92.327347 195.203387  L 93.23517 195.060038  L 94.748207 194.679821  L 95.65603 194.284234  L 95.958637 194.180531  L 96.362114 193.935935  L 98.278628 193.069439  L 98.379497 193.156181  L 98.581236 193.073587  L 98.682105 193.048083  L 98.883843 192.855619  L 98.984712 192.809456  L 99.085582 192.615288  L 99.28732 193.011152  L 99.690797 192.836294  L 99.993404 192.707796  L 101.304703 191.931325  L 101.70818 191.683622  L 102.515133 191.226074  L 102.817741 191.075453  L 105.036863 190.02121  L 105.137732 190.07092  L 105.33947 189.929393  L 105.541209 189.962789  L 106.348162 189.667688  L 106.5499 189.575178  L 106.65077 189.422085  L 106.953377 189.490163  L 107.155115 189.371201  L 107.356854 189.340324  L 107.558592 189.195574  L 107.962069 189.068972  L 109.172499 188.653473  L 109.374237 188.62069  L 109.676845 188.573792  L 109.979452 188.42322  L 110.181191 188.400142  L 110.584667 188.208754  L 110.988144 188.057566  L 111.189882 188.017834  L 111.49249 187.870627  L 112.097705 187.799289  L 113.509873 187.771908  L 113.711612 187.7765  L 113.91335 187.799915  L 114.115088 187.78723  L 114.619434 187.749267  L 115.022911 187.664109  L 116.132472 187.446306  L 116.233341 187.494453  L 116.435079 187.417948  L 117.242033 187.399267  L 117.948117 187.254303  L 118.149855 187.131343  L 118.250724 187.190872  L 118.452463 186.99921  L 118.553332 187.08449  L 118.855939 186.859724  L 119.057678 186.808783  L 119.9655 186.523202  L 120.167239 186.493768  L 120.469846 186.382278  L 120.570715 186.358299  L 120.873323 186.035503  L 121.075061 186.19178  L 121.276799 185.979748  L 121.478538 185.879198  L 121.680276 185.717292  L 121.882014 185.92493  L 121.982884 185.477587  L 122.083753 185.756253  L 122.184622 185.441373  L 122.285491 185.487712  L 122.991575 185.330072  L 124.706351 184.649448  L 124.80722 184.669619  L 125.008959 184.587947  L 125.916781 184.400064  L 126.219389 184.229746  L 126.824604 184.097095  L 126.925473 184.170718  L 127.026342 185.080139  L 127.127211 184.99196  L 127.228081 184.996985  L 127.32895 184.161853  L 127.631557 184.969254  L 127.934165 184.285938  L 128.135903 184.616117  L 128.236772 184.456739  L 128.337641 184.513947  L 128.53938 184.465826  L 128.942857 184.441021  L 129.144595 184.732802  L 129.346333 184.50178  L 129.447202 184.43243  L 129.648941 184.653631  L 129.74981 184.663014  L 129.850679 184.793741  L 129.850679 184.793741  " clip-path="url(#p0e2ee3d05b)" style="fill: none; stroke: #9467bd; stroke-width: 1.5; stroke-linecap: square"/>
   </g>
   <g id="line2d_2">
    <path d="M 42.382205 257.997942  L 43.963035 252.881186  L 45.280393 249.633829  L 46.466015 247.198336  L 48.17858 244.023981  L 52.130654 234.908049  L 54.370162 229.362167  L 58.980914 218.710322  L 66.226382 203.402868  L 73.998794 189.150254  L 75.05268 187.581742  L 77.423924 184.639217  L 80.190376 180.470185  L 91.124446 159.767648  L 92.573539 157.137446  L 94.022633 154.520871  L 96.130406 150.848974  L 96.525613 150.123282  L 96.92082 149.395059  L 97.447763 148.673045  L 99.4238 145.744537  L 101.399837 143.068294  L 107.327947 135.738069  L 113.256058 128.914572  L 121.29194 119.815116  L 122.609298 118.445574  L 123.79492 117.20795  L 125.244014 115.779906  L 127.351786 113.79774  L 131.172124 110.689711  L 135.387669 108.081811  L 135.782877 107.812555  L 144.74091 101.576378  L 147.112154 100.272612  L 147.24389 100.349795  L 150.800756 97.969161  L 151.064228 97.954038  L 151.722907 97.58682  L 151.854642 97.587554  L 151.986378 97.336259  L 152.118114 97.431497  L 152.645057 96.95965  L 152.776793 97.013297  L 152.908529 97.191185  L 153.040264 97.146492  L 153.172 96.725004  L 153.303736 97.053085  L 153.698943 96.782325  L 153.830679 96.978544  L 154.094151 96.619104  L 160.153997 93.707795  L 164.633014 91.313385  L 168.585087 88.948416  L 172.141953 86.56402  L 175.567084 83.994904  L 177.279649 82.768856  L 178.333535 82.366718  L 179.255686 82.053121  L 179.519157 82.04661  L 180.0461 81.790487  L 180.704779 81.662809  L 180.836515 81.51419  L 180.968251 81.577421  L 181.231722 81.475563  L 181.363458 81.502361  L 181.62693 81.394902  L 182.022137 81.138844  L 182.153873 81.23486  L 182.54908 81.007992  L 183.339495 80.69768  L 183.471231 80.588304  L 183.602966 80.637553  L 183.998174 80.366169  L 184.393381 80.237432  L 184.920324 79.960835  L 185.710739 79.764009  L 185.974211 79.64456  L 186.105946 79.677991  L 186.369418 79.5556  L 186.63289 79.635216  L 186.764625 79.730399  L 186.896361 79.587674  L 187.028097 79.777027  L 187.686776 79.442936  L 187.818512 79.491646  L 187.950247 79.297459  L 188.081983 79.480783  L 188.608926 79.261278  L 188.740662 79.329251  L 188.872398 79.141128  L 189.004134 79.399167  L 189.267605 79.101214  L 189.399341 79.187123  L 189.662813 78.991851  L 189.794548 79.259333  L 190.453227 78.986646  L 190.584963 79.062961  L 191.111906 78.890976  L 191.375378 78.863118  L 191.770585 78.792143  L 191.902321 78.495959  L 192.034057 78.607602  L 192.165792 78.559751  L 192.297528 78.653034  L 192.429264 78.277756  L 192.561 78.252258  L 193.087943 78.549809  L 193.219679 78.112007  L 193.48315 78.292383  L 193.746622 78.085064  L 193.878358 78.163821  L 194.141829 77.923728  L 194.273565 78.007133  L 194.405301 77.946616  L 194.537037 78.042041  L 194.800508 77.805085  L 194.932244 77.936871  L 196.249602 77.485402  L 196.513073 77.580557  L 196.908281 77.291804  L 197.171752 77.218923  L 197.56696 77.035008  L 198.093903 77.131986  L 198.225639 76.848596  L 198.357374 76.940089  L 198.48911 77.259016  L 198.620846 76.941871  L 198.752582 77.09985  L 198.884317 76.925089  L 199.016053 77.469491  L 199.147789 77.518989  L 199.411261 77.321815  L 199.674732 77.239615  L 199.806468 76.585829  L 199.938204 77.201586  L 200.860354 76.790457  L 201.123826 76.918759  L 201.387297 76.591568  L 201.650769 76.646642  L 201.782505 76.5609  L 202.836391 73.860258  L 203.363334 73.128782  L 203.890277 72.746554  L 204.41722 72.646251  L 204.944164 72.76055  L 205.734578 73.187109  L 207.315408 74.12448  L 207.842351 74.18905  L 208.105822 74.117322  L 208.105822 74.117322  " clip-path="url(#p0e2ee3d05b)" style="fill: none; stroke: #ffbc79; stroke-width: 1.5; stroke-linecap: square"/>
   </g>
   <g id="line2d_3">
    <path d="M 40.515268 256.740323  L 40.820765 256.372553  L 42.246418 252.839238  L 42.857412 251.753448  L 43.264741 250.857755  L 44.0794 248.541252  L 44.792227 246.653907  L 45.708718 244.742142  L 47.032539 241.953139  L 50.393007 234.38497  L 52.735151 229.777905  L 54.466301 225.764943  L 60.067081 213.383408  L 62.409225 208.876771  L 64.140375 205.816593  L 64.34404 205.077687  L 64.853202 204.555697  L 66.380687 201.953502  L 70.046652 195.668271  L 75.240103 185.753866  L 82.572033 171.166648  L 85.627004 165.524529  L 90.616789 156.75756  L 93.264431 152.004171  L 95.81024 146.820106  L 96.013905 145.107194  L 96.726731 144.73059  L 97.032228 144.144562  L 102.531176 132.950121  L 104.567823 129.424183  L 107.622794 124.432815  L 109.659441 120.7922  L 112.510747 115.842207  L 115.056556 111.600733  L 118.21336 106.541542  L 122.490319 100.462936  L 125.647122 96.509627  L 126.258116 95.879538  L 128.091099 93.916544  L 132.266225 89.289764  L 137.765173 82.891088  L 144.587941 74.871332  L 147.13375 72.332023  L 155.585836 64.101232  L 160.575622 59.100082  L 166.278234 54.036353  L 168.722211 52.210369  L 170.249696 51.151666  L 171.26802 50.456516  L 186.644707 39.377211  L 187.561198 38.820347  L 188.274024 38.352942  L 188.783186 38.04846  L 189.496013 37.618133  L 192.449151 35.885607  L 194.689463 34.589754  L 195.096793 34.365563  L 197.846266 32.81146  L 201.206734 30.865718  L 201.715896 30.5845  L 202.632387 30.070075  L 203.650711 29.555961  L 218.416403 21.920694  L 219.536559 21.290569  L 220.249386 20.894903  L 220.554883 20.718397  L 220.962212 20.519893  L 221.26771 20.345466  L 221.573207 20.205717  L 224.73001 18.475956  L 226.053831 17.722022  L 231.450946 15.41935  L 232.265605 15.142988  L 232.265605 15.142988  " clip-path="url(#p0e2ee3d05b)" style="fill: none; stroke: #ababab; stroke-width: 1.5; stroke-linecap: square"/>
   </g>
   <g id="line2d_4">
    <path d="M 42.037223 250.87366  L 43.359634 248.653103  L 48.038935 241.112319  L 50.480309 235.938254  L 52.413064 232.029841  L 65.840623 206.258705  L 67.366482 203.637723  L 69.095789 200.908554  L 72.147507 196.304026  L 73.469918 193.715267  L 76.318188 187.183872  L 82.625072 169.752539  L 84.862999 163.914061  L 90.559539 149.596506  L 97.680214 133.606711  L 100.630208 126.210795  L 102.868135 120.797553  L 104.800889 116.506738  L 105.919853 113.905832  L 107.852607 109.668124  L 109.887086 105.546127  L 112.430184 100.827322  L 113.956043 98.011872  L 124.026713 78.908644  L 127.180155 72.863482  L 131.249112 65.796391  L 139.387027 53.418657  L 142.133573 49.167326  L 156.578371 28.863362  L 159.12147 25.684143  L 160.443881 24.048669  L 162.274911 21.82903  L 164.512838 19.093622  L 164.512838 19.093622  " clip-path="url(#p0e2ee3d05b)" style="fill: none; stroke: #3d4389; stroke-width: 1.5; stroke-linecap: square"/>
   </g>
   <g id="line2d_5">
    <path d="M 42.598845 251.526512  L 44.918836 246.350003  L 47.844042 241.666275  L 49.256211 239.859193  L 50.769248 237.845541  L 51.878809 236.168894  L 56.115314 226.594217  L 58.031829 222.741204  L 61.56225 215.416357  L 70.438737 196.815516  L 73.263074 192.271553  L 76.793495 186.310722  L 79.416093 181.188236  L 80.929131 177.67245  L 86.376066 164.177951  L 88.595188 157.980819  L 91.318655 150.776522  L 93.1343 146.415764  L 98.480367 133.382814  L 101.405573 125.66388  L 107.558592 108.023854  L 110.080321 101.001242  L 112.803789 94.068673  L 115.426387 87.646392  L 118.048986 81.469452  L 121.377669 73.960872  L 133.582838 46.136337  L 138.32369 36.202931  L 146.191485 19.701901  L 146.494092 19.098058  L 146.494092 19.098058  " clip-path="url(#p0e2ee3d05b)" style="fill: none; stroke: #ff800e; stroke-width: 1.5; stroke-linecap: square"/>
   </g>
   <g id="matplotlib.axis_1">
    <g id="xtick_1">
     <g id="line2d_6">
      <defs>
       <path id="mf9a58de086" d="M 0 0  L 0 3.5  " style="stroke: #ffffff; stroke-width: 0.8"/>
      </defs>
      <g>
       <use xlink:href="#mf9a58de086" x="36.849303" y="268.78101" style="fill: #ffffff; stroke: #ffffff; stroke-width: 0.8"/>
      </g>
     </g>
     <g id="text_1">
      <!-- 0 -->
      <g style="fill: #ffffff" transform="translate(33.758131 284.03101) scale(0.11 -0.11)">
       <defs>
        <path id="Roboto-Regular-30" d="M 3234 1944  Q 3234 825 2848 381  Q 2463 -63 1800 -63  Q 1156 -63 764 368  Q 372 800 359 1872  L 359 2638  Q 359 3753 750 4183  Q 1141 4613 1794 4613  Q 2447 4613 2834 4195  Q 3222 3778 3234 2709  L 3234 1944  z M 2653 2734  Q 2653 3503 2434 3822  Q 2216 4141 1794 4141  Q 1388 4141 1167 3831  Q 947 3522 941 2778  L 941 1850  Q 941 1088 1164 750  Q 1388 413 1800 413  Q 2222 413 2436 745  Q 2650 1078 2653 1825  L 2653 2734  z " transform="scale(0.015625)"/>
       </defs>
       <use xlink:href="#Roboto-Regular-30"/>
      </g>
     </g>
    </g>
    <g id="xtick_2">
     <g id="line2d_7">
      <g>
       <use xlink:href="#mf9a58de086" x="103.415142" y="268.78101" style="fill: #ffffff; stroke: #ffffff; stroke-width: 0.8"/>
      </g>
     </g>
     <g id="text_2">
      <!-- 10 -->
      <g style="fill: #ffffff" transform="translate(97.232799 284.03101) scale(0.11 -0.11)">
       <defs>
        <path id="Roboto-Regular-31" d="M 2278 4575  L 2278 0  L 1700 0  L 1700 3853  L 534 3428  L 534 3950  L 2188 4575  L 2278 4575  z " transform="scale(0.015625)"/>
       </defs>
       <use xlink:href="#Roboto-Regular-31"/>
       <use xlink:href="#Roboto-Regular-30" x="56.201172"/>
      </g>
     </g>
    </g>
    <g id="xtick_3">
     <g id="line2d_8">
      <g>
       <use xlink:href="#mf9a58de086" x="169.980982" y="268.78101" style="fill: #ffffff; stroke: #ffffff; stroke-width: 0.8"/>
      </g>
     </g>
     <g id="text_3">
      <!-- 20 -->
      <g style="fill: #ffffff" transform="translate(163.798638 284.03101) scale(0.11 -0.11)">
       <defs>
        <path id="Roboto-Regular-32" d="M 3359 475  L 3359 0  L 381 0  L 381 416  L 1925 2134  Q 2306 2566 2439 2819  Q 2572 3072 2572 3328  Q 2572 3663 2364 3900  Q 2156 4138 1778 4138  Q 1322 4138 1097 3878  Q 872 3619 872 3213  L 294 3213  Q 294 3788 672 4200  Q 1050 4613 1778 4613  Q 2422 4613 2786 4278  Q 3150 3944 3150 3397  Q 3150 2997 2903 2592  Q 2656 2188 2297 1797  L 1078 475  L 3359 475  z " transform="scale(0.015625)"/>
       </defs>
       <use xlink:href="#Roboto-Regular-32"/>
       <use xlink:href="#Roboto-Regular-30" x="56.201172"/>
      </g>
     </g>
    </g>
    <g id="xtick_4">
     <g id="line2d_9">
      <g>
       <use xlink:href="#mf9a58de086" x="236.546822" y="268.78101" style="fill: #ffffff; stroke: #ffffff; stroke-width: 0.8"/>
      </g>
     </g>
     <g id="text_4">
      <!-- 30 -->
      <g style="fill: #ffffff" transform="translate(230.364478 284.03101) scale(0.11 -0.11)">
       <defs>
        <path id="Roboto-Regular-33" d="M 1222 2084  L 1222 2559  L 1647 2559  Q 2094 2563 2312 2784  Q 2531 3006 2531 3338  Q 2531 4138 1738 4138  Q 1369 4138 1141 3927  Q 913 3716 913 3359  L 334 3359  Q 334 3881 720 4247  Q 1106 4613 1738 4613  Q 2353 4613 2733 4286  Q 3113 3959 3113 3325  Q 3113 3072 2942 2784  Q 2772 2497 2397 2338  Q 2850 2191 3015 1884  Q 3181 1578 3181 1269  Q 3181 631 2768 284  Q 2356 -63 1741 -63  Q 1147 -63 722 267  Q 297 597 297 1203  L 875 1203  Q 875 844 1108 628  Q 1341 413 1741 413  Q 2138 413 2369 622  Q 2600 831 2600 1256  Q 2600 1681 2337 1882  Q 2075 2084 1634 2084  L 1222 2084  z " transform="scale(0.015625)"/>
       </defs>
       <use xlink:href="#Roboto-Regular-33"/>
       <use xlink:href="#Roboto-Regular-30" x="56.201172"/>
      </g>
     </g>
    </g>
    <g id="text_5">
     <!-- Time, $t/t_{0}$ -->
     <g style="fill: #ffffff" transform="translate(117.791212 298.515385) scale(0.11 -0.11)">
      <defs>
       <path id="Roboto-Regular-54" d="M 156 4056  L 156 4550  L 3672 4550  L 3672 4056  L 2209 4056  L 2209 0  L 1616 0  L 1616 4056  L 156 4056  z " transform="scale(0.015625)"/>
       <path id="Roboto-Regular-69" d="M 444 4278  Q 444 4419 530 4516  Q 616 4613 784 4613  Q 950 4613 1039 4516  Q 1128 4419 1128 4278  Q 1128 4144 1039 4048  Q 950 3953 784 3953  Q 616 3953 530 4048  Q 444 4144 444 4278  z M 1069 3381  L 1069 0  L 488 0  L 488 3381  L 1069 3381  z " transform="scale(0.015625)"/>
       <path id="Roboto-Regular-6d" d="M 1794 2956  Q 1225 2956 1016 2478  L 1016 0  L 434 0  L 434 3381  L 984 3381  L 1000 3013  Q 1366 3444 2000 3444  Q 2325 3444 2579 3314  Q 2834 3184 2969 2900  Q 3138 3144 3408 3294  Q 3678 3444 4044 3444  Q 4588 3444 4883 3153  Q 5178 2863 5178 2222  L 5178 0  L 4597 0  L 4597 2228  Q 4597 2653 4401 2804  Q 4206 2956 3875 2956  Q 3525 2956 3325 2748  Q 3125 2541 3094 2244  L 3094 0  L 2516 0  L 2516 2225  Q 2516 2622 2319 2789  Q 2122 2956 1794 2956  z " transform="scale(0.015625)"/>
       <path id="Roboto-Regular-65" d="M 3116 591  Q 2950 341 2647 139  Q 2344 -63 1844 -63  Q 1138 -63 714 396  Q 291 856 291 1572  L 291 1703  Q 291 2256 502 2645  Q 713 3034 1050 3239  Q 1388 3444 1769 3444  Q 2494 3444 2826 2970  Q 3159 2497 3159 1788  L 3159 1528  L 872 1528  Q 884 1063 1148 736  Q 1413 409 1875 409  Q 2181 409 2393 534  Q 2606 659 2766 869  L 3116 591  z M 1769 2969  Q 1425 2969 1187 2719  Q 950 2469 891 2000  L 2581 2000  L 2581 2044  Q 2559 2381 2386 2675  Q 2213 2969 1769 2969  z " transform="scale(0.015625)"/>
       <path id="Roboto-Regular-2c" d="M 966 688  L 966 222  Q 966 -63 822 -380  Q 678 -697 419 -909  L 91 -681  Q 391 -263 400 175  L 400 688  L 966 688  z " transform="scale(0.015625)"/>
       <path id="Roboto-Regular-20" transform="scale(0.015625)"/>
       <path id="STIXGeneral-Italic-74" d="M 1894 2739  L 1862 2534  L 1325 2534  L 768 435  Q 755 384 755 346  Q 755 243 851 243  Q 928 243 1030 342  Q 1133 442 1370 749  L 1453 704  Q 1158 256 969 93  Q 781 -70 538 -70  Q 243 -70 243 166  Q 243 230 346 640  L 845 2534  L 365 2534  L 358 2573  Q 358 2688 570 2733  Q 730 2771 992 2979  Q 1254 3187 1421 3437  Q 1459 3494 1510 3494  Q 1568 3494 1568 3443  Q 1568 3411 1562 3398  L 1382 2739  L 1894 2739  z " transform="scale(0.015625)"/>
       <path id="STIXGeneral-Regular-2f" d="M 1837 4326  L 378 -90  L -58 -90  L 1408 4326  L 1837 4326  z " transform="scale(0.015625)"/>
       <path id="STIXGeneral-Regular-30" d="M 3046 2112  Q 3046 1683 2963 1302  Q 2880 922 2717 602  Q 2554 282 2266 96  Q 1978 -90 1600 -90  Q 1210 -90 915 108  Q 621 307 461 640  Q 301 973 227 1350  Q 154 1728 154 2150  Q 154 2746 301 3222  Q 448 3699 790 4012  Q 1133 4326 1626 4326  Q 2253 4326 2649 3712  Q 3046 3098 3046 2112  z M 2432 2080  Q 2432 3091 2217 3625  Q 2003 4160 1587 4160  Q 1190 4160 979 3622  Q 768 3085 768 2106  Q 768 1120 979 598  Q 1190 77 1600 77  Q 2003 77 2217 598  Q 2432 1120 2432 2080  z " transform="scale(0.015625)"/>
      </defs>
      <use xlink:href="#Roboto-Regular-54" transform="translate(0 0.921875)"/>
      <use xlink:href="#Roboto-Regular-69" transform="translate(59.667969 0.921875)"/>
      <use xlink:href="#Roboto-Regular-6d" transform="translate(83.984375 0.921875)"/>
      <use xlink:href="#Roboto-Regular-65" transform="translate(171.679688 0.921875)"/>
      <use xlink:href="#Roboto-Regular-2c" transform="translate(224.707031 0.921875)"/>
      <use xlink:href="#Roboto-Regular-20" transform="translate(244.384766 0.921875)"/>
      <use xlink:href="#STIXGeneral-Italic-74" transform="translate(269.189453 0.921875)"/>
      <use xlink:href="#STIXGeneral-Regular-2f" transform="translate(296.989441 0.921875)"/>
      <use xlink:href="#STIXGeneral-Italic-74" transform="translate(324.789429 0.921875)"/>
      <use xlink:href="#STIXGeneral-Regular-30" transform="translate(352.589417 -12.30625) scale(0.7)"/>
     </g>
    </g>
   </g>
   <g id="matplotlib.axis_2">
    <g id="ytick_1">
     <g id="line2d_10">
      <defs>
       <path id="m38440d2ddf" d="M 0 0  L -3.5 0  " style="stroke: #ffffff; stroke-width: 0.8"/>
      </defs>
      <g>
       <use xlink:href="#m38440d2ddf" x="36.849303" y="268.78101" style="fill: #ffffff; stroke: #ffffff; stroke-width: 0.8"/>
      </g>
     </g>
     <g id="text_6">
      <!-- 0 -->
      <g style="fill: #ffffff" transform="translate(23.666959 272.90601) scale(0.11 -0.11)">
       <use xlink:href="#Roboto-Regular-30"/>
      </g>
     </g>
    </g>
    <g id="ytick_2">
     <g id="line2d_11">
      <g>
       <use xlink:href="#m38440d2ddf" x="36.849303" y="233.556559" style="fill: #ffffff; stroke: #ffffff; stroke-width: 0.8"/>
      </g>
     </g>
     <g id="text_7">
      <!-- 2 -->
      <g style="fill: #ffffff" transform="translate(23.666959 237.681559) scale(0.11 -0.11)">
       <use xlink:href="#Roboto-Regular-32"/>
      </g>
     </g>
    </g>
    <g id="ytick_3">
     <g id="line2d_12">
      <g>
       <use xlink:href="#m38440d2ddf" x="36.849303" y="198.332107" style="fill: #ffffff; stroke: #ffffff; stroke-width: 0.8"/>
      </g>
     </g>
     <g id="text_8">
      <!-- 4 -->
      <g style="fill: #ffffff" transform="translate(23.666959 202.457107) scale(0.11 -0.11)">
       <defs>
        <path id="Roboto-Regular-34" d="M 166 1397  L 2203 4550  L 2819 4550  L 2819 1531  L 3453 1531  L 3453 1056  L 2819 1056  L 2819 0  L 2241 0  L 2241 1056  L 166 1056  L 166 1397  z M 822 1531  L 2241 1531  L 2241 3766  L 2169 3638  L 822 1531  z " transform="scale(0.015625)"/>
       </defs>
       <use xlink:href="#Roboto-Regular-34"/>
      </g>
     </g>
    </g>
    <g id="ytick_4">
     <g id="line2d_13">
      <g>
       <use xlink:href="#m38440d2ddf" x="36.849303" y="163.107656" style="fill: #ffffff; stroke: #ffffff; stroke-width: 0.8"/>
      </g>
     </g>
     <g id="text_9">
      <!-- 6 -->
      <g style="fill: #ffffff" transform="translate(23.666959 167.232656) scale(0.11 -0.11)">
       <defs>
        <path id="Roboto-Regular-36" d="M 3291 1484  Q 3291 838 2930 387  Q 2569 -63 1878 -63  Q 1388 -63 1063 198  Q 738 459 577 861  Q 416 1263 416 1684  L 416 1956  Q 416 2597 595 3194  Q 775 3791 1247 4173  Q 1719 4556 2597 4556  L 2647 4556  L 2647 4066  Q 2041 4066 1705 3853  Q 1369 3641 1205 3302  Q 1041 2963 1006 2575  Q 1369 2984 1984 2984  Q 2438 2984 2727 2765  Q 3016 2547 3153 2201  Q 3291 1856 3291 1484  z M 997 1666  Q 997 1059 1267 737  Q 1538 416 1878 416  Q 2278 416 2498 708  Q 2719 1000 2719 1456  Q 2719 1863 2516 2184  Q 2313 2506 1891 2506  Q 1588 2506 1341 2325  Q 1094 2144 997 1884  L 997 1666  z " transform="scale(0.015625)"/>
       </defs>
       <use xlink:href="#Roboto-Regular-36"/>
      </g>
     </g>
    </g>
    <g id="ytick_5">
     <g id="line2d_14">
      <g>
       <use xlink:href="#m38440d2ddf" x="36.849303" y="127.883204" style="fill: #ffffff; stroke: #ffffff; stroke-width: 0.8"/>
      </g>
     </g>
     <g id="text_10">
      <!-- 8 -->
      <g style="fill: #ffffff" transform="translate(23.666959 132.008204) scale(0.11 -0.11)">
       <defs>
        <path id="Roboto-Regular-38" d="M 3244 1231  Q 3244 606 2826 271  Q 2409 -63 1796 -63  Q 1184 -63 767 271  Q 350 606 350 1231  Q 350 1613 554 1905  Q 759 2197 1109 2347  Q 806 2494 629 2762  Q 453 3031 453 3366  Q 453 3963 833 4288  Q 1213 4613 1794 4613  Q 2378 4613 2758 4288  Q 3138 3963 3138 3366  Q 3138 3028 2956 2761  Q 2775 2494 2472 2347  Q 2825 2197 3034 1903  Q 3244 1609 3244 1231  z M 2559 3356  Q 2559 3697 2346 3917  Q 2134 4138 1793 4138  Q 1453 4138 1243 3927  Q 1034 3716 1034 3356  Q 1034 3003 1243 2790  Q 1453 2578 1797 2578  Q 2138 2578 2348 2790  Q 2559 3003 2559 3356  z M 2663 1244  Q 2663 1625 2420 1865  Q 2178 2106 1791 2106  Q 1394 2106 1161 1865  Q 928 1625 928 1244  Q 928 850 1161 631  Q 1394 413 1797 413  Q 2200 413 2431 631  Q 2663 850 2663 1244  z " transform="scale(0.015625)"/>
       </defs>
       <use xlink:href="#Roboto-Regular-38"/>
      </g>
     </g>
    </g>
    <g id="ytick_6">
     <g id="line2d_15">
      <g>
       <use xlink:href="#m38440d2ddf" x="36.849303" y="92.658753" style="fill: #ffffff; stroke: #ffffff; stroke-width: 0.8"/>
      </g>
     </g>
     <g id="text_11">
      <!-- 10 -->
      <g style="fill: #ffffff" transform="translate(17.484615 96.783753) scale(0.11 -0.11)">
       <use xlink:href="#Roboto-Regular-31"/>
       <use xlink:href="#Roboto-Regular-30" x="56.201172"/>
      </g>
     </g>
    </g>
    <g id="ytick_7">
     <g id="line2d_16">
      <g>
       <use xlink:href="#m38440d2ddf" x="36.849303" y="57.434302" style="fill: #ffffff; stroke: #ffffff; stroke-width: 0.8"/>
      </g>
     </g>
     <g id="text_12">
      <!-- 12 -->
      <g style="fill: #ffffff" transform="translate(17.484615 61.559302) scale(0.11 -0.11)">
       <use xlink:href="#Roboto-Regular-31"/>
       <use xlink:href="#Roboto-Regular-32" x="56.201172"/>
      </g>
     </g>
    </g>
    <g id="ytick_8">
     <g id="line2d_17">
      <g>
       <use xlink:href="#m38440d2ddf" x="36.849303" y="22.20985" style="fill: #ffffff; stroke: #ffffff; stroke-width: 0.8"/>
      </g>
     </g>
     <g id="text_13">
      <!-- 14 -->
      <g style="fill: #ffffff" transform="translate(17.484615 26.33485) scale(0.11 -0.11)">
       <use xlink:href="#Roboto-Regular-31"/>
       <use xlink:href="#Roboto-Regular-34" x="56.201172"/>
      </g>
     </g>
    </g>
    <g id="text_14">
     <!-- Front position, $x_{\rm f}/l_{0}$ -->
     <g style="fill: #ffffff" transform="translate(11.174615 181.485625) rotate(-90) scale(0.11 -0.11)">
      <defs>
       <path id="Roboto-Regular-46" d="M 528 0  L 528 4550  L 3347 4550  L 3347 4056  L 1131 4056  L 1131 2503  L 3038 2503  L 3038 2009  L 1131 2009  L 1131 0  L 528 0  z " transform="scale(0.015625)"/>
       <path id="Roboto-Regular-72" d="M 1791 2888  Q 1225 2888 1019 2400  L 1019 0  L 441 0  L 441 3381  L 1003 3381  L 1016 2994  Q 1294 3444 1819 3444  Q 1981 3444 2075 3400  L 2072 2863  Q 1944 2888 1791 2888  z " transform="scale(0.015625)"/>
       <path id="Roboto-Regular-6f" d="M 288 1725  Q 288 2459 700 2951  Q 1113 3444 1822 3444  Q 2531 3444 2943 2961  Q 3356 2478 3366 1756  L 3366 1653  Q 3366 919 2952 428  Q 2538 -63 1828 -63  Q 1116 -63 702 428  Q 288 919 288 1653  L 288 1725  z M 866 1653  Q 866 1150 1105 781  Q 1344 413 1828 413  Q 2300 413 2540 777  Q 2781 1141 2784 1644  L 2784 1725  Q 2784 2222 2543 2595  Q 2303 2969 1822 2969  Q 1344 2969 1105 2595  Q 866 2222 866 1725  L 866 1653  z " transform="scale(0.015625)"/>
       <path id="Roboto-Regular-6e" d="M 1844 2956  Q 1566 2956 1353 2806  Q 1141 2656 1019 2416  L 1019 0  L 441 0  L 441 3381  L 988 3381  L 1006 2959  Q 1391 3444 2016 3444  Q 2513 3444 2805 3166  Q 3097 2888 3100 2231  L 3100 0  L 2519 0  L 2519 2222  Q 2519 2619 2345 2787  Q 2172 2956 1844 2956  z " transform="scale(0.015625)"/>
       <path id="Roboto-Regular-74" d="M 1872 0  Q 1675 -63 1425 -63  Q 1103 -63 875 134  Q 647 331 647 841  L 647 2938  L 28 2938  L 28 3381  L 647 3381  L 647 4203  L 1225 4203  L 1225 3381  L 1856 3381  L 1856 2938  L 1225 2938  L 1225 838  Q 1225 578 1337 506  Q 1450 434 1597 434  Q 1706 434 1869 472  L 1872 0  z " transform="scale(0.015625)"/>
       <path id="Roboto-Regular-70" d="M 1984 -63  Q 1375 -63 1019 328  L 1019 -1300  L 438 -1300  L 438 3381  L 969 3381  L 997 3009  Q 1353 3444 1975 3444  Q 2616 3444 2956 2969  Q 3297 2494 3297 1719  L 3297 1653  Q 3297 913 2955 425  Q 2613 -63 1984 -63  z M 1806 2956  Q 1281 2956 1019 2491  L 1019 872  Q 1284 413 1813 413  Q 2281 413 2498 781  Q 2716 1150 2716 1653  L 2716 1719  Q 2716 2222 2498 2589  Q 2281 2956 1806 2956  z " transform="scale(0.015625)"/>
       <path id="Roboto-Regular-73" d="M 2409 897  Q 2409 1081 2273 1229  Q 2138 1378 1647 1478  Q 1081 1594 747 1814  Q 413 2034 413 2456  Q 413 2856 755 3150  Q 1097 3444 1666 3444  Q 2272 3444 2612 3134  Q 2953 2825 2953 2388  L 2375 2388  Q 2375 2597 2190 2783  Q 2006 2969 1666 2969  Q 1306 2969 1150 2812  Q 994 2656 994 2472  Q 994 2288 1139 2173  Q 1284 2059 1756 1953  Q 2378 1813 2683 1584  Q 2988 1356 2988 941  Q 2988 494 2630 215  Q 2272 -63 1681 -63  Q 1009 -63 653 281  Q 297 625 297 1044  L 878 1044  Q 897 684 1155 548  Q 1413 413 1681 413  Q 2034 413 2221 550  Q 2409 688 2409 897  z " transform="scale(0.015625)"/>
       <path id="STIXGeneral-Italic-78" d="M 1555 2272  L 1632 1907  Q 1971 2426 2179 2624  Q 2387 2822 2598 2822  Q 2714 2822 2787 2755  Q 2861 2688 2861 2585  Q 2861 2483 2800 2419  Q 2739 2355 2643 2355  Q 2586 2355 2490 2409  Q 2394 2464 2310 2464  Q 2125 2464 1683 1690  Q 1683 1606 1734 1402  L 1939 544  Q 2003 282 2131 282  Q 2234 282 2432 538  Q 2451 563 2476 598  Q 2502 634 2521 662  Q 2541 691 2566 717  L 2662 659  Q 2387 230 2227 80  Q 2067 -70 1882 -70  Q 1728 -70 1645 26  Q 1562 122 1504 365  L 1318 1126  L 755 365  Q 557 96 432 13  Q 307 -70 147 -70  Q 0 -70 -86 0  Q -173 70 -173 198  Q -173 294 -112 361  Q -51 429 45 429  Q 122 429 250 358  Q 346 301 416 301  Q 525 301 742 614  L 1267 1357  L 1088 2150  Q 1024 2432 969 2509  Q 915 2586 794 2586  Q 717 2586 544 2541  L 429 2509  L 410 2611  L 480 2637  Q 992 2822 1229 2822  Q 1350 2822 1420 2707  Q 1491 2592 1555 2272  z " transform="scale(0.015625)"/>
       <path id="STIXGeneral-Regular-66" d="M 134 2880  L 659 2880  Q 666 3264 710 3478  Q 755 3693 883 3910  Q 1152 4371 1786 4371  Q 2074 4371 2262 4259  Q 2451 4147 2451 3974  Q 2451 3866 2374 3789  Q 2298 3712 2182 3712  Q 2029 3712 1894 3942  Q 1741 4192 1555 4192  Q 1197 4192 1197 3622  L 1197 2880  L 1978 2880  L 1978 2675  L 1197 2675  L 1197 666  Q 1197 307 1299 208  Q 1402 109 1792 96  L 1792 0  L 128 0  L 128 96  Q 474 115 566 214  Q 659 314 659 666  L 659 2675  L 134 2675  L 134 2880  z " transform="scale(0.015625)"/>
       <path id="STIXGeneral-Italic-6c" d="M 1786 4339  L 806 595  Q 755 410 755 320  Q 755 205 864 205  Q 1037 205 1293 570  L 1453 794  L 1542 730  Q 1254 275 1046 102  Q 838 -70 576 -70  Q 262 -70 262 288  Q 262 397 288 480  L 1165 3834  Q 1184 3898 1184 3955  Q 1184 4096 870 4096  L 755 4096  L 755 4198  Q 1203 4250 1747 4371  L 1786 4339  z " transform="scale(0.015625)"/>
      </defs>
      <use xlink:href="#Roboto-Regular-46" transform="translate(0 0.921875)"/>
      <use xlink:href="#Roboto-Regular-72" transform="translate(55.273438 0.921875)"/>
      <use xlink:href="#Roboto-Regular-6f" transform="translate(89.160156 0.921875)"/>
      <use xlink:href="#Roboto-Regular-6e" transform="translate(146.191406 0.921875)"/>
      <use xlink:href="#Roboto-Regular-74" transform="translate(201.416016 0.921875)"/>
      <use xlink:href="#Roboto-Regular-20" transform="translate(234.130859 0.921875)"/>
      <use xlink:href="#Roboto-Regular-70" transform="translate(258.935547 0.921875)"/>
      <use xlink:href="#Roboto-Regular-6f" transform="translate(315.087891 0.921875)"/>
      <use xlink:href="#Roboto-Regular-73" transform="translate(372.119141 0.921875)"/>
      <use xlink:href="#Roboto-Regular-69" transform="translate(423.730469 0.921875)"/>
      <use xlink:href="#Roboto-Regular-74" transform="translate(448.046875 0.921875)"/>
      <use xlink:href="#Roboto-Regular-69" transform="translate(480.761719 0.921875)"/>
      <use xlink:href="#Roboto-Regular-6f" transform="translate(505.078125 0.921875)"/>
      <use xlink:href="#Roboto-Regular-6e" transform="translate(562.109375 0.921875)"/>
      <use xlink:href="#Roboto-Regular-2c" transform="translate(617.333984 0.921875)"/>
      <use xlink:href="#Roboto-Regular-20" transform="translate(637.011719 0.921875)"/>
      <use xlink:href="#STIXGeneral-Italic-78" transform="translate(661.816406 0.921875)"/>
      <use xlink:href="#STIXGeneral-Regular-66" transform="translate(706.2164 -12.30625) scale(0.7)"/>
      <use xlink:href="#STIXGeneral-Regular-2f" transform="translate(733.935767 0.921875)"/>
      <use xlink:href="#STIXGeneral-Italic-6c" transform="translate(761.735754 0.921875)"/>
      <use xlink:href="#STIXGeneral-Regular-30" transform="translate(789.535742 -12.30625) scale(0.7)"/>
     </g>
    </g>
   </g>
   <g id="patch_3">
    <path d="M 36.849303 268.78101  L 36.849303 3.00024  " style="fill: none; stroke: #ffffff; stroke-width: 0.8; stroke-linejoin: miter; stroke-linecap: square"/>
   </g>
   <g id="patch_4">
    <path d="M 241.853121 268.78101  L 241.853121 3.00024  " style="fill: none; stroke: #ffffff; stroke-width: 0.8; stroke-linejoin: miter; stroke-linecap: square"/>
   </g>
   <g id="patch_5">
    <path d="M 36.849303 268.78101  L 241.853121 268.78101  " style="fill: none; stroke: #ffffff; stroke-width: 0.8; stroke-linejoin: miter; stroke-linecap: square"/>
   </g>
   <g id="patch_6">
    <path d="M 36.849303 3.00024  L 241.853121 3.00024  " style="fill: none; stroke: #ffffff; stroke-width: 0.8; stroke-linejoin: miter; stroke-linecap: square"/>
   </g>
   <g id="legend_1">
    <g id="patch_7">
     <path d="M 179.703121 263.28101  L 234.153121 263.28101  Q 236.353121 263.28101 236.353121 261.08101  L 236.353121 166.27476  Q 236.353121 164.07476 234.153121 164.07476  L 179.703121 164.07476  Q 177.503121 164.07476 177.503121 166.27476  L 177.503121 261.08101  Q 177.503121 263.28101 179.703121 263.28101  z " style="fill: #191919; opacity: 0.8; stroke: #cccccc; stroke-linejoin: miter"/>
    </g>
    <g id="text_15">
     <!-- $\mathcal{S}t$ -->
     <g style="fill: #ffffff" transform="translate(201.868121 176.72476) scale(0.11 -0.11)">
      <defs>
       <path id="STIXNonUnicode-Italic-e23f" d="M 243 1235  L 410 1254  Q 518 582 1139 365  Q 1421 262 1766 262  Q 2304 262 2685 515  Q 3066 768 3066 1235  Q 3066 1427 2883 1571  Q 2701 1715 2445 1817  Q 2189 1920 1929 2045  Q 1670 2170 1488 2403  Q 1306 2637 1306 2970  Q 1306 3290 1507 3555  Q 1709 3821 2000 3974  Q 2291 4128 2572 4211  Q 2854 4294 3059 4294  Q 3603 4294 3948 4134  Q 4294 3974 4294 3642  Q 4294 3462 4182 3299  Q 4070 3136 3853 3136  Q 3712 3136 3603 3232  Q 3494 3328 3494 3456  Q 3494 3603 3590 3708  Q 3686 3814 3686 3840  Q 3686 3917 3628 3965  Q 3571 4013 3456 4032  Q 3341 4051 3264 4054  Q 3187 4058 3059 4058  Q 2931 4058 2745 4010  Q 2560 3962 2352 3866  Q 2144 3770 2000 3581  Q 1856 3392 1856 3155  Q 1856 2931 2057 2771  Q 2259 2611 2550 2502  Q 2842 2394 3133 2269  Q 3424 2144 3625 1920  Q 3827 1696 3827 1376  Q 3827 902 3206 451  Q 2586 0 1805 0  Q 992 0 617 339  Q 243 678 243 1235  z " transform="scale(0.015625)"/>
      </defs>
      <use xlink:href="#STIXNonUnicode-Italic-e23f" transform="translate(0 0.90625)"/>
      <use xlink:href="#STIXGeneral-Italic-74" transform="translate(63.399994 0.90625)"/>
     </g>
    </g>
    <g id="line2d_18">
     <path d="M 181.903121 188.859135  L 192.903121 188.859135  L 203.903121 188.859135  " style="fill: none; stroke: #ff800e; stroke-width: 1.5; stroke-linecap: square"/>
    </g>
    <g id="text_16">
     <!-- $0.01$ -->
     <g style="fill: #ffffff" transform="translate(212.703121 192.709135) scale(0.11 -0.11)">
      <defs>
       <path id="STIXGeneral-Regular-2e" d="M 1158 275  Q 1158 134 1052 32  Q 947 -70 800 -70  Q 653 -70 550 32  Q 448 134 448 281  Q 448 429 553 534  Q 659 640 806 640  Q 947 640 1052 531  Q 1158 422 1158 275  z " transform="scale(0.015625)"/>
       <path id="STIXGeneral-Regular-31" d="M 2522 0  L 755 0  L 755 96  Q 1107 115 1235 227  Q 1363 339 1363 608  L 1363 3482  Q 1363 3795 1171 3795  Q 1082 3795 883 3718  L 710 3654  L 710 3744  L 1856 4326  L 1914 4307  L 1914 486  Q 1914 275 2042 185  Q 2170 96 2522 96  L 2522 0  z " transform="scale(0.015625)"/>
      </defs>
      <use xlink:href="#STIXGeneral-Regular-30" transform="translate(0 0.40625)"/>
      <use xlink:href="#STIXGeneral-Regular-2e" transform="translate(49.999985 0.40625)"/>
      <use xlink:href="#STIXGeneral-Regular-30" transform="translate(74.999969 0.40625)"/>
      <use xlink:href="#STIXGeneral-Regular-31" transform="translate(124.999954 0.40625)"/>
     </g>
    </g>
    <g id="line2d_19">
     <path d="M 181.903121 204.84351  L 192.903121 204.84351  L 203.903121 204.84351  " style="fill: none; stroke: #3d4389; stroke-width: 1.5; stroke-linecap: square"/>
    </g>
    <g id="text_17">
     <!-- $0.02$ -->
     <g style="fill: #ffffff" transform="translate(212.703121 208.69351) scale(0.11 -0.11)">
      <defs>
       <path id="STIXGeneral-Regular-32" d="M 3034 877  L 2688 0  L 186 0  L 186 77  L 1325 1286  Q 1773 1754 1965 2144  Q 2157 2534 2157 2950  Q 2157 3379 1920 3616  Q 1683 3853 1267 3853  Q 922 3853 720 3673  Q 518 3494 326 3021  L 192 3053  Q 301 3648 630 3987  Q 960 4326 1523 4326  Q 2054 4326 2380 4006  Q 2707 3686 2707 3200  Q 2707 2477 1888 1613  L 832 486  L 2330 486  Q 2541 486 2665 569  Q 2790 653 2944 915  L 3034 877  z " transform="scale(0.015625)"/>
      </defs>
      <use xlink:href="#STIXGeneral-Regular-30" transform="translate(0 0.40625)"/>
      <use xlink:href="#STIXGeneral-Regular-2e" transform="translate(49.999985 0.40625)"/>
      <use xlink:href="#STIXGeneral-Regular-30" transform="translate(74.999969 0.40625)"/>
      <use xlink:href="#STIXGeneral-Regular-32" transform="translate(124.999954 0.40625)"/>
     </g>
    </g>
    <g id="line2d_20">
     <path d="M 181.903121 220.827885  L 192.903121 220.827885  L 203.903121 220.827885  " style="fill: none; stroke: #ababab; stroke-width: 1.5; stroke-linecap: square"/>
    </g>
    <g id="text_18">
     <!-- $0.04$ -->
     <g style="fill: #ffffff" transform="translate(212.703121 224.677885) scale(0.11 -0.11)">
      <defs>
       <path id="STIXGeneral-Regular-34" d="M 3027 1069  L 2368 1069  L 2368 0  L 1869 0  L 1869 1069  L 77 1069  L 77 1478  L 2086 4326  L 2368 4326  L 2368 1478  L 3027 1478  L 3027 1069  z M 1869 1478  L 1869 3674  L 333 1478  L 1869 1478  z " transform="scale(0.015625)"/>
      </defs>
      <use xlink:href="#STIXGeneral-Regular-30" transform="translate(0 0.40625)"/>
      <use xlink:href="#STIXGeneral-Regular-2e" transform="translate(49.999985 0.40625)"/>
      <use xlink:href="#STIXGeneral-Regular-30" transform="translate(74.999969 0.40625)"/>
      <use xlink:href="#STIXGeneral-Regular-34" transform="translate(124.999954 0.40625)"/>
     </g>
    </g>
    <g id="line2d_21">
     <path d="M 181.903121 236.81226  L 192.903121 236.81226  L 203.903121 236.81226  " style="fill: none; stroke: #ffbc79; stroke-width: 1.5; stroke-linecap: square"/>
    </g>
    <g id="text_19">
     <!-- $0.05$ -->
     <g style="fill: #ffffff" transform="translate(212.703121 240.66226) scale(0.11 -0.11)">
      <defs>
       <path id="STIXGeneral-Regular-35" d="M 2803 4358  L 2573 3814  Q 2534 3731 2400 3731  L 1158 3731  L 902 3187  Q 1606 3053 1920 2896  Q 2234 2739 2502 2368  Q 2726 2061 2726 1555  Q 2726 1094 2576 780  Q 2426 467 2099 224  Q 1664 -90 1011 -90  Q 646 -90 422 19  Q 198 128 198 307  Q 198 550 486 550  Q 717 550 960 352  Q 1210 147 1414 147  Q 1747 147 2012 480  Q 2278 813 2278 1229  Q 2278 1843 1850 2189  Q 1293 2637 486 2637  Q 410 2637 410 2688  L 416 2720  L 1114 4237  L 2438 4237  Q 2547 4237 2608 4269  Q 2669 4301 2746 4403  L 2803 4358  z " transform="scale(0.015625)"/>
      </defs>
      <use xlink:href="#STIXGeneral-Regular-30" transform="translate(0 0.203125)"/>
      <use xlink:href="#STIXGeneral-Regular-2e" transform="translate(49.999985 0.203125)"/>
      <use xlink:href="#STIXGeneral-Regular-30" transform="translate(74.999969 0.203125)"/>
      <use xlink:href="#STIXGeneral-Regular-35" transform="translate(124.999954 0.203125)"/>
     </g>
    </g>
    <g id="line2d_22">
     <path d="M 181.903121 252.796635  L 192.903121 252.796635  L 203.903121 252.796635  " style="fill: none; stroke: #9467bd; stroke-width: 1.5; stroke-linecap: square"/>
    </g>
    <g id="text_20">
     <!-- $0.10$ -->
     <g style="fill: #ffffff" transform="translate(212.703121 256.646635) scale(0.11 -0.11)">
      <use xlink:href="#STIXGeneral-Regular-30" transform="translate(0 0.40625)"/>
      <use xlink:href="#STIXGeneral-Regular-2e" transform="translate(49.999985 0.40625)"/>
      <use xlink:href="#STIXGeneral-Regular-31" transform="translate(74.999969 0.40625)"/>
      <use xlink:href="#STIXGeneral-Regular-30" transform="translate(124.999954 0.40625)"/>
     </g>
    </g>
   </g>
  </g>
 </g>
 <defs>
  <clipPath id="p0e2ee3d05b">
   <rect x="36.849303" y="3.00024" width="205.003819" height="265.78077"/>
  </clipPath>
 </defs>
</svg>
