<?xml version='1.0' encoding='ASCII' standalone='yes'?>
<svg xmlns:xlink="http://www.w3.org/1999/xlink" xmlns="http://www.w3.org/2000/svg" width="540.625606pt" height="455.625pt" viewBox="0 0 270.312803 227.8125" version="1.1">
 <metadata>
  <rdf:RDF xmlns:dc="http://purl.org/dc/elements/1.1/" xmlns:cc="http://creativecommons.org/ns#" xmlns:rdf="http://www.w3.org/1999/02/22-rdf-syntax-ns#">
   <cc:Work>
    <dc:type rdf:resource="http://purl.org/dc/dcmitype/StillImage"/>
    <dc:date>2023-11-27T12:55:30.000186</dc:date>
    <dc:format>image/svg+xml</dc:format>
    <dc:creator>
     <cc:Agent>
      <dc:title>Matplotlib v3.8.0, https://matplotlib.org/</dc:title>
     </cc:Agent>
    </dc:creator>
   </cc:Work>
  </rdf:RDF>
 </metadata>
 <defs>
  <style type="text/css">*{stroke-linejoin: round; stroke-linecap: butt}</style>
 </defs>
 <g id="figure_1">
  <g id="patch_1">
   <path d="M 0 227.8125  L 270.312803 227.8125  L 270.312803 0  L 0 0  z " style="fill: #191919"/>
  </g>
  <g id="axes_1">
   <g id="patch_2">
    <path d="M 17.484615 192.84351  L 267.312563 192.84351  L 267.312563 3.00024  L 17.484615 3.00024  z " style="fill: #191919"/>
   </g>
   <g id="matplotlib.axis_1">
    <g id="xtick_1">
     <g id="line2d_1">
      <defs>
       <path id="m24c0eb8884" d="M 0 0  L 0 3.5  " style="stroke: #ffffff; stroke-width: 0.8"/>
      </defs>
      <g>
       <use xlink:href="#m24c0eb8884" x="110.588198" y="192.84351" style="fill: #ffffff; stroke: #ffffff; stroke-width: 0.8"/>
      </g>
     </g>
     <g id="text_1">
      <!-- $\sim \tau$ -->
      <g style="fill: #ffffff" transform="translate(102.943198 208.09351) scale(0.11 -0.11)">
       <defs>
        <path id="STIXGeneral-Regular-223c" d="M 3866 2317  L 4077 2317  Q 4045 1843 3769 1427  Q 3494 1011 3066 1011  Q 2803 1011 2460 1216  Q 2118 1421 1804 1625  Q 1491 1830 1306 1830  Q 992 1830 800 1580  Q 608 1331 518 947  L 307 947  Q 333 1466 617 1859  Q 902 2253 1350 2253  Q 1613 2253 1955 2048  Q 2298 1843 2611 1638  Q 2925 1434 3117 1434  Q 3680 1434 3866 2317  z " transform="scale(0.015625)"/>
        <path id="STIXGeneral-Italic-3c4" d="M 2726 2739  L 2592 2266  L 1741 2266  Q 1293 1248 1293 742  Q 1293 416 1523 416  Q 1638 416 1779 547  Q 1920 678 2003 858  L 2106 858  Q 1990 467 1731 198  Q 1472 -70 1178 -70  Q 768 -70 768 384  Q 768 890 1395 2266  L 1005 2266  Q 493 2266 179 1702  L 77 1702  Q 237 2093 569 2416  Q 902 2739 1331 2739  L 2726 2739  z " transform="scale(0.015625)"/>
       </defs>
       <use xlink:href="#STIXGeneral-Regular-223c" transform="translate(14.439996 0.203125)"/>
       <use xlink:href="#STIXGeneral-Italic-3c4" transform="translate(97.379977 0.203125)"/>
      </g>
     </g>
    </g>
    <g id="text_2">
     <!-- Time, $t/t_{0}$ -->
     <g style="fill: #ffffff" transform="translate(120.838589 222.577885) scale(0.11 -0.11)">
      <defs>
       <path id="Roboto-Regular-54" d="M 156 4056  L 156 4550  L 3672 4550  L 3672 4056  L 2209 4056  L 2209 0  L 1616 0  L 1616 4056  L 156 4056  z " transform="scale(0.015625)"/>
       <path id="Roboto-Regular-69" d="M 444 4278  Q 444 4419 530 4516  Q 616 4613 784 4613  Q 950 4613 1039 4516  Q 1128 4419 1128 4278  Q 1128 4144 1039 4048  Q 950 3953 784 3953  Q 616 3953 530 4048  Q 444 4144 444 4278  z M 1069 3381  L 1069 0  L 488 0  L 488 3381  L 1069 3381  z " transform="scale(0.015625)"/>
       <path id="Roboto-Regular-6d" d="M 1794 2956  Q 1225 2956 1016 2478  L 1016 0  L 434 0  L 434 3381  L 984 3381  L 1000 3013  Q 1366 3444 2000 3444  Q 2325 3444 2579 3314  Q 2834 3184 2969 2900  Q 3138 3144 3408 3294  Q 3678 3444 4044 3444  Q 4588 3444 4883 3153  Q 5178 2863 5178 2222  L 5178 0  L 4597 0  L 4597 2228  Q 4597 2653 4401 2804  Q 4206 2956 3875 2956  Q 3525 2956 3325 2748  Q 3125 2541 3094 2244  L 3094 0  L 2516 0  L 2516 2225  Q 2516 2622 2319 2789  Q 2122 2956 1794 2956  z " transform="scale(0.015625)"/>
       <path id="Roboto-Regular-65" d="M 3116 591  Q 2950 341 2647 139  Q 2344 -63 1844 -63  Q 1138 -63 714 396  Q 291 856 291 1572  L 291 1703  Q 291 2256 502 2645  Q 713 3034 1050 3239  Q 1388 3444 1769 3444  Q 2494 3444 2826 2970  Q 3159 2497 3159 1788  L 3159 1528  L 872 1528  Q 884 1063 1148 736  Q 1413 409 1875 409  Q 2181 409 2393 534  Q 2606 659 2766 869  L 3116 591  z M 1769 2969  Q 1425 2969 1187 2719  Q 950 2469 891 2000  L 2581 2000  L 2581 2044  Q 2559 2381 2386 2675  Q 2213 2969 1769 2969  z " transform="scale(0.015625)"/>
       <path id="Roboto-Regular-2c" d="M 966 688  L 966 222  Q 966 -63 822 -380  Q 678 -697 419 -909  L 91 -681  Q 391 -263 400 175  L 400 688  L 966 688  z " transform="scale(0.015625)"/>
       <path id="Roboto-Regular-20" transform="scale(0.015625)"/>
       <path id="STIXGeneral-Italic-74" d="M 1894 2739  L 1862 2534  L 1325 2534  L 768 435  Q 755 384 755 346  Q 755 243 851 243  Q 928 243 1030 342  Q 1133 442 1370 749  L 1453 704  Q 1158 256 969 93  Q 781 -70 538 -70  Q 243 -70 243 166  Q 243 230 346 640  L 845 2534  L 365 2534  L 358 2573  Q 358 2688 570 2733  Q 730 2771 992 2979  Q 1254 3187 1421 3437  Q 1459 3494 1510 3494  Q 1568 3494 1568 3443  Q 1568 3411 1562 3398  L 1382 2739  L 1894 2739  z " transform="scale(0.015625)"/>
       <path id="STIXGeneral-Regular-2f" d="M 1837 4326  L 378 -90  L -58 -90  L 1408 4326  L 1837 4326  z " transform="scale(0.015625)"/>
       <path id="STIXGeneral-Regular-30" d="M 3046 2112  Q 3046 1683 2963 1302  Q 2880 922 2717 602  Q 2554 282 2266 96  Q 1978 -90 1600 -90  Q 1210 -90 915 108  Q 621 307 461 640  Q 301 973 227 1350  Q 154 1728 154 2150  Q 154 2746 301 3222  Q 448 3699 790 4012  Q 1133 4326 1626 4326  Q 2253 4326 2649 3712  Q 3046 3098 3046 2112  z M 2432 2080  Q 2432 3091 2217 3625  Q 2003 4160 1587 4160  Q 1190 4160 979 3622  Q 768 3085 768 2106  Q 768 1120 979 598  Q 1190 77 1600 77  Q 2003 77 2217 598  Q 2432 1120 2432 2080  z " transform="scale(0.015625)"/>
      </defs>
      <use xlink:href="#Roboto-Regular-54" transform="translate(0 0.921875)"/>
      <use xlink:href="#Roboto-Regular-69" transform="translate(59.667969 0.921875)"/>
      <use xlink:href="#Roboto-Regular-6d" transform="translate(83.984375 0.921875)"/>
      <use xlink:href="#Roboto-Regular-65" transform="translate(171.679688 0.921875)"/>
      <use xlink:href="#Roboto-Regular-2c" transform="translate(224.707031 0.921875)"/>
      <use xlink:href="#Roboto-Regular-20" transform="translate(244.384766 0.921875)"/>
      <use xlink:href="#STIXGeneral-Italic-74" transform="translate(269.189453 0.921875)"/>
      <use xlink:href="#STIXGeneral-Regular-2f" transform="translate(296.989441 0.921875)"/>
      <use xlink:href="#STIXGeneral-Italic-74" transform="translate(324.789429 0.921875)"/>
      <use xlink:href="#STIXGeneral-Regular-30" transform="translate(352.589417 -12.30625) scale(0.7)"/>
     </g>
    </g>
   </g>
   <g id="matplotlib.axis_2">
    <g id="text_3">
     <!-- Front position, $x_{\rm f}/l_{0}$ -->
     <g style="fill: #ffffff" transform="translate(11.174615 143.516875) rotate(-90) scale(0.11 -0.11)">
      <defs>
       <path id="Roboto-Regular-46" d="M 528 0  L 528 4550  L 3347 4550  L 3347 4056  L 1131 4056  L 1131 2503  L 3038 2503  L 3038 2009  L 1131 2009  L 1131 0  L 528 0  z " transform="scale(0.015625)"/>
       <path id="Roboto-Regular-72" d="M 1791 2888  Q 1225 2888 1019 2400  L 1019 0  L 441 0  L 441 3381  L 1003 3381  L 1016 2994  Q 1294 3444 1819 3444  Q 1981 3444 2075 3400  L 2072 2863  Q 1944 2888 1791 2888  z " transform="scale(0.015625)"/>
       <path id="Roboto-Regular-6f" d="M 288 1725  Q 288 2459 700 2951  Q 1113 3444 1822 3444  Q 2531 3444 2943 2961  Q 3356 2478 3366 1756  L 3366 1653  Q 3366 919 2952 428  Q 2538 -63 1828 -63  Q 1116 -63 702 428  Q 288 919 288 1653  L 288 1725  z M 866 1653  Q 866 1150 1105 781  Q 1344 413 1828 413  Q 2300 413 2540 777  Q 2781 1141 2784 1644  L 2784 1725  Q 2784 2222 2543 2595  Q 2303 2969 1822 2969  Q 1344 2969 1105 2595  Q 866 2222 866 1725  L 866 1653  z " transform="scale(0.015625)"/>
       <path id="Roboto-Regular-6e" d="M 1844 2956  Q 1566 2956 1353 2806  Q 1141 2656 1019 2416  L 1019 0  L 441 0  L 441 3381  L 988 3381  L 1006 2959  Q 1391 3444 2016 3444  Q 2513 3444 2805 3166  Q 3097 2888 3100 2231  L 3100 0  L 2519 0  L 2519 2222  Q 2519 2619 2345 2787  Q 2172 2956 1844 2956  z " transform="scale(0.015625)"/>
       <path id="Roboto-Regular-74" d="M 1872 0  Q 1675 -63 1425 -63  Q 1103 -63 875 134  Q 647 331 647 841  L 647 2938  L 28 2938  L 28 3381  L 647 3381  L 647 4203  L 1225 4203  L 1225 3381  L 1856 3381  L 1856 2938  L 1225 2938  L 1225 838  Q 1225 578 1337 506  Q 1450 434 1597 434  Q 1706 434 1869 472  L 1872 0  z " transform="scale(0.015625)"/>
       <path id="Roboto-Regular-70" d="M 1984 -63  Q 1375 -63 1019 328  L 1019 -1300  L 438 -1300  L 438 3381  L 969 3381  L 997 3009  Q 1353 3444 1975 3444  Q 2616 3444 2956 2969  Q 3297 2494 3297 1719  L 3297 1653  Q 3297 913 2955 425  Q 2613 -63 1984 -63  z M 1806 2956  Q 1281 2956 1019 2491  L 1019 872  Q 1284 413 1813 413  Q 2281 413 2498 781  Q 2716 1150 2716 1653  L 2716 1719  Q 2716 2222 2498 2589  Q 2281 2956 1806 2956  z " transform="scale(0.015625)"/>
       <path id="Roboto-Regular-73" d="M 2409 897  Q 2409 1081 2273 1229  Q 2138 1378 1647 1478  Q 1081 1594 747 1814  Q 413 2034 413 2456  Q 413 2856 755 3150  Q 1097 3444 1666 3444  Q 2272 3444 2612 3134  Q 2953 2825 2953 2388  L 2375 2388  Q 2375 2597 2190 2783  Q 2006 2969 1666 2969  Q 1306 2969 1150 2812  Q 994 2656 994 2472  Q 994 2288 1139 2173  Q 1284 2059 1756 1953  Q 2378 1813 2683 1584  Q 2988 1356 2988 941  Q 2988 494 2630 215  Q 2272 -63 1681 -63  Q 1009 -63 653 281  Q 297 625 297 1044  L 878 1044  Q 897 684 1155 548  Q 1413 413 1681 413  Q 2034 413 2221 550  Q 2409 688 2409 897  z " transform="scale(0.015625)"/>
       <path id="STIXGeneral-Italic-78" d="M 1555 2272  L 1632 1907  Q 1971 2426 2179 2624  Q 2387 2822 2598 2822  Q 2714 2822 2787 2755  Q 2861 2688 2861 2585  Q 2861 2483 2800 2419  Q 2739 2355 2643 2355  Q 2586 2355 2490 2409  Q 2394 2464 2310 2464  Q 2125 2464 1683 1690  Q 1683 1606 1734 1402  L 1939 544  Q 2003 282 2131 282  Q 2234 282 2432 538  Q 2451 563 2476 598  Q 2502 634 2521 662  Q 2541 691 2566 717  L 2662 659  Q 2387 230 2227 80  Q 2067 -70 1882 -70  Q 1728 -70 1645 26  Q 1562 122 1504 365  L 1318 1126  L 755 365  Q 557 96 432 13  Q 307 -70 147 -70  Q 0 -70 -86 0  Q -173 70 -173 198  Q -173 294 -112 361  Q -51 429 45 429  Q 122 429 250 358  Q 346 301 416 301  Q 525 301 742 614  L 1267 1357  L 1088 2150  Q 1024 2432 969 2509  Q 915 2586 794 2586  Q 717 2586 544 2541  L 429 2509  L 410 2611  L 480 2637  Q 992 2822 1229 2822  Q 1350 2822 1420 2707  Q 1491 2592 1555 2272  z " transform="scale(0.015625)"/>
       <path id="STIXGeneral-Regular-66" d="M 134 2880  L 659 2880  Q 666 3264 710 3478  Q 755 3693 883 3910  Q 1152 4371 1786 4371  Q 2074 4371 2262 4259  Q 2451 4147 2451 3974  Q 2451 3866 2374 3789  Q 2298 3712 2182 3712  Q 2029 3712 1894 3942  Q 1741 4192 1555 4192  Q 1197 4192 1197 3622  L 1197 2880  L 1978 2880  L 1978 2675  L 1197 2675  L 1197 666  Q 1197 307 1299 208  Q 1402 109 1792 96  L 1792 0  L 128 0  L 128 96  Q 474 115 566 214  Q 659 314 659 666  L 659 2675  L 134 2675  L 134 2880  z " transform="scale(0.015625)"/>
       <path id="STIXGeneral-Italic-6c" d="M 1786 4339  L 806 595  Q 755 410 755 320  Q 755 205 864 205  Q 1037 205 1293 570  L 1453 794  L 1542 730  Q 1254 275 1046 102  Q 838 -70 576 -70  Q 262 -70 262 288  Q 262 397 288 480  L 1165 3834  Q 1184 3898 1184 3955  Q 1184 4096 870 4096  L 755 4096  L 755 4198  Q 1203 4250 1747 4371  L 1786 4339  z " transform="scale(0.015625)"/>
      </defs>
      <use xlink:href="#Roboto-Regular-46" transform="translate(0 0.921875)"/>
      <use xlink:href="#Roboto-Regular-72" transform="translate(55.273438 0.921875)"/>
      <use xlink:href="#Roboto-Regular-6f" transform="translate(89.160156 0.921875)"/>
      <use xlink:href="#Roboto-Regular-6e" transform="translate(146.191406 0.921875)"/>
      <use xlink:href="#Roboto-Regular-74" transform="translate(201.416016 0.921875)"/>
      <use xlink:href="#Roboto-Regular-20" transform="translate(234.130859 0.921875)"/>
      <use xlink:href="#Roboto-Regular-70" transform="translate(258.935547 0.921875)"/>
      <use xlink:href="#Roboto-Regular-6f" transform="translate(315.087891 0.921875)"/>
      <use xlink:href="#Roboto-Regular-73" transform="translate(372.119141 0.921875)"/>
      <use xlink:href="#Roboto-Regular-69" transform="translate(423.730469 0.921875)"/>
      <use xlink:href="#Roboto-Regular-74" transform="translate(448.046875 0.921875)"/>
      <use xlink:href="#Roboto-Regular-69" transform="translate(480.761719 0.921875)"/>
      <use xlink:href="#Roboto-Regular-6f" transform="translate(505.078125 0.921875)"/>
      <use xlink:href="#Roboto-Regular-6e" transform="translate(562.109375 0.921875)"/>
      <use xlink:href="#Roboto-Regular-2c" transform="translate(617.333984 0.921875)"/>
      <use xlink:href="#Roboto-Regular-20" transform="translate(637.011719 0.921875)"/>
      <use xlink:href="#STIXGeneral-Italic-78" transform="translate(661.816406 0.921875)"/>
      <use xlink:href="#STIXGeneral-Regular-66" transform="translate(706.2164 -12.30625) scale(0.7)"/>
      <use xlink:href="#STIXGeneral-Regular-2f" transform="translate(733.935767 0.921875)"/>
      <use xlink:href="#STIXGeneral-Italic-6c" transform="translate(761.735754 0.921875)"/>
      <use xlink:href="#STIXGeneral-Regular-30" transform="translate(789.535742 -12.30625) scale(0.7)"/>
     </g>
    </g>
   </g>
   <g id="line2d_2">
    <path d="M 17.484615 192.84351  L 30.216729 176.808873  L 42.153086 162.130812  L 53.293685 148.784545  L 63.638528 136.732334  L 73.187613 125.926516  L 82.736699 115.452777  L 91.490027 106.164807  L 100.243356 97.19592  L 108.996684 88.565265  L 116.954255 81.028837  L 124.911826 73.802156  L 132.869398 66.899609  L 140.031212 60.976344  L 147.193026 55.337771  L 154.35484 49.99438  L 160.720897 45.500985  L 167.086954 41.256474  L 173.453011 37.268214  L 179.819068 33.543572  L 186.185125 30.089914  L 192.551182 26.914607  L 198.121482 24.37034  L 203.691781 22.049761  L 209.262081 19.957805  L 214.832381 18.099408  L 220.402681 16.479504  L 225.972981 15.103028  L 231.543281 13.974917  L 237.11358 13.100104  L 242.68388 12.483525  L 247.458423 12.164303  L 252.232966 12.041538  L 255.415994 12.070372  L 255.415994 12.070372  " clip-path="url(#p29a4938f1c)" style="fill: none; stroke: #8dd3c7; stroke-width: 1.5; stroke-linecap: square"/>
   </g>
   <g id="line2d_3">
    <path d="M 110.588198 192.84351  L 110.588198 3.00024  " clip-path="url(#p29a4938f1c)" style="fill: none; stroke: #ffffff; stroke-width: 1.5; stroke-linecap: square"/>
   </g>
   <g id="LineCollection_1">
    <path d="M 30.622565 177.038055  L 48.519143 177.038055  " clip-path="url(#p29a4938f1c)" style="fill: none; stroke: #ffffff; stroke-width: 1.5"/>
   </g>
   <g id="LineCollection_2">
    <path d="M 48.519143 177.038055  L 48.519143 154.646993  " clip-path="url(#p29a4938f1c)" style="fill: none; stroke: #ffffff; stroke-width: 1.5"/>
   </g>
   <g id="patch_3">
    <path d="M 17.484615 192.84351  L 17.484615 3.00024  " style="fill: none; stroke: #ffffff; stroke-width: 0.8; stroke-linejoin: miter; stroke-linecap: square"/>
   </g>
   <g id="patch_4">
    <path d="M 17.484615 192.84351  L 267.312563 192.84351  " style="fill: none; stroke: #ffffff; stroke-width: 0.8; stroke-linejoin: miter; stroke-linecap: square"/>
   </g>
   <g id="text_4">
    <!-- $\mathcal{F}_{r} = u_{\rm c}/u_{0}$ -->
    <g style="fill: #ffffff" transform="translate(53.691564 169.135327) scale(0.11 -0.11)">
     <defs>
      <path id="STIXNonUnicode-Italic-e232" d="M 378 3418  L 275 3533  Q 730 3955 1174 4096  Q 1619 4237 2163 4237  Q 2714 4237 3110 4208  Q 3507 4179 3849 4099  Q 4192 4019 4368 3868  Q 4544 3718 4544 3488  Q 4544 3270 4429 3123  Q 4314 2976 4109 2976  Q 3962 2976 3853 3062  Q 3744 3149 3744 3277  Q 3744 3398 3792 3465  Q 3840 3533 3897 3549  Q 3955 3565 4000 3593  Q 4045 3622 4045 3680  Q 4045 3808 3696 3894  Q 3347 3981 2893 3981  Q 2694 3981 2608 3920  Q 2522 3859 2464 3667  L 2099 2413  L 3494 2413  L 3411 2157  L 2029 2157  L 1747 1203  Q 1626 787 1491 537  Q 1357 288 1174 173  Q 992 58 829 29  Q 666 0 384 0  L 435 154  Q 608 154 726 288  Q 845 422 934 742  L 1690 3334  Q 1754 3558 1754 3667  Q 1754 3776 1690 3827  Q 1626 3878 1459 3878  Q 858 3878 378 3418  z " transform="scale(0.015625)"/>
      <path id="STIXGeneral-Italic-72" d="M 1126 1427  L 1229 1651  Q 1446 2131 1830 2534  Q 2106 2822 2336 2822  Q 2470 2822 2553 2732  Q 2637 2643 2637 2496  Q 2637 2349 2557 2249  Q 2477 2150 2336 2150  Q 2214 2150 2112 2317  Q 2061 2406 2010 2406  Q 1837 2406 1485 1805  Q 1267 1434 1136 1104  Q 1005 774 774 0  L 288 0  L 806 1869  Q 909 2246 909 2394  Q 909 2560 666 2560  Q 614 2560 467 2541  L 467 2650  L 1459 2822  L 1478 2810  L 1126 1427  z " transform="scale(0.015625)"/>
      <path id="STIXGeneral-Regular-3d" d="M 4077 2048  L 307 2048  L 307 2470  L 4077 2470  L 4077 2048  z M 4077 768  L 307 768  L 307 1190  L 4077 1190  L 4077 768  z " transform="scale(0.015625)"/>
      <path id="STIXGeneral-Italic-75" d="M 2950 762  L 3040 704  Q 2733 237 2560 89  Q 2387 -58 2157 -58  Q 1850 -58 1850 250  Q 1850 538 2138 1510  Q 1568 576 1257 253  Q 947 -70 608 -70  Q 269 -70 269 269  Q 269 384 442 1088  L 666 1978  Q 755 2349 755 2406  Q 755 2483 684 2521  Q 614 2560 365 2560  L 365 2650  Q 806 2701 1325 2822  L 1350 2803  L 781 531  Q 762 474 762 429  Q 762 269 890 269  Q 1178 269 1798 1210  Q 2010 1530 2128 1795  Q 2246 2061 2502 2765  L 2976 2765  L 2470 851  Q 2349 390 2349 352  Q 2349 243 2419 243  Q 2496 243 2605 345  Q 2714 448 2950 762  z " transform="scale(0.015625)"/>
      <path id="STIXGeneral-Regular-63" d="M 2547 998  L 2637 941  Q 2362 403 2112 205  Q 1786 -64 1376 -64  Q 845 -64 502 336  Q 160 736 160 1357  Q 160 2170 698 2618  Q 1094 2944 1562 2944  Q 1965 2944 2256 2749  Q 2547 2554 2547 2285  Q 2547 2176 2457 2096  Q 2368 2016 2246 2016  Q 2022 2016 1939 2310  L 1901 2451  Q 1850 2630 1773 2694  Q 1696 2758 1523 2758  Q 1133 2758 893 2451  Q 653 2144 653 1645  Q 653 1094 928 745  Q 1203 397 1645 397  Q 1920 397 2118 528  Q 2317 659 2547 998  z " transform="scale(0.015625)"/>
     </defs>
     <use xlink:href="#STIXNonUnicode-Italic-e232" transform="translate(0 0.40625)"/>
     <use xlink:href="#STIXGeneral-Italic-72" transform="translate(66.743278 -12.821875) scale(0.7)"/>
     <use xlink:href="#STIXGeneral-Regular-3d" transform="translate(112.822645 0.40625)"/>
     <use xlink:href="#STIXGeneral-Italic-75" transform="translate(195.762626 0.40625)"/>
     <use xlink:href="#STIXGeneral-Regular-63" transform="translate(245.762611 -12.821875) scale(0.7)"/>
     <use xlink:href="#STIXGeneral-Regular-2f" transform="translate(281.251982 0.40625)"/>
     <use xlink:href="#STIXGeneral-Italic-75" transform="translate(309.05197 0.40625)"/>
     <use xlink:href="#STIXGeneral-Regular-30" transform="translate(359.051954 -12.821875) scale(0.7)"/>
    </g>
   </g>
   <g id="patch_5">
    <path d="M 124.442704 34.788958  Q 108.288643 34.788958 89.898513 34.788958  " style="fill: none; stroke: #ffffff; stroke-width: 2; stroke-linecap: round"/>
    <path d="M 120.042704 32.588958  L 124.442704 34.788958  L 120.042704 36.988958  " style="fill: none; stroke: #ffffff; stroke-width: 2; stroke-linecap: round"/>
   </g>
   <g id="text_5">
    <!-- ? -->
    <g style="fill: #ffffff" transform="translate(128.678274 37.796771) scale(0.11 -0.11)">
     <defs>
      <path id="Roboto-Regular-3f" d="M 1697 1281  L 1116 1281  Q 1119 1734 1241 1959  Q 1363 2184 1656 2488  Q 1866 2703 2028 2897  Q 2191 3091 2191 3409  Q 2191 3731 2019 3918  Q 1847 4106 1522 4106  Q 1247 4106 1031 3957  Q 816 3809 813 3484  L 234 3484  Q 241 4013 611 4313  Q 981 4613 1522 4613  Q 2119 4613 2445 4294  Q 2772 3975 2772 3425  Q 2772 3006 2525 2673  Q 2278 2341 1987 2072  Q 1697 1803 1697 1281  z M 1091 291  Q 1091 431 1178 528  Q 1266 625 1431 625  Q 1600 625 1687 528  Q 1775 431 1775 291  Q 1775 156 1687 59  Q 1600 -38 1431 -38  Q 1266 -38 1178 59  Q 1091 156 1091 291  z " transform="scale(0.015625)"/>
     </defs>
     <use xlink:href="#Roboto-Regular-3f"/>
    </g>
   </g>
  </g>
 </g>
 <defs>
  <clipPath id="p29a4938f1c">
   <rect x="17.484615" y="3.00024" width="249.827948" height="189.84327"/>
  </clipPath>
 </defs>
</svg>
